G04*
G04 #@! TF.GenerationSoftware,Altium Limited,Altium Designer,23.4.1 (23)*
G04*
G04 Layer_Color=8421504*
%FSLAX25Y25*%
%MOIN*%
G70*
G04*
G04 #@! TF.SameCoordinates,A51C0158-4689-45C6-BA85-3C71187D63DA*
G04*
G04*
G04 #@! TF.FilePolarity,Positive*
G04*
G01*
G75*
%ADD22R,0.04194X0.03494*%
%ADD23R,0.04724X0.03543*%
%ADD24R,0.02087X0.05315*%
%ADD25R,0.05118X0.01575*%
%ADD26R,0.01575X0.05118*%
%ADD27R,0.17717X0.13386*%
%ADD28R,0.24803X0.15748*%
%ADD29R,0.05512X0.03150*%
%ADD30R,0.03543X0.04724*%
%ADD31R,0.06496X0.02756*%
%ADD32R,0.08894X0.11193*%
%ADD33R,0.06299X0.12992*%
%ADD34R,0.02559X0.04528*%
%ADD35R,0.04724X0.08268*%
%ADD36R,0.06378X0.05118*%
%ADD37R,0.04528X0.02559*%
%ADD38R,0.03494X0.04194*%
%ADD39R,0.07913X0.04488*%
%ADD40R,0.06299X0.03937*%
%ADD41R,0.03937X0.06299*%
%ADD42R,0.04528X0.04528*%
G04:AMPARAMS|DCode=43|XSize=66.93mil|YSize=53.15mil|CornerRadius=0mil|HoleSize=0mil|Usage=FLASHONLY|Rotation=45.000|XOffset=0mil|YOffset=0mil|HoleType=Round|Shape=Rectangle|*
%AMROTATEDRECTD43*
4,1,4,-0.00487,-0.04245,-0.04245,-0.00487,0.00487,0.04245,0.04245,0.00487,-0.00487,-0.04245,0.0*
%
%ADD43ROTATEDRECTD43*%

%ADD44R,0.06693X0.12992*%
%ADD45R,0.05118X0.06693*%
%ADD46R,0.13386X0.06693*%
%ADD47R,0.03150X0.05512*%
%ADD48R,0.02756X0.03543*%
%ADD49R,0.02362X0.04331*%
%ADD50R,0.04331X0.03543*%
%ADD51R,0.03150X0.06299*%
%ADD52R,0.07480X0.07874*%
%ADD53R,0.08661X0.06693*%
%ADD54R,0.01968X0.05709*%
%ADD55R,0.04724X0.02756*%
%ADD56R,0.03543X0.02756*%
D22*
X324757Y44122D02*
D03*
X331057D02*
D03*
X324747Y75300D02*
D03*
X331048D02*
D03*
X64447Y132300D02*
D03*
X58148D02*
D03*
X118851Y146799D02*
D03*
X112551D02*
D03*
X174600Y95400D02*
D03*
X168300D02*
D03*
X174600Y100568D02*
D03*
X168300D02*
D03*
X170047Y105300D02*
D03*
X163748D02*
D03*
X175400Y139700D02*
D03*
X169100D02*
D03*
X240300Y129450D02*
D03*
X246600D02*
D03*
X240300Y124450D02*
D03*
X246600D02*
D03*
X237348Y116100D02*
D03*
X243648D02*
D03*
X269800Y113970D02*
D03*
X276100D02*
D03*
Y106270D02*
D03*
X269800D02*
D03*
X161347Y64900D02*
D03*
X167648D02*
D03*
X161347Y45400D02*
D03*
X167648D02*
D03*
X198235Y21829D02*
D03*
X191935D02*
D03*
X180135Y21229D02*
D03*
X173835D02*
D03*
X252512Y66304D02*
D03*
X258812D02*
D03*
X252484Y61302D02*
D03*
X258784D02*
D03*
D23*
X324757Y56524D02*
D03*
Y49043D02*
D03*
X317277Y52784D02*
D03*
X161347Y51400D02*
D03*
Y58880D02*
D03*
X168828Y55140D02*
D03*
D24*
X324757Y68335D02*
D03*
X331056D02*
D03*
D25*
X194930Y112172D02*
D03*
Y118078D02*
D03*
X228395Y133826D02*
D03*
X194930Y122015D02*
D03*
Y114141D02*
D03*
Y116109D02*
D03*
Y129889D02*
D03*
Y131857D02*
D03*
Y133826D02*
D03*
Y125952D02*
D03*
Y127920D02*
D03*
Y123983D02*
D03*
X228395Y129889D02*
D03*
Y127920D02*
D03*
Y125952D02*
D03*
Y123983D02*
D03*
Y122015D02*
D03*
Y120046D02*
D03*
Y118078D02*
D03*
Y116109D02*
D03*
Y114141D02*
D03*
Y112172D02*
D03*
X194930Y120046D02*
D03*
X228395Y131857D02*
D03*
D26*
X200836Y106267D02*
D03*
Y139731D02*
D03*
X222489Y106267D02*
D03*
X222489Y139731D02*
D03*
X204773D02*
D03*
X206741D02*
D03*
X208710D02*
D03*
X210678D02*
D03*
X212647D02*
D03*
X214615D02*
D03*
X216584D02*
D03*
X218552D02*
D03*
X220521D02*
D03*
X218552Y106267D02*
D03*
X216584D02*
D03*
X214615D02*
D03*
X212647D02*
D03*
X210678D02*
D03*
X208710D02*
D03*
X206741D02*
D03*
X204773D02*
D03*
X202804D02*
D03*
X202804Y139731D02*
D03*
X220521Y106267D02*
D03*
D27*
X62597Y169241D02*
D03*
X62446Y58341D02*
D03*
D28*
X27361Y146406D02*
D03*
Y197194D02*
D03*
X27210Y86294D02*
D03*
Y35506D02*
D03*
D29*
X46148Y108400D02*
D03*
Y115880D02*
D03*
X81844Y157429D02*
D03*
Y149949D02*
D03*
X89718Y157429D02*
D03*
Y149949D02*
D03*
X187100Y111840D02*
D03*
Y104360D02*
D03*
X135047Y156858D02*
D03*
Y164338D02*
D03*
X176748Y163000D02*
D03*
Y170480D02*
D03*
X184748Y163040D02*
D03*
Y170520D02*
D03*
X229100Y100300D02*
D03*
Y92820D02*
D03*
X236100Y100300D02*
D03*
Y92820D02*
D03*
X251100Y100300D02*
D03*
Y92820D02*
D03*
X259100Y100300D02*
D03*
Y92820D02*
D03*
X161308Y35465D02*
D03*
Y27984D02*
D03*
X169182Y35465D02*
D03*
Y27984D02*
D03*
X177056Y35465D02*
D03*
Y27984D02*
D03*
X259400Y51300D02*
D03*
Y43820D02*
D03*
X251400Y51300D02*
D03*
Y43820D02*
D03*
D30*
X52119Y132251D02*
D03*
X44639D02*
D03*
X48379Y124771D02*
D03*
X214718Y245834D02*
D03*
X207237D02*
D03*
X210978Y238353D02*
D03*
X266686Y245834D02*
D03*
X259206D02*
D03*
X262946Y238353D02*
D03*
D31*
X118851Y152390D02*
D03*
Y157390D02*
D03*
Y162390D02*
D03*
Y167390D02*
D03*
X97592Y152390D02*
D03*
Y157390D02*
D03*
Y167390D02*
D03*
Y162390D02*
D03*
D32*
X102355Y138531D02*
D03*
X84954D02*
D03*
D33*
X113340Y135776D02*
D03*
X121607D02*
D03*
D34*
X82237Y177330D02*
D03*
Y188353D02*
D03*
D35*
X82237Y198571D02*
D03*
X92474D02*
D03*
D36*
X137749Y198590D02*
D03*
Y178511D02*
D03*
X102316Y198590D02*
D03*
Y178511D02*
D03*
D37*
X188447Y245100D02*
D03*
X199471D02*
D03*
X239948D02*
D03*
X250971D02*
D03*
X243000Y165700D02*
D03*
X231976D02*
D03*
X255466Y25500D02*
D03*
X244442D02*
D03*
D38*
X220747Y245900D02*
D03*
Y239600D02*
D03*
X225747Y239500D02*
D03*
Y245800D02*
D03*
X272548D02*
D03*
Y239500D02*
D03*
X277548D02*
D03*
Y245800D02*
D03*
X141347Y156858D02*
D03*
Y163158D02*
D03*
X207237Y158750D02*
D03*
Y165050D02*
D03*
X196600Y84850D02*
D03*
Y91150D02*
D03*
X201500D02*
D03*
Y84850D02*
D03*
X206500D02*
D03*
Y91150D02*
D03*
X211659Y84809D02*
D03*
Y91109D02*
D03*
D39*
X241747Y195000D02*
D03*
Y205000D02*
D03*
Y215000D02*
D03*
Y185000D02*
D03*
Y225000D02*
D03*
D40*
X84421Y35410D02*
D03*
Y40410D02*
D03*
X84500Y55430D02*
D03*
X84421Y60410D02*
D03*
Y65410D02*
D03*
Y70410D02*
D03*
Y75410D02*
D03*
Y80410D02*
D03*
Y85410D02*
D03*
Y90410D02*
D03*
Y95410D02*
D03*
D03*
X153319D02*
D03*
Y90410D02*
D03*
Y85410D02*
D03*
Y80410D02*
D03*
Y75410D02*
D03*
Y70410D02*
D03*
Y65410D02*
D03*
Y60410D02*
D03*
Y55410D02*
D03*
Y50410D02*
D03*
Y45410D02*
D03*
Y35410D02*
D03*
Y30410D02*
D03*
D03*
X84421D02*
D03*
X153319Y40410D02*
D03*
X84421Y50410D02*
D03*
Y45410D02*
D03*
D41*
X96370Y100410D02*
D03*
X101370Y100331D02*
D03*
X106370D02*
D03*
X111370D02*
D03*
X116370D02*
D03*
X121370D02*
D03*
X126370D02*
D03*
X131370D02*
D03*
X136370D02*
D03*
X141370D02*
D03*
D03*
D42*
X121547Y59308D02*
D03*
X127555Y65316D02*
D03*
X121547D02*
D03*
X115540D02*
D03*
Y59308D02*
D03*
X127555D02*
D03*
X115540Y53300D02*
D03*
X121547D02*
D03*
X127555D02*
D03*
D43*
X170647Y114300D02*
D03*
X174823Y130725D02*
D03*
X164523Y120424D02*
D03*
X180947Y124600D02*
D03*
D44*
X141954Y139136D02*
D03*
Y119451D02*
D03*
D45*
X167703Y156002D02*
D03*
X149592D02*
D03*
X158648D02*
D03*
D46*
Y181199D02*
D03*
D47*
X193233Y155776D02*
D03*
X185752D02*
D03*
X193233Y147902D02*
D03*
X185752D02*
D03*
X234400Y138800D02*
D03*
X241880D02*
D03*
X255460Y37000D02*
D03*
X262940D02*
D03*
X268700Y26100D02*
D03*
X261220D02*
D03*
X268700Y19100D02*
D03*
X261220D02*
D03*
X268700Y11143D02*
D03*
X261220D02*
D03*
D48*
X266100Y100300D02*
D03*
X271100D02*
D03*
X276100D02*
D03*
X281100D02*
D03*
X276100Y79040D02*
D03*
X271100D02*
D03*
X266100D02*
D03*
X281100D02*
D03*
D49*
X270765Y73770D02*
D03*
X266435D02*
D03*
D50*
X203340Y2876D02*
D03*
Y11143D02*
D03*
X174600Y2876D02*
D03*
Y11143D02*
D03*
D51*
X197828Y13899D02*
D03*
X191923D02*
D03*
X180112D02*
D03*
D52*
X247198Y5912D02*
D03*
X217277D02*
D03*
D53*
X244442Y15952D02*
D03*
X220033D02*
D03*
D54*
X237355Y16444D02*
D03*
X234796D02*
D03*
X229678D02*
D03*
X232237D02*
D03*
X227119D02*
D03*
D55*
X215879Y32900D02*
D03*
X225721Y36640D02*
D03*
Y29160D02*
D03*
X215879D02*
D03*
X215879Y36640D02*
D03*
X225721Y32900D02*
D03*
D56*
X244442Y51304D02*
D03*
Y66304D02*
D03*
Y61304D02*
D03*
Y56304D02*
D03*
X223182D02*
D03*
Y61304D02*
D03*
Y66304D02*
D03*
Y51304D02*
D03*
M02*
