G04*
G04 #@! TF.GenerationSoftware,Altium Limited,Altium Designer,23.4.1 (23)*
G04*
G04 Layer_Color=32896*
%FSLAX25Y25*%
%MOIN*%
G70*
G04*
G04 #@! TF.SameCoordinates,A51C0158-4689-45C6-BA85-3C71187D63DA*
G04*
G04*
G04 #@! TF.FilePolarity,Positive*
G04*
G01*
G75*
%ADD10C,0.00787*%
%ADD17C,0.00394*%
%ADD18C,0.00591*%
%ADD169C,0.01378*%
G36*
X111093Y333991D02*
X111173D01*
Y333912D01*
X111332D01*
Y333832D01*
X111412D01*
Y333752D01*
X111492D01*
Y333673D01*
X111571D01*
Y333593D01*
X111651D01*
Y333513D01*
X111731D01*
Y333434D01*
X111810D01*
Y333274D01*
X111890D01*
Y333195D01*
X111970D01*
Y333035D01*
X112049D01*
Y332876D01*
X112129D01*
Y332717D01*
X112209D01*
Y332558D01*
X112288D01*
Y332398D01*
X112368D01*
Y332239D01*
X112448D01*
Y332000D01*
X112527D01*
Y331841D01*
X112607D01*
Y331681D01*
X112687D01*
Y331522D01*
X112766D01*
Y331283D01*
X112846D01*
Y331044D01*
X112926D01*
Y330885D01*
X113005D01*
Y330646D01*
X113085D01*
Y330486D01*
X113164D01*
Y330248D01*
X113244D01*
Y330009D01*
X113324D01*
Y329849D01*
X113403D01*
Y329610D01*
X113483D01*
Y329371D01*
X113563D01*
Y329212D01*
X113642D01*
Y328973D01*
X113722D01*
Y328734D01*
X113802D01*
Y328495D01*
X113881D01*
Y328336D01*
X113961D01*
Y328097D01*
X114041D01*
Y327858D01*
X114120D01*
Y327699D01*
X114200D01*
Y327460D01*
X114280D01*
Y327221D01*
X114359D01*
Y326982D01*
X114439D01*
Y326743D01*
X114519D01*
Y326584D01*
X114598D01*
Y326345D01*
X114678D01*
Y326106D01*
X114758D01*
Y325946D01*
X114837D01*
Y325707D01*
X114917D01*
Y325468D01*
X114997D01*
Y325229D01*
X115076D01*
Y324991D01*
X115156D01*
Y324831D01*
X115235D01*
Y324592D01*
X115315D01*
Y324353D01*
X115395D01*
Y324194D01*
X115474D01*
Y323955D01*
X115554D01*
Y323716D01*
X115634D01*
Y323477D01*
X115713D01*
Y323318D01*
X115793D01*
Y323079D01*
X115873D01*
Y322840D01*
X115952D01*
Y322601D01*
X116032D01*
Y322442D01*
X116112D01*
Y322203D01*
X116191D01*
Y321964D01*
X116271D01*
Y321804D01*
X116351D01*
Y321565D01*
X116430D01*
Y321326D01*
X116510D01*
Y321087D01*
X116590D01*
Y320928D01*
X116669D01*
Y320689D01*
X116749D01*
Y320450D01*
X116829D01*
Y320211D01*
X116908D01*
Y320052D01*
X116988D01*
Y319813D01*
X117068D01*
Y319574D01*
X117147D01*
Y319415D01*
X117227D01*
Y319176D01*
X117306D01*
Y318937D01*
X117386D01*
Y318698D01*
X117466D01*
Y318538D01*
X117545D01*
Y318300D01*
X117625D01*
Y318061D01*
X117705D01*
Y317822D01*
X117784D01*
Y317583D01*
X117864D01*
Y317423D01*
X117944D01*
Y317184D01*
X118023D01*
Y316945D01*
X118103D01*
Y316706D01*
X118183D01*
Y316547D01*
X118262D01*
Y316308D01*
X118342D01*
Y316069D01*
X118422D01*
Y315910D01*
X118501D01*
Y315671D01*
X118581D01*
Y315432D01*
X118661D01*
Y315193D01*
X118740D01*
Y315034D01*
X118820D01*
Y314795D01*
X118900D01*
Y314556D01*
X118979D01*
Y314317D01*
X119059D01*
Y314158D01*
X119139D01*
Y313919D01*
X119218D01*
Y313680D01*
X119298D01*
Y313520D01*
X119378D01*
Y313281D01*
X119457D01*
Y313042D01*
X119537D01*
Y312803D01*
X119616D01*
Y312644D01*
X119696D01*
Y312405D01*
X119776D01*
Y312166D01*
X119855D01*
Y311927D01*
X119935D01*
Y311768D01*
X120015D01*
Y311529D01*
X120094D01*
Y311290D01*
X120174D01*
Y311131D01*
X120254D01*
Y310892D01*
X120333D01*
Y310653D01*
X120413D01*
Y310414D01*
X120493D01*
Y310255D01*
X120572D01*
Y310016D01*
X120652D01*
Y309777D01*
X120732D01*
Y309538D01*
X120811D01*
Y309299D01*
X120891D01*
Y309139D01*
X120970D01*
Y308900D01*
X121050D01*
Y308662D01*
X121130D01*
Y308502D01*
X121210D01*
Y308263D01*
X121289D01*
Y308024D01*
X121369D01*
Y307785D01*
X121449D01*
Y307626D01*
X121528D01*
Y307387D01*
X121608D01*
Y307148D01*
X121687D01*
Y306909D01*
X121767D01*
Y306750D01*
X121847D01*
Y306511D01*
X121926D01*
Y306272D01*
X122006D01*
Y306033D01*
X122086D01*
Y305874D01*
X122165D01*
Y305635D01*
X122245D01*
Y305396D01*
X122325D01*
Y305236D01*
X122404D01*
Y304997D01*
X122484D01*
Y304759D01*
X122564D01*
Y304599D01*
X122643D01*
Y304360D01*
X122723D01*
Y304121D01*
X122803D01*
Y303882D01*
X122882D01*
Y303643D01*
X122962D01*
Y303484D01*
X123041D01*
Y303245D01*
X123121D01*
Y303006D01*
X123201D01*
Y302847D01*
X123281D01*
Y302608D01*
X123360D01*
Y302369D01*
X123440D01*
Y302130D01*
X123519D01*
Y301971D01*
X123599D01*
Y301732D01*
X123679D01*
Y301493D01*
X123758D01*
Y301254D01*
X123838D01*
Y301094D01*
X123918D01*
Y300855D01*
X123997D01*
Y300617D01*
X124077D01*
Y300377D01*
X124157D01*
Y300138D01*
X124236D01*
Y299979D01*
X124316D01*
Y299740D01*
X124396D01*
Y299501D01*
X124475D01*
Y299342D01*
X124555D01*
Y299103D01*
X124635D01*
Y298864D01*
X124714D01*
Y298705D01*
X124794D01*
Y298466D01*
X124874D01*
Y298227D01*
X124953D01*
Y297988D01*
X125033D01*
Y297829D01*
X125112D01*
Y297590D01*
X125192D01*
Y297351D01*
X125272D01*
Y297112D01*
X125352D01*
Y296952D01*
X125431D01*
Y296713D01*
X125511D01*
Y296475D01*
X125590D01*
Y296315D01*
X125670D01*
Y296076D01*
X125750D01*
Y295837D01*
X125829D01*
Y295598D01*
X125909D01*
Y295439D01*
X125989D01*
Y295200D01*
X126068D01*
Y294961D01*
X126148D01*
Y294722D01*
X126228D01*
Y294563D01*
X126307D01*
Y294324D01*
X126387D01*
Y294085D01*
X126467D01*
Y293926D01*
X126546D01*
Y293687D01*
X126626D01*
Y293448D01*
X126706D01*
Y293209D01*
X126785D01*
Y292970D01*
X126865D01*
Y292810D01*
X126944D01*
Y292571D01*
X127024D01*
Y292333D01*
X127104D01*
Y292094D01*
X127183D01*
Y291934D01*
X127263D01*
Y291695D01*
X127343D01*
Y291456D01*
X127422D01*
Y291217D01*
X127502D01*
Y291058D01*
X127582D01*
Y290819D01*
X127661D01*
Y290580D01*
X127741D01*
Y290421D01*
X127821D01*
Y290182D01*
X127900D01*
Y289943D01*
X127980D01*
Y289704D01*
X128060D01*
Y289545D01*
X128139D01*
Y289306D01*
X128219D01*
Y289067D01*
X128299D01*
Y288828D01*
X128378D01*
Y288668D01*
X122325D01*
Y288828D01*
X122245D01*
Y289067D01*
X122165D01*
Y289306D01*
X122086D01*
Y289545D01*
X122006D01*
Y289784D01*
X121926D01*
Y290023D01*
X121847D01*
Y290262D01*
X121767D01*
Y290500D01*
X121687D01*
Y290739D01*
X121608D01*
Y290978D01*
X121528D01*
Y291217D01*
X121449D01*
Y291536D01*
X121369D01*
Y291695D01*
X121289D01*
Y291934D01*
X121210D01*
Y292173D01*
X121130D01*
Y292492D01*
X121050D01*
Y292651D01*
X120970D01*
Y292970D01*
X120891D01*
Y293209D01*
X120811D01*
Y293448D01*
X120732D01*
Y293687D01*
X120652D01*
Y293926D01*
X120572D01*
Y294164D01*
X120493D01*
Y294404D01*
X120413D01*
Y294642D01*
X120333D01*
Y294881D01*
X120254D01*
Y295120D01*
X120174D01*
Y295359D01*
X120094D01*
Y295598D01*
X120015D01*
Y295837D01*
X119935D01*
Y296076D01*
X119855D01*
Y296315D01*
X119776D01*
Y296634D01*
X119696D01*
Y296873D01*
X119616D01*
Y297112D01*
X119537D01*
Y297351D01*
X119457D01*
Y297590D01*
X119378D01*
Y297829D01*
X119298D01*
Y298068D01*
X119218D01*
Y298306D01*
X119139D01*
Y298546D01*
X119059D01*
Y298784D01*
X118979D01*
Y299023D01*
X118900D01*
Y299262D01*
X118820D01*
Y299501D01*
X118740D01*
Y299740D01*
X118661D01*
Y299979D01*
X118581D01*
Y300218D01*
X118501D01*
Y300457D01*
X118422D01*
Y300696D01*
X118342D01*
Y300935D01*
X118262D01*
Y301254D01*
X118183D01*
Y301493D01*
X118103D01*
Y301732D01*
X118023D01*
Y301971D01*
X117944D01*
Y302209D01*
X117864D01*
Y302449D01*
X117784D01*
Y302687D01*
X117705D01*
Y302926D01*
X117625D01*
Y303165D01*
X117545D01*
Y303404D01*
X117466D01*
Y303643D01*
X117386D01*
Y303882D01*
X117306D01*
Y304121D01*
X117227D01*
Y304360D01*
X117147D01*
Y304599D01*
X117068D01*
Y304918D01*
X116988D01*
Y305077D01*
X116908D01*
Y305396D01*
X116829D01*
Y305635D01*
X116749D01*
Y305874D01*
X116669D01*
Y306113D01*
X116590D01*
Y306351D01*
X116510D01*
Y306591D01*
X116430D01*
Y306829D01*
X116351D01*
Y307068D01*
X116271D01*
Y307307D01*
X116191D01*
Y307546D01*
X116112D01*
Y307785D01*
X116032D01*
Y308024D01*
X115952D01*
Y308263D01*
X115873D01*
Y308502D01*
X115793D01*
Y308741D01*
X115713D01*
Y308980D01*
X115634D01*
Y309219D01*
X115554D01*
Y309458D01*
X115474D01*
Y309777D01*
X115395D01*
Y310016D01*
X115315D01*
Y310255D01*
X115235D01*
Y310493D01*
X115156D01*
Y310733D01*
X115076D01*
Y310971D01*
X114997D01*
Y311210D01*
X114917D01*
Y311449D01*
X114837D01*
Y311688D01*
X114758D01*
Y311927D01*
X114678D01*
Y312166D01*
X114598D01*
Y312405D01*
X114519D01*
Y312644D01*
X114439D01*
Y312883D01*
X114359D01*
Y313202D01*
X114280D01*
Y313361D01*
X114200D01*
Y313600D01*
X114120D01*
Y313839D01*
X114041D01*
Y314158D01*
X113961D01*
Y314317D01*
X113881D01*
Y314635D01*
X113802D01*
Y314875D01*
X113722D01*
Y315113D01*
X113642D01*
Y315273D01*
X113563D01*
Y315432D01*
X113483D01*
Y315591D01*
X113403D01*
Y315751D01*
X113324D01*
Y315910D01*
X113244D01*
Y315990D01*
X113164D01*
Y316069D01*
X113085D01*
Y316149D01*
X113005D01*
Y316229D01*
X112687D01*
Y316149D01*
X112527D01*
Y316069D01*
X112448D01*
Y315990D01*
X112368D01*
Y315830D01*
X112288D01*
Y315751D01*
X112209D01*
Y315591D01*
X112129D01*
Y315432D01*
X112049D01*
Y315273D01*
X111970D01*
Y315034D01*
X111890D01*
Y314875D01*
X111810D01*
Y314635D01*
X111731D01*
Y314397D01*
X111651D01*
Y314158D01*
X111571D01*
Y313919D01*
X111492D01*
Y313680D01*
X111412D01*
Y313441D01*
X111332D01*
Y313202D01*
X111253D01*
Y313042D01*
X111173D01*
Y312803D01*
X111093D01*
Y312564D01*
X111014D01*
Y312326D01*
X110934D01*
Y312087D01*
X110854D01*
Y311927D01*
X110775D01*
Y311688D01*
X110695D01*
Y311449D01*
X110616D01*
Y311210D01*
X110536D01*
Y310971D01*
X110456D01*
Y310733D01*
X110377D01*
Y310493D01*
X110297D01*
Y310334D01*
X110217D01*
Y310016D01*
X110138D01*
Y309856D01*
X110058D01*
Y309617D01*
X109978D01*
Y309378D01*
X109899D01*
Y309139D01*
X109819D01*
Y308900D01*
X109739D01*
Y308741D01*
X109660D01*
Y308502D01*
X109580D01*
Y308263D01*
X109500D01*
Y308024D01*
X109421D01*
Y307785D01*
X109341D01*
Y307546D01*
X109262D01*
Y307307D01*
X109182D01*
Y307068D01*
X109102D01*
Y306909D01*
X109022D01*
Y306670D01*
X108943D01*
Y306431D01*
X108863D01*
Y306192D01*
X108784D01*
Y305953D01*
X108704D01*
Y305714D01*
X108624D01*
Y305555D01*
X108545D01*
Y305316D01*
X108465D01*
Y305077D01*
X108385D01*
Y304838D01*
X108306D01*
Y304599D01*
X108226D01*
Y304360D01*
X108146D01*
Y304121D01*
X108067D01*
Y303962D01*
X107987D01*
Y303643D01*
X107907D01*
Y303484D01*
X107828D01*
Y303245D01*
X107748D01*
Y303006D01*
X107668D01*
Y302767D01*
X107589D01*
Y302528D01*
X107509D01*
Y302369D01*
X107429D01*
Y302130D01*
X107350D01*
Y301891D01*
X107270D01*
Y301652D01*
X107191D01*
Y301413D01*
X107111D01*
Y301174D01*
X107031D01*
Y300935D01*
X106951D01*
Y300776D01*
X106872D01*
Y300537D01*
X106792D01*
Y300298D01*
X106713D01*
Y300059D01*
X106633D01*
Y299820D01*
X106553D01*
Y299581D01*
X106474D01*
Y299422D01*
X106394D01*
Y299183D01*
X106314D01*
Y298944D01*
X106235D01*
Y298705D01*
X106155D01*
Y298466D01*
X106075D01*
Y298227D01*
X105996D01*
Y297988D01*
X105916D01*
Y297749D01*
X105836D01*
Y297590D01*
X105757D01*
Y297351D01*
X105677D01*
Y297112D01*
X105597D01*
Y296873D01*
X105518D01*
Y296634D01*
X105438D01*
Y296395D01*
X105359D01*
Y296156D01*
X105279D01*
Y295996D01*
X105199D01*
Y295758D01*
X105120D01*
Y295519D01*
X105040D01*
Y295280D01*
X104960D01*
Y295041D01*
X104880D01*
Y294881D01*
X104801D01*
Y294563D01*
X104721D01*
Y294404D01*
X104642D01*
Y294164D01*
X104562D01*
Y293926D01*
X104482D01*
Y293687D01*
X104403D01*
Y293448D01*
X104323D01*
Y293288D01*
X104243D01*
Y293049D01*
X104164D01*
Y292810D01*
X104084D01*
Y292571D01*
X104004D01*
Y292333D01*
X103925D01*
Y292094D01*
X103845D01*
Y291934D01*
X103765D01*
Y291695D01*
X103686D01*
Y291377D01*
X103606D01*
Y291217D01*
X103526D01*
Y290978D01*
X103447D01*
Y290739D01*
X103367D01*
Y290500D01*
X103287D01*
Y290262D01*
X103208D01*
Y290102D01*
X103128D01*
Y289863D01*
X103049D01*
Y289624D01*
X102969D01*
Y289385D01*
X102889D01*
Y289146D01*
X102810D01*
Y288987D01*
X102730D01*
Y288668D01*
X92534D01*
Y288828D01*
X92614D01*
Y289067D01*
X92694D01*
Y289306D01*
X92773D01*
Y289465D01*
X92853D01*
Y289704D01*
X92932D01*
Y289943D01*
X93012D01*
Y290102D01*
X93092D01*
Y290341D01*
X93172D01*
Y290500D01*
X93251D01*
Y290739D01*
X93331D01*
Y290899D01*
X93410D01*
Y291138D01*
X93490D01*
Y291377D01*
X93570D01*
Y291536D01*
X93649D01*
Y291775D01*
X93729D01*
Y291934D01*
X93809D01*
Y292173D01*
X93888D01*
Y292412D01*
X93968D01*
Y292571D01*
X94048D01*
Y292810D01*
X94127D01*
Y292970D01*
X94207D01*
Y293209D01*
X94287D01*
Y293448D01*
X94366D01*
Y293607D01*
X94446D01*
Y293846D01*
X94526D01*
Y294005D01*
X94605D01*
Y294244D01*
X94685D01*
Y294404D01*
X94765D01*
Y294642D01*
X94844D01*
Y294802D01*
X94924D01*
Y295041D01*
X95003D01*
Y295280D01*
X95083D01*
Y295439D01*
X95163D01*
Y295678D01*
X95243D01*
Y295917D01*
X95322D01*
Y296076D01*
X95402D01*
Y296315D01*
X95481D01*
Y296475D01*
X95561D01*
Y296713D01*
X95641D01*
Y296952D01*
X95720D01*
Y297112D01*
X95800D01*
Y297351D01*
X95880D01*
Y297510D01*
X95959D01*
Y297749D01*
X96039D01*
Y297908D01*
X96119D01*
Y298147D01*
X96198D01*
Y298386D01*
X96278D01*
Y298546D01*
X96358D01*
Y298784D01*
X96437D01*
Y298944D01*
X96517D01*
Y299183D01*
X96597D01*
Y299422D01*
X96676D01*
Y299581D01*
X96756D01*
Y299820D01*
X96836D01*
Y299979D01*
X96915D01*
Y300218D01*
X96995D01*
Y300457D01*
X97075D01*
Y300617D01*
X97154D01*
Y300855D01*
X97234D01*
Y301015D01*
X97313D01*
Y301254D01*
X97393D01*
Y301413D01*
X97473D01*
Y301652D01*
X97552D01*
Y301891D01*
X97632D01*
Y302050D01*
X97712D01*
Y302289D01*
X97791D01*
Y302449D01*
X97871D01*
Y302687D01*
X97951D01*
Y302926D01*
X98030D01*
Y303086D01*
X98110D01*
Y303325D01*
X98190D01*
Y303484D01*
X98269D01*
Y303723D01*
X98349D01*
Y303962D01*
X98429D01*
Y304121D01*
X98508D01*
Y304360D01*
X98588D01*
Y304599D01*
X98668D01*
Y304759D01*
X98747D01*
Y304997D01*
X98827D01*
Y305157D01*
X98906D01*
Y305396D01*
X98986D01*
Y305635D01*
X99066D01*
Y305794D01*
X99146D01*
Y306033D01*
X99225D01*
Y306192D01*
X99305D01*
Y306431D01*
X99384D01*
Y306670D01*
X99464D01*
Y306829D01*
X99544D01*
Y307068D01*
X99623D01*
Y307228D01*
X99703D01*
Y307467D01*
X99783D01*
Y307706D01*
X99862D01*
Y307865D01*
X99942D01*
Y308104D01*
X100022D01*
Y308343D01*
X100101D01*
Y308502D01*
X100181D01*
Y308741D01*
X100261D01*
Y308900D01*
X100340D01*
Y309139D01*
X100420D01*
Y309299D01*
X100500D01*
Y309538D01*
X100579D01*
Y309777D01*
X100659D01*
Y310016D01*
X100739D01*
Y310175D01*
X100818D01*
Y310414D01*
X100898D01*
Y310573D01*
X100978D01*
Y310812D01*
X101057D01*
Y310971D01*
X101137D01*
Y311210D01*
X101216D01*
Y311449D01*
X101296D01*
Y311609D01*
X101376D01*
Y311848D01*
X101455D01*
Y312087D01*
X101535D01*
Y312246D01*
X101615D01*
Y312485D01*
X101694D01*
Y312644D01*
X101774D01*
Y312883D01*
X101854D01*
Y313122D01*
X101933D01*
Y313281D01*
X102013D01*
Y313520D01*
X102093D01*
Y313759D01*
X102172D01*
Y313919D01*
X102252D01*
Y314158D01*
X102332D01*
Y314317D01*
X102411D01*
Y314556D01*
X102491D01*
Y314795D01*
X102571D01*
Y314954D01*
X102650D01*
Y315193D01*
X102730D01*
Y315432D01*
X102810D01*
Y315591D01*
X102889D01*
Y315830D01*
X102969D01*
Y316069D01*
X103049D01*
Y316229D01*
X103128D01*
Y316467D01*
X103208D01*
Y316627D01*
X103287D01*
Y316866D01*
X103367D01*
Y317105D01*
X103447D01*
Y317264D01*
X103526D01*
Y317503D01*
X103606D01*
Y317742D01*
X103686D01*
Y317901D01*
X103765D01*
Y318140D01*
X103845D01*
Y318300D01*
X103925D01*
Y318538D01*
X104004D01*
Y318777D01*
X104084D01*
Y318937D01*
X104164D01*
Y319176D01*
X104243D01*
Y319415D01*
X104323D01*
Y319574D01*
X104403D01*
Y319813D01*
X104482D01*
Y319972D01*
X104562D01*
Y320211D01*
X104642D01*
Y320450D01*
X104721D01*
Y320609D01*
X104801D01*
Y320848D01*
X104880D01*
Y321008D01*
X104960D01*
Y321247D01*
X105040D01*
Y321486D01*
X105120D01*
Y321645D01*
X105199D01*
Y321884D01*
X105279D01*
Y322123D01*
X105359D01*
Y322282D01*
X105438D01*
Y322521D01*
X105518D01*
Y322680D01*
X105597D01*
Y322919D01*
X105677D01*
Y323158D01*
X105757D01*
Y323318D01*
X105836D01*
Y323557D01*
X105916D01*
Y323716D01*
X105996D01*
Y323955D01*
X106075D01*
Y324194D01*
X106155D01*
Y324353D01*
X106235D01*
Y324592D01*
X106314D01*
Y324751D01*
X106394D01*
Y324991D01*
X106474D01*
Y325229D01*
X106553D01*
Y325389D01*
X106633D01*
Y325628D01*
X106713D01*
Y325867D01*
X106792D01*
Y326026D01*
X106872D01*
Y326265D01*
X106951D01*
Y326424D01*
X107031D01*
Y326663D01*
X107111D01*
Y326902D01*
X107191D01*
Y327061D01*
X107270D01*
Y327300D01*
X107350D01*
Y327460D01*
X107429D01*
Y327699D01*
X107509D01*
Y327858D01*
X107589D01*
Y328097D01*
X107668D01*
Y328336D01*
X107748D01*
Y328495D01*
X107828D01*
Y328734D01*
X107907D01*
Y328893D01*
X107987D01*
Y329053D01*
X108067D01*
Y329292D01*
X108146D01*
Y329451D01*
X108226D01*
Y329690D01*
X108306D01*
Y329929D01*
X108385D01*
Y330088D01*
X108465D01*
Y330327D01*
X108545D01*
Y330566D01*
X108624D01*
Y330726D01*
X108704D01*
Y330964D01*
X108784D01*
Y331124D01*
X108863D01*
Y331363D01*
X108943D01*
Y331522D01*
X109022D01*
Y331761D01*
X109102D01*
Y331920D01*
X109182D01*
Y332159D01*
X109262D01*
Y332319D01*
X109341D01*
Y332478D01*
X109421D01*
Y332637D01*
X109500D01*
Y332797D01*
X109580D01*
Y332956D01*
X109660D01*
Y333115D01*
X109739D01*
Y333195D01*
X109819D01*
Y333354D01*
X109899D01*
Y333434D01*
X109978D01*
Y333513D01*
X110058D01*
Y333673D01*
X110138D01*
Y333752D01*
X110297D01*
Y333832D01*
X110456D01*
Y333912D01*
X110536D01*
Y333991D01*
X110616D01*
Y334071D01*
X111093D01*
Y333991D01*
D02*
G37*
G36*
X147654Y284367D02*
X147097D01*
Y284288D01*
X146938D01*
Y284208D01*
X146858D01*
Y284049D01*
X146778D01*
Y277039D01*
X146858D01*
Y276720D01*
X146938D01*
Y276641D01*
X147017D01*
Y276561D01*
X147177D01*
Y276482D01*
X147495D01*
Y276402D01*
X144867D01*
Y276482D01*
X145424D01*
Y276561D01*
X145663D01*
Y276641D01*
X145743D01*
Y276720D01*
X145822D01*
Y277039D01*
X145902D01*
Y279907D01*
X144946D01*
Y279827D01*
X144309D01*
Y279668D01*
X144229D01*
Y279588D01*
X144150D01*
Y279508D01*
X144070D01*
Y279349D01*
X143990D01*
Y279269D01*
X143911D01*
Y279190D01*
X143831D01*
Y279030D01*
X143751D01*
Y278951D01*
X143672D01*
Y278871D01*
X143592D01*
Y278712D01*
X143512D01*
Y278632D01*
X143433D01*
Y278552D01*
X143353D01*
Y278393D01*
X143273D01*
Y278313D01*
X143194D01*
Y278234D01*
X143114D01*
Y278075D01*
X143035D01*
Y277995D01*
X142955D01*
Y277836D01*
X142875D01*
Y277756D01*
X142796D01*
Y277676D01*
X142716D01*
Y277597D01*
X142636D01*
Y277437D01*
X142557D01*
Y277358D01*
X142477D01*
Y277278D01*
X142397D01*
Y277198D01*
X142318D01*
Y277039D01*
X142158D01*
Y276880D01*
X142079D01*
Y276800D01*
X141919D01*
Y276720D01*
X141840D01*
Y276641D01*
X141680D01*
Y276561D01*
X141521D01*
Y276482D01*
X141282D01*
Y276402D01*
X139530D01*
Y276482D01*
X140008D01*
Y276561D01*
X140326D01*
Y276641D01*
X140565D01*
Y276720D01*
X140725D01*
Y276800D01*
X140804D01*
Y276880D01*
X140964D01*
Y276959D01*
X141043D01*
Y277039D01*
X141123D01*
Y277119D01*
X141202D01*
Y277198D01*
X141282D01*
Y277278D01*
X141362D01*
Y277358D01*
X141442D01*
Y277437D01*
X141521D01*
Y277517D01*
X141601D01*
Y277597D01*
X141680D01*
Y277676D01*
X141760D01*
Y277836D01*
X141840D01*
Y277915D01*
X141919D01*
Y277995D01*
X141999D01*
Y278075D01*
X142079D01*
Y278154D01*
X142158D01*
Y278313D01*
X142238D01*
Y278393D01*
X142318D01*
Y278473D01*
X142397D01*
Y278552D01*
X142477D01*
Y278632D01*
X142557D01*
Y278791D01*
X142636D01*
Y278871D01*
X142716D01*
Y278951D01*
X142796D01*
Y279110D01*
X142875D01*
Y279190D01*
X142955D01*
Y279269D01*
X143035D01*
Y279349D01*
X143114D01*
Y279508D01*
X143194D01*
Y279588D01*
X143273D01*
Y279668D01*
X143353D01*
Y279827D01*
X143433D01*
Y279907D01*
X143512D01*
Y279986D01*
X143592D01*
Y280146D01*
X143512D01*
Y280225D01*
X143433D01*
Y280305D01*
X143353D01*
Y280384D01*
X143273D01*
Y280464D01*
X143194D01*
Y280544D01*
X143114D01*
Y280703D01*
X143035D01*
Y280783D01*
X142955D01*
Y280862D01*
X142875D01*
Y280942D01*
X142796D01*
Y281101D01*
X142716D01*
Y281261D01*
X142636D01*
Y281340D01*
X142557D01*
Y281579D01*
X142477D01*
Y281818D01*
X142397D01*
Y282057D01*
X142318D01*
Y283013D01*
X142397D01*
Y283252D01*
X142477D01*
Y283411D01*
X142557D01*
Y283571D01*
X142636D01*
Y283650D01*
X142716D01*
Y283730D01*
X142796D01*
Y283810D01*
X142875D01*
Y283889D01*
X142955D01*
Y283969D01*
X143035D01*
Y284049D01*
X143114D01*
Y284128D01*
X143273D01*
Y284208D01*
X143433D01*
Y284288D01*
X143672D01*
Y284367D01*
X143990D01*
Y284447D01*
X144628D01*
Y284526D01*
X145504D01*
Y284447D01*
X147017D01*
Y284526D01*
X147654D01*
Y284367D01*
D02*
G37*
G36*
X139450D02*
X138893D01*
Y284288D01*
X138733D01*
Y284208D01*
X138654D01*
Y284049D01*
X138574D01*
Y277119D01*
X138654D01*
Y276720D01*
X138733D01*
Y276641D01*
X138813D01*
Y276561D01*
X138972D01*
Y276482D01*
X139291D01*
Y276402D01*
X137220D01*
Y276322D01*
X134751D01*
Y276402D01*
X134352D01*
Y276482D01*
X134113D01*
Y276561D01*
X133874D01*
Y276641D01*
X133635D01*
Y276720D01*
X133476D01*
Y276800D01*
X133317D01*
Y276880D01*
X133158D01*
Y276959D01*
X133078D01*
Y277039D01*
X132919D01*
Y277119D01*
X132839D01*
Y277198D01*
X132759D01*
Y277278D01*
X132600D01*
Y277358D01*
X132520D01*
Y277437D01*
X132441D01*
Y277517D01*
X132361D01*
Y277597D01*
X132281D01*
Y277756D01*
X132202D01*
Y277836D01*
X132122D01*
Y277915D01*
X132042D01*
Y278075D01*
X131963D01*
Y278154D01*
X131883D01*
Y278313D01*
X131803D01*
Y278393D01*
Y278473D01*
X131724D01*
Y278632D01*
X131644D01*
Y278791D01*
X131564D01*
Y278951D01*
X131485D01*
Y279190D01*
X131405D01*
Y279508D01*
X131325D01*
Y279986D01*
X131246D01*
Y281181D01*
X131325D01*
Y281579D01*
X131405D01*
Y281818D01*
X131485D01*
Y282057D01*
X131564D01*
Y282217D01*
X131644D01*
Y282376D01*
X131724D01*
Y282535D01*
X131803D01*
Y282694D01*
X131883D01*
Y282774D01*
X131963D01*
Y282933D01*
X132042D01*
Y283013D01*
X132122D01*
Y283093D01*
X132202D01*
Y283172D01*
X132281D01*
Y283332D01*
X132361D01*
Y283411D01*
X132441D01*
Y283491D01*
X132600D01*
Y283571D01*
X132680D01*
Y283650D01*
X132759D01*
Y283730D01*
X132919D01*
Y283810D01*
X132998D01*
Y283889D01*
X133158D01*
Y283969D01*
X133317D01*
Y284049D01*
X133476D01*
Y284128D01*
X133715D01*
Y284208D01*
X133954D01*
Y284288D01*
X134273D01*
Y284367D01*
X134671D01*
Y284447D01*
X135706D01*
Y284526D01*
X137459D01*
Y284447D01*
X138733D01*
Y284526D01*
X139450D01*
Y284367D01*
D02*
G37*
G36*
X118501D02*
X117944D01*
Y284288D01*
X117784D01*
Y284208D01*
X117705D01*
Y284049D01*
X117625D01*
Y277039D01*
X117705D01*
Y276720D01*
X117784D01*
Y276641D01*
X117864D01*
Y276561D01*
X118023D01*
Y276482D01*
X118342D01*
Y276402D01*
X114917D01*
Y276482D01*
X114598D01*
Y276561D01*
X114359D01*
Y276641D01*
X114200D01*
Y276720D01*
X114041D01*
Y276800D01*
X113961D01*
Y276880D01*
X113881D01*
Y276959D01*
X113722D01*
Y277039D01*
X113642D01*
Y277198D01*
X113563D01*
Y277278D01*
X113483D01*
Y277358D01*
X113403D01*
Y277437D01*
X113324D01*
Y277597D01*
X113244D01*
Y277756D01*
X113164D01*
Y277915D01*
X113085D01*
Y278154D01*
X113005D01*
Y279269D01*
X113085D01*
Y279508D01*
X113164D01*
Y279668D01*
X113244D01*
Y279827D01*
X113324D01*
Y279907D01*
X113403D01*
Y279986D01*
X113483D01*
Y280066D01*
X113563D01*
Y280225D01*
X113642D01*
Y280305D01*
X113802D01*
Y280384D01*
X113881D01*
Y280464D01*
X113961D01*
Y280544D01*
X114041D01*
Y280623D01*
X114200D01*
Y280703D01*
X114359D01*
Y280783D01*
X114519D01*
Y280862D01*
X114678D01*
Y280942D01*
X114758D01*
Y281101D01*
X114678D01*
Y281181D01*
X114598D01*
Y281261D01*
X114519D01*
Y281340D01*
X114439D01*
Y281420D01*
X114359D01*
Y281500D01*
X114280D01*
Y281659D01*
X114200D01*
Y281739D01*
X114120D01*
Y281898D01*
X114041D01*
Y281978D01*
X113961D01*
Y282217D01*
X113881D01*
Y282455D01*
X113802D01*
Y283252D01*
X113881D01*
Y283491D01*
X113961D01*
Y283571D01*
X114041D01*
Y283730D01*
X114120D01*
Y283810D01*
X114200D01*
Y283889D01*
X114280D01*
Y283969D01*
X114359D01*
Y284049D01*
X114439D01*
Y284128D01*
X114519D01*
Y284208D01*
X114678D01*
Y284288D01*
X114837D01*
Y284367D01*
X115076D01*
Y284447D01*
X115634D01*
Y284526D01*
X116590D01*
Y284447D01*
X117864D01*
Y284526D01*
X118501D01*
Y284367D01*
D02*
G37*
G36*
X93649D02*
X93092D01*
Y284288D01*
X92932D01*
Y284208D01*
X92853D01*
Y284049D01*
X92773D01*
Y277039D01*
X92853D01*
Y276720D01*
X92932D01*
Y276641D01*
X93012D01*
Y276561D01*
X93172D01*
Y276482D01*
X93490D01*
Y276402D01*
X90941D01*
Y276482D01*
X91339D01*
Y276561D01*
X91658D01*
Y276641D01*
X91738D01*
Y276720D01*
X91817D01*
Y277039D01*
X91897D01*
Y280066D01*
Y280146D01*
Y280544D01*
X91817D01*
Y280464D01*
X91738D01*
Y280384D01*
X91658D01*
Y280305D01*
X91578D01*
Y280225D01*
X91499D01*
Y280146D01*
X91419D01*
Y280066D01*
X91339D01*
Y279986D01*
X91260D01*
Y279827D01*
X91180D01*
Y279747D01*
X91101D01*
Y279668D01*
X91021D01*
Y279588D01*
X90941D01*
Y279508D01*
X90861D01*
Y279429D01*
X90782D01*
Y279349D01*
X90702D01*
Y279269D01*
X90623D01*
Y279110D01*
X90463D01*
Y278951D01*
X90304D01*
Y278791D01*
X90224D01*
Y278712D01*
X90145D01*
Y278632D01*
X90065D01*
Y278552D01*
X89985D01*
Y278473D01*
X89906D01*
Y278393D01*
X89826D01*
Y278313D01*
X89746D01*
Y278234D01*
X89667D01*
Y278154D01*
X89587D01*
Y278075D01*
X89507D01*
Y277995D01*
X89428D01*
Y277915D01*
X89348D01*
Y277836D01*
X89268D01*
Y277756D01*
X89189D01*
Y277676D01*
X89109D01*
Y277597D01*
X89030D01*
Y277517D01*
X88950D01*
Y277437D01*
X88870D01*
Y277358D01*
X88791D01*
Y277278D01*
X88711D01*
Y277198D01*
X88631D01*
Y277119D01*
X88552D01*
Y277039D01*
X88472D01*
Y276959D01*
X88392D01*
Y276880D01*
X88233D01*
Y276800D01*
X88153D01*
Y276720D01*
X87994D01*
Y276641D01*
X87914D01*
Y276561D01*
X87755D01*
Y276482D01*
X87516D01*
Y276402D01*
X85764D01*
Y276482D01*
X86162D01*
Y276561D01*
X86481D01*
Y276641D01*
X86640D01*
Y276720D01*
X86799D01*
Y276800D01*
X86958D01*
Y276880D01*
X87038D01*
Y276959D01*
X87197D01*
Y277039D01*
X87277D01*
Y277119D01*
X87357D01*
Y277198D01*
X87436D01*
Y277278D01*
X87516D01*
Y277358D01*
X87675D01*
Y277437D01*
X87755D01*
Y277517D01*
X87835D01*
Y277597D01*
X87914D01*
Y277676D01*
X87994D01*
Y277756D01*
X88074D01*
Y277836D01*
X88153D01*
Y277915D01*
X88233D01*
Y277995D01*
X88313D01*
Y278075D01*
X88392D01*
Y278154D01*
X88472D01*
Y278234D01*
X88552D01*
Y278313D01*
X88631D01*
Y278393D01*
X88711D01*
Y278473D01*
X88791D01*
Y278552D01*
X88870D01*
Y278632D01*
X88950D01*
Y278712D01*
X89030D01*
Y278791D01*
X89109D01*
Y278871D01*
X89189D01*
Y278951D01*
X89268D01*
Y279030D01*
X89348D01*
Y279110D01*
X89428D01*
Y279190D01*
X89507D01*
Y279269D01*
X89587D01*
Y279349D01*
X89667D01*
Y279429D01*
X89746D01*
Y279508D01*
X89826D01*
Y279588D01*
X89906D01*
Y279668D01*
X89985D01*
Y279747D01*
X90065D01*
Y279827D01*
X90145D01*
Y279907D01*
X90224D01*
Y279986D01*
X90304D01*
Y280066D01*
X90384D01*
Y280146D01*
X90463D01*
Y280305D01*
X90623D01*
Y280384D01*
X90702D01*
Y280464D01*
X90782D01*
Y280623D01*
X90861D01*
Y280703D01*
X90941D01*
Y280783D01*
X91021D01*
Y280862D01*
X91101D01*
Y281022D01*
X91021D01*
Y281101D01*
X90941D01*
Y281181D01*
X90861D01*
Y281261D01*
X90782D01*
Y281340D01*
X90702D01*
Y281420D01*
X90623D01*
Y281500D01*
X90543D01*
Y281579D01*
X90463D01*
Y281659D01*
X90384D01*
Y281739D01*
X90304D01*
Y281818D01*
X90224D01*
Y281898D01*
X90145D01*
Y281978D01*
X90065D01*
Y282057D01*
X89985D01*
Y282137D01*
X89906D01*
Y282217D01*
X89826D01*
Y282296D01*
X89746D01*
Y282376D01*
X89667D01*
Y282455D01*
X89587D01*
Y282535D01*
X89507D01*
Y282615D01*
X89428D01*
Y282694D01*
X89348D01*
Y282774D01*
X89268D01*
Y282854D01*
X89189D01*
Y282933D01*
X89109D01*
Y283013D01*
X89030D01*
Y283093D01*
X88950D01*
Y283172D01*
X88870D01*
Y283252D01*
X88711D01*
Y283332D01*
X88631D01*
Y283411D01*
X88552D01*
Y283571D01*
X88472D01*
Y283650D01*
X88313D01*
Y283730D01*
X88233D01*
Y283810D01*
X88153D01*
Y283889D01*
X88074D01*
Y283969D01*
X87994D01*
Y284049D01*
X87835D01*
Y284128D01*
X87755D01*
Y284208D01*
X87516D01*
Y284288D01*
X87357D01*
Y284367D01*
X86879D01*
Y284526D01*
X87357D01*
Y284447D01*
X88552D01*
Y284526D01*
X88950D01*
Y284367D01*
X88791D01*
Y284288D01*
X88711D01*
Y283969D01*
X88791D01*
Y283889D01*
X88870D01*
Y283730D01*
X88950D01*
Y283650D01*
X89030D01*
Y283571D01*
X89109D01*
Y283491D01*
X89189D01*
Y283411D01*
X89268D01*
Y283332D01*
X89348D01*
Y283252D01*
X89428D01*
Y283172D01*
X89507D01*
Y283093D01*
X89587D01*
Y283013D01*
X89667D01*
Y282933D01*
X89746D01*
Y282854D01*
X89826D01*
Y282774D01*
X89906D01*
Y282694D01*
X89985D01*
Y282615D01*
X90065D01*
Y282535D01*
X90145D01*
Y282455D01*
X90224D01*
Y282376D01*
X90304D01*
Y282296D01*
X90384D01*
Y282217D01*
X90463D01*
Y282137D01*
X90543D01*
Y282057D01*
X90623D01*
Y281978D01*
X90702D01*
Y281818D01*
X90782D01*
Y281739D01*
X90861D01*
Y281659D01*
X90941D01*
Y281579D01*
X91101D01*
Y281420D01*
X91180D01*
Y281340D01*
X91339D01*
Y281181D01*
X91419D01*
Y281101D01*
X91499D01*
Y281022D01*
X91578D01*
Y280942D01*
X91658D01*
Y280862D01*
X91738D01*
Y280783D01*
X91817D01*
Y280703D01*
X91897D01*
Y284049D01*
X91817D01*
Y284208D01*
X91738D01*
Y284288D01*
X91658D01*
Y284367D01*
X91180D01*
Y284526D01*
X91578D01*
Y284447D01*
X93012D01*
Y284526D01*
X93649D01*
Y284367D01*
D02*
G37*
G36*
X86162D02*
X85604D01*
Y284288D01*
X85445D01*
Y284208D01*
X85365D01*
Y284049D01*
X85286D01*
Y279349D01*
X85206D01*
Y278632D01*
X85127D01*
Y278313D01*
X85047D01*
Y278075D01*
X84967D01*
Y277915D01*
X84887D01*
Y277756D01*
X84808D01*
Y277597D01*
X84728D01*
Y277437D01*
X84649D01*
Y277358D01*
X84569D01*
Y277198D01*
X84489D01*
Y277119D01*
X84410D01*
Y277039D01*
X84330D01*
Y276959D01*
X84250D01*
Y276880D01*
X84091D01*
Y276800D01*
X84011D01*
Y276720D01*
X83852D01*
Y276641D01*
X83693D01*
Y276561D01*
X83533D01*
Y276482D01*
X83294D01*
Y276402D01*
X83055D01*
Y276322D01*
X82418D01*
Y276242D01*
X81781D01*
Y276322D01*
X81223D01*
Y276402D01*
X80905D01*
Y276482D01*
X80666D01*
Y276561D01*
X80507D01*
Y276641D01*
X80427D01*
Y276720D01*
X80268D01*
Y276800D01*
X80188D01*
Y276880D01*
X80029D01*
Y276959D01*
X79949D01*
Y277039D01*
X79869D01*
Y277119D01*
X79790D01*
Y277198D01*
X79710D01*
Y277278D01*
X79630D01*
Y277358D01*
X79551D01*
Y277437D01*
X79471D01*
Y277597D01*
X79391D01*
Y277756D01*
X79312D01*
Y277915D01*
X79232D01*
Y278075D01*
X79152D01*
Y278313D01*
X79073D01*
Y278632D01*
X78993D01*
Y279110D01*
X78913D01*
Y283730D01*
X78834D01*
Y284128D01*
X78754D01*
Y284208D01*
X78675D01*
Y284288D01*
X78595D01*
Y284367D01*
X78117D01*
Y284447D01*
X78197D01*
Y284526D01*
X78675D01*
Y284447D01*
X79630D01*
Y284526D01*
X80427D01*
Y284367D01*
X79869D01*
Y284288D01*
X79710D01*
Y284208D01*
X79630D01*
Y284049D01*
X79551D01*
Y278951D01*
X79630D01*
Y278473D01*
X79710D01*
Y278154D01*
X79790D01*
Y277995D01*
X79869D01*
Y277756D01*
X79949D01*
Y277676D01*
X80029D01*
Y277517D01*
X80108D01*
Y277437D01*
X80188D01*
Y277358D01*
X80268D01*
Y277278D01*
X80347D01*
Y277198D01*
X80427D01*
Y277119D01*
X80507D01*
Y277039D01*
X80666D01*
Y276959D01*
X80746D01*
Y276880D01*
X80905D01*
Y276800D01*
X81064D01*
Y276720D01*
X81383D01*
Y276641D01*
X82578D01*
Y276720D01*
X82816D01*
Y276800D01*
X82976D01*
Y276880D01*
X83135D01*
Y276959D01*
X83294D01*
Y277039D01*
X83374D01*
Y277119D01*
X83454D01*
Y277198D01*
X83533D01*
Y277278D01*
X83613D01*
Y277358D01*
X83693D01*
Y277437D01*
X83772D01*
Y277517D01*
X83852D01*
Y277676D01*
X83932D01*
Y277836D01*
X84011D01*
Y277995D01*
X84091D01*
Y278154D01*
X84171D01*
Y278393D01*
X84250D01*
Y278791D01*
X84330D01*
Y279747D01*
X84410D01*
Y283172D01*
Y283252D01*
X84330D01*
Y284049D01*
X84250D01*
Y284208D01*
X84171D01*
Y284288D01*
X84091D01*
Y284367D01*
X83613D01*
Y284526D01*
X84171D01*
Y284447D01*
X85445D01*
Y284526D01*
X86162D01*
Y284367D01*
D02*
G37*
G36*
X76524D02*
X75966D01*
Y284288D01*
X75807D01*
Y284208D01*
X75727D01*
Y284049D01*
X75648D01*
Y277039D01*
X75727D01*
Y276720D01*
X75807D01*
Y276641D01*
X75887D01*
Y276561D01*
X76126D01*
Y276482D01*
X76364D01*
Y276402D01*
X73736D01*
Y276482D01*
X74214D01*
Y276561D01*
X74533D01*
Y276641D01*
X74612D01*
Y276720D01*
X74692D01*
Y277039D01*
X74771D01*
Y278075D01*
Y278154D01*
Y279907D01*
X73736D01*
Y279827D01*
X73178D01*
Y279747D01*
X73099D01*
Y279588D01*
X73019D01*
Y279508D01*
X72939D01*
Y279349D01*
X72860D01*
Y279269D01*
X72780D01*
Y279190D01*
X72701D01*
Y279030D01*
X72621D01*
Y278951D01*
X72541D01*
Y278871D01*
X72461D01*
Y278712D01*
X72382D01*
Y278632D01*
X72302D01*
Y278473D01*
X72223D01*
Y278393D01*
X72143D01*
Y278313D01*
X72063D01*
Y278234D01*
X71984D01*
Y278075D01*
X71904D01*
Y277995D01*
X71824D01*
Y277915D01*
X71745D01*
Y277756D01*
X71665D01*
Y277676D01*
X71585D01*
Y277597D01*
X71506D01*
Y277437D01*
X71426D01*
Y277358D01*
X71346D01*
Y277278D01*
X71267D01*
Y277198D01*
X71187D01*
Y277119D01*
X71107D01*
Y277039D01*
X71028D01*
Y276959D01*
X70948D01*
Y276880D01*
X70868D01*
Y276800D01*
X70789D01*
Y276720D01*
X70709D01*
Y276641D01*
X70550D01*
Y276561D01*
X70391D01*
Y276482D01*
X70152D01*
Y276402D01*
X68399D01*
Y276482D01*
X68877D01*
Y276561D01*
X69196D01*
Y276641D01*
X69435D01*
Y276720D01*
X69594D01*
Y276800D01*
X69674D01*
Y276880D01*
X69833D01*
Y276959D01*
X69913D01*
Y277039D01*
X69992D01*
Y277119D01*
X70072D01*
Y277198D01*
X70152D01*
Y277278D01*
X70231D01*
Y277358D01*
X70311D01*
Y277437D01*
X70391D01*
Y277517D01*
X70470D01*
Y277597D01*
X70550D01*
Y277676D01*
X70630D01*
Y277836D01*
X70709D01*
Y277915D01*
X70789D01*
Y277995D01*
X70868D01*
Y278075D01*
X70948D01*
Y278154D01*
X71028D01*
Y278313D01*
X71107D01*
Y278393D01*
X71187D01*
Y278473D01*
X71267D01*
Y278552D01*
X71346D01*
Y278712D01*
X71426D01*
Y278791D01*
X71506D01*
Y278871D01*
X71585D01*
Y278951D01*
X71665D01*
Y279030D01*
X71745D01*
Y279190D01*
X71824D01*
Y279269D01*
X71904D01*
Y279349D01*
X71984D01*
Y279508D01*
X72063D01*
Y279588D01*
X72143D01*
Y279668D01*
X72223D01*
Y279747D01*
X72302D01*
Y279907D01*
X72382D01*
Y279986D01*
X72461D01*
Y280146D01*
X72382D01*
Y280225D01*
X72302D01*
Y280305D01*
X72223D01*
Y280384D01*
X72143D01*
Y280464D01*
X72063D01*
Y280544D01*
X71984D01*
Y280703D01*
X71904D01*
Y280783D01*
X71824D01*
Y280862D01*
X71745D01*
Y280942D01*
X71665D01*
Y281101D01*
X71585D01*
Y281181D01*
X71506D01*
Y281340D01*
X71426D01*
Y281579D01*
X71346D01*
Y281818D01*
X71267D01*
Y282057D01*
X71187D01*
Y283013D01*
X71267D01*
Y283252D01*
X71346D01*
Y283411D01*
X71426D01*
Y283491D01*
X71506D01*
Y283650D01*
X71585D01*
Y283730D01*
X71665D01*
Y283810D01*
X71745D01*
Y283889D01*
X71824D01*
Y283969D01*
X71904D01*
Y284049D01*
X71984D01*
Y284128D01*
X72143D01*
Y284208D01*
X72302D01*
Y284288D01*
X72461D01*
Y284367D01*
X72780D01*
Y284447D01*
X73497D01*
Y284526D01*
X74373D01*
Y284447D01*
X75807D01*
Y284526D01*
X76524D01*
Y284367D01*
D02*
G37*
G36*
X69355Y284447D02*
X69435D01*
Y284128D01*
X69514D01*
Y283889D01*
Y283810D01*
X69594D01*
Y283411D01*
X69674D01*
Y283252D01*
X69594D01*
Y283332D01*
X69514D01*
Y283491D01*
X69435D01*
Y283571D01*
X69355D01*
Y283730D01*
X69275D01*
Y283810D01*
X69196D01*
Y283889D01*
X69036D01*
Y283969D01*
X68718D01*
Y284049D01*
X66567D01*
Y277119D01*
X66647D01*
Y276720D01*
X66726D01*
Y276641D01*
X66806D01*
Y276561D01*
X66966D01*
Y276482D01*
X67284D01*
Y276402D01*
X64656D01*
Y276482D01*
X65133D01*
Y276561D01*
X65372D01*
Y276641D01*
X65452D01*
Y276720D01*
X65532D01*
Y276880D01*
X65611D01*
Y277358D01*
X65691D01*
Y284049D01*
X63779D01*
Y283969D01*
X63381D01*
Y283889D01*
X63222D01*
Y283810D01*
X63142D01*
Y283730D01*
X63062D01*
Y283650D01*
X62983D01*
Y283491D01*
X62903D01*
Y283172D01*
X62823D01*
Y284526D01*
X63222D01*
Y284447D01*
X68718D01*
Y284526D01*
X69116D01*
Y284606D01*
X69355D01*
Y284447D01*
D02*
G37*
G36*
X100898Y284526D02*
X100978D01*
Y284128D01*
X101057D01*
Y283650D01*
X101137D01*
Y283093D01*
X101216D01*
Y282854D01*
X101057D01*
Y283172D01*
X100978D01*
Y283411D01*
X100898D01*
Y283491D01*
X100818D01*
Y283571D01*
X100739D01*
Y283730D01*
X100579D01*
Y283810D01*
X100500D01*
Y283889D01*
X100340D01*
Y283969D01*
X100101D01*
Y284049D01*
X99464D01*
Y284128D01*
X96517D01*
Y283969D01*
X96597D01*
Y283810D01*
X96676D01*
Y283730D01*
X96756D01*
Y283571D01*
X96836D01*
Y283411D01*
X96915D01*
Y283332D01*
X96995D01*
Y283172D01*
X97075D01*
Y283093D01*
X97154D01*
Y282933D01*
X97234D01*
Y282774D01*
X97313D01*
Y282694D01*
X97393D01*
Y282535D01*
X97473D01*
Y282376D01*
X97552D01*
Y282296D01*
X97632D01*
Y282137D01*
X97712D01*
Y282057D01*
X97791D01*
Y281898D01*
X97871D01*
Y281818D01*
X97951D01*
Y281659D01*
X98030D01*
Y281579D01*
X98110D01*
Y281420D01*
X98190D01*
Y281340D01*
X98269D01*
Y281181D01*
X98349D01*
Y281101D01*
X98429D01*
Y280942D01*
X98508D01*
Y280862D01*
X98588D01*
Y280703D01*
X98668D01*
Y280623D01*
X98747D01*
Y280464D01*
X98827D01*
Y280305D01*
X98906D01*
Y280225D01*
X98986D01*
Y280066D01*
X99066D01*
Y279986D01*
X99146D01*
Y279907D01*
X99225D01*
Y279747D01*
X99305D01*
Y279588D01*
X99384D01*
Y279508D01*
X99464D01*
Y279349D01*
X99544D01*
Y279269D01*
X99623D01*
Y279110D01*
X99703D01*
Y279030D01*
X99783D01*
Y278871D01*
X99862D01*
Y278791D01*
X99942D01*
Y278632D01*
X100022D01*
Y278552D01*
X100101D01*
Y278393D01*
X100181D01*
Y278313D01*
X100261D01*
Y278154D01*
X100340D01*
Y278075D01*
X100420D01*
Y277915D01*
X100500D01*
Y277836D01*
X100579D01*
Y277676D01*
X100659D01*
Y277597D01*
X100739D01*
Y277437D01*
X100818D01*
Y277358D01*
X100898D01*
Y277198D01*
X100978D01*
Y277119D01*
X101057D01*
Y276959D01*
X101137D01*
Y276880D01*
X101216D01*
Y276720D01*
X101296D01*
Y276641D01*
X101376D01*
Y276402D01*
X95402D01*
Y276720D01*
X95322D01*
Y277039D01*
X95243D01*
Y277517D01*
X95163D01*
Y278075D01*
X95243D01*
Y277995D01*
X95322D01*
Y277676D01*
X95402D01*
Y277437D01*
X95481D01*
Y277358D01*
X95561D01*
Y277198D01*
X95720D01*
Y277119D01*
X95800D01*
Y277039D01*
X95959D01*
Y276959D01*
X96119D01*
Y276880D01*
X96517D01*
Y276800D01*
X100181D01*
Y276959D01*
X100101D01*
Y277119D01*
X100022D01*
Y277198D01*
X99942D01*
Y277358D01*
X99862D01*
Y277437D01*
X99783D01*
Y277597D01*
X99703D01*
Y277676D01*
X99623D01*
Y277836D01*
X99544D01*
Y277915D01*
X99464D01*
Y278075D01*
X99384D01*
Y278154D01*
X99305D01*
Y278313D01*
X99225D01*
Y278393D01*
X99146D01*
Y278552D01*
X99066D01*
Y278632D01*
X98986D01*
Y278791D01*
X98906D01*
Y278871D01*
X98827D01*
Y279030D01*
X98747D01*
Y279110D01*
X98668D01*
Y279269D01*
X98588D01*
Y279349D01*
X98508D01*
Y279508D01*
X98429D01*
Y279668D01*
X98349D01*
Y279747D01*
X98269D01*
Y279907D01*
X98190D01*
Y279986D01*
X98110D01*
Y280146D01*
X98030D01*
Y280225D01*
X97951D01*
Y280384D01*
X97871D01*
Y280464D01*
X97791D01*
Y280623D01*
X97712D01*
Y280703D01*
X97632D01*
Y280862D01*
X97552D01*
Y280942D01*
X97473D01*
Y281101D01*
X97393D01*
Y281181D01*
X97313D01*
Y281340D01*
X97234D01*
Y281420D01*
X97154D01*
Y281579D01*
X97075D01*
Y281659D01*
X96995D01*
Y281818D01*
X96915D01*
Y281978D01*
X96836D01*
Y282057D01*
X96756D01*
Y282217D01*
X96676D01*
Y282296D01*
X96597D01*
Y282455D01*
X96517D01*
Y282535D01*
X96437D01*
Y282694D01*
X96358D01*
Y282774D01*
X96278D01*
Y282933D01*
X96198D01*
Y283013D01*
X96119D01*
Y283172D01*
X96039D01*
Y283332D01*
X95959D01*
Y283411D01*
X95880D01*
Y283571D01*
X95800D01*
Y283650D01*
X95720D01*
Y283810D01*
X95641D01*
Y283969D01*
X95561D01*
Y284049D01*
X95481D01*
Y284208D01*
X95402D01*
Y284288D01*
X95322D01*
Y284447D01*
X100022D01*
Y284526D01*
X100818D01*
Y284606D01*
X100898D01*
Y284526D01*
D02*
G37*
G36*
X152593Y284606D02*
X152673D01*
Y284447D01*
X152752D01*
Y284208D01*
X152832D01*
Y284049D01*
X152912D01*
Y283810D01*
X152991D01*
Y283571D01*
X153071D01*
Y283332D01*
X153150D01*
Y283172D01*
X153230D01*
Y282933D01*
X153310D01*
Y282694D01*
X153390D01*
Y282455D01*
X153469D01*
Y282296D01*
X153549D01*
Y282057D01*
X153629D01*
Y281818D01*
X153708D01*
Y281659D01*
X153788D01*
Y281420D01*
X153867D01*
Y281181D01*
X153947D01*
Y280942D01*
X154027D01*
Y280783D01*
X154106D01*
Y280544D01*
X154186D01*
Y280305D01*
X154266D01*
Y280146D01*
X154345D01*
Y279907D01*
X154425D01*
Y279668D01*
X154505D01*
Y279508D01*
X154584D01*
Y279269D01*
X154664D01*
Y279030D01*
X154744D01*
Y278791D01*
X154823D01*
Y278552D01*
X154903D01*
Y278393D01*
X154983D01*
Y278154D01*
X155062D01*
Y277915D01*
X155142D01*
Y277676D01*
X155221D01*
Y277517D01*
X155301D01*
Y277278D01*
X155381D01*
Y277119D01*
X155461D01*
Y276959D01*
X155540D01*
Y276880D01*
X155620D01*
Y276720D01*
X155700D01*
Y276641D01*
X155859D01*
Y276561D01*
X156098D01*
Y276482D01*
X156576D01*
Y276402D01*
X154186D01*
Y276482D01*
X154584D01*
Y276561D01*
X154664D01*
Y276641D01*
X154744D01*
Y276720D01*
X154823D01*
Y277039D01*
X154744D01*
Y277358D01*
X154664D01*
Y277676D01*
X154584D01*
Y277915D01*
X154505D01*
Y278154D01*
X154425D01*
Y278313D01*
X154345D01*
Y278552D01*
X154266D01*
Y278791D01*
X154186D01*
Y279030D01*
X154106D01*
Y279269D01*
X154027D01*
Y279508D01*
X153947D01*
Y279588D01*
X151398D01*
Y279429D01*
X151319D01*
Y279190D01*
X151239D01*
Y278951D01*
X151159D01*
Y278712D01*
X151080D01*
Y278552D01*
X151000D01*
Y278313D01*
X150920D01*
Y278154D01*
X150841D01*
Y277915D01*
X150761D01*
Y277676D01*
X150681D01*
Y277437D01*
X150602D01*
Y277278D01*
X150522D01*
Y277039D01*
X150442D01*
Y276800D01*
X150363D01*
Y276561D01*
X150442D01*
Y276482D01*
X150522D01*
Y276402D01*
X148371D01*
Y276482D01*
X148770D01*
Y276561D01*
X149009D01*
Y276641D01*
X149168D01*
Y276720D01*
X149248D01*
Y276800D01*
X149327D01*
Y276880D01*
X149407D01*
Y276959D01*
X149486D01*
Y277119D01*
X149566D01*
Y277278D01*
X149646D01*
Y277437D01*
X149725D01*
Y277597D01*
X149805D01*
Y277836D01*
X149885D01*
Y277995D01*
X149964D01*
Y278234D01*
X150044D01*
Y278393D01*
X150124D01*
Y278632D01*
X150203D01*
Y278791D01*
X150283D01*
Y279030D01*
X150363D01*
Y279269D01*
X150442D01*
Y279429D01*
X150522D01*
Y279668D01*
X150602D01*
Y279827D01*
X150681D01*
Y280066D01*
X150761D01*
Y280305D01*
X150841D01*
Y280464D01*
X150920D01*
Y280703D01*
X151000D01*
Y280862D01*
X151080D01*
Y281101D01*
X151159D01*
Y281261D01*
X151239D01*
Y281500D01*
X151319D01*
Y281739D01*
X151398D01*
Y281898D01*
X151478D01*
Y282137D01*
X151558D01*
Y282296D01*
X151637D01*
Y282535D01*
X151717D01*
Y282774D01*
X151796D01*
Y282933D01*
X151876D01*
Y283172D01*
X151956D01*
Y283332D01*
X152035D01*
Y283571D01*
X152115D01*
Y283810D01*
X152195D01*
Y283969D01*
X152274D01*
Y284208D01*
X152354D01*
Y284367D01*
X152434D01*
Y284606D01*
X152513D01*
Y284686D01*
X152593D01*
Y284606D01*
D02*
G37*
G36*
X127024D02*
X127104D01*
Y284447D01*
X127183D01*
Y284208D01*
X127263D01*
Y284049D01*
X127343D01*
Y283810D01*
X127422D01*
Y283571D01*
X127502D01*
Y283332D01*
X127582D01*
Y283172D01*
X127661D01*
Y282933D01*
X127741D01*
Y282694D01*
X127821D01*
Y282535D01*
X127900D01*
Y282296D01*
X127980D01*
Y282057D01*
X128060D01*
Y281818D01*
X128139D01*
Y281659D01*
X128219D01*
Y281420D01*
X128299D01*
Y281181D01*
X128378D01*
Y280942D01*
X128458D01*
Y280783D01*
X128538D01*
Y280544D01*
X128617D01*
Y280305D01*
X128697D01*
Y280146D01*
X128777D01*
Y279907D01*
X128856D01*
Y279668D01*
X128936D01*
Y279429D01*
X129016D01*
Y279269D01*
X129095D01*
Y279030D01*
X129175D01*
Y278791D01*
X129254D01*
Y278632D01*
X129334D01*
Y278393D01*
X129414D01*
Y278154D01*
X129493D01*
Y277915D01*
X129573D01*
Y277676D01*
X129653D01*
Y277517D01*
X129732D01*
Y277278D01*
X129812D01*
Y277119D01*
X129892D01*
Y276959D01*
X129971D01*
Y276880D01*
X130051D01*
Y276800D01*
X130131D01*
Y276641D01*
X130290D01*
Y276561D01*
X130529D01*
Y276482D01*
X131007D01*
Y276402D01*
X128617D01*
Y276482D01*
X129016D01*
Y276561D01*
X129095D01*
Y276641D01*
X129175D01*
Y276720D01*
X129254D01*
Y277039D01*
X129175D01*
Y277358D01*
X129095D01*
Y277676D01*
X129016D01*
Y277915D01*
X128936D01*
Y278154D01*
X128856D01*
Y278393D01*
X128777D01*
Y278552D01*
X128697D01*
Y278791D01*
X128617D01*
Y279030D01*
X128538D01*
Y279269D01*
X128458D01*
Y279508D01*
X128378D01*
Y279588D01*
X125829D01*
Y279429D01*
X125750D01*
Y279190D01*
X125670D01*
Y278951D01*
X125590D01*
Y278791D01*
X125511D01*
Y278552D01*
X125431D01*
Y278313D01*
X125352D01*
Y278154D01*
X125272D01*
Y277915D01*
X125192D01*
Y277676D01*
X125112D01*
Y277437D01*
X125033D01*
Y277278D01*
X124953D01*
Y277039D01*
X124874D01*
Y276800D01*
X124794D01*
Y276561D01*
X124874D01*
Y276482D01*
X124953D01*
Y276402D01*
X122803D01*
Y276482D01*
X123281D01*
Y276561D01*
X123440D01*
Y276641D01*
X123599D01*
Y276720D01*
X123679D01*
Y276800D01*
X123758D01*
Y276880D01*
X123838D01*
Y276959D01*
X123918D01*
Y277119D01*
X123997D01*
Y277278D01*
X124077D01*
Y277437D01*
X124157D01*
Y277597D01*
X124236D01*
Y277756D01*
Y277836D01*
X124316D01*
Y277995D01*
X124396D01*
Y278234D01*
X124475D01*
Y278393D01*
X124555D01*
Y278632D01*
X124635D01*
Y278791D01*
X124714D01*
Y279030D01*
X124794D01*
Y279269D01*
X124874D01*
Y279429D01*
X124953D01*
Y279588D01*
X125033D01*
Y279827D01*
X125112D01*
Y280066D01*
X125192D01*
Y280225D01*
X125272D01*
Y280464D01*
X125352D01*
Y280703D01*
X125431D01*
Y280862D01*
X125511D01*
Y281101D01*
X125590D01*
Y281261D01*
X125670D01*
Y281500D01*
X125750D01*
Y281659D01*
X125829D01*
Y281898D01*
X125909D01*
Y282137D01*
X125989D01*
Y282296D01*
X126068D01*
Y282535D01*
X126148D01*
Y282774D01*
X126228D01*
Y282933D01*
X126307D01*
Y283172D01*
X126387D01*
Y283332D01*
X126467D01*
Y283571D01*
X126546D01*
Y283810D01*
X126626D01*
Y283969D01*
X126706D01*
Y284208D01*
X126785D01*
Y284447D01*
X126865D01*
Y284606D01*
X126944D01*
Y284686D01*
X127024D01*
Y284606D01*
D02*
G37*
G36*
X107509Y284686D02*
X108146D01*
Y284606D01*
X108465D01*
Y284526D01*
X108784D01*
Y284447D01*
X108943D01*
Y284367D01*
X109102D01*
Y284288D01*
X109262D01*
Y284208D01*
X109421D01*
Y284128D01*
X109500D01*
Y284049D01*
X109660D01*
Y283969D01*
X109739D01*
Y283889D01*
X109819D01*
Y283810D01*
X109899D01*
Y283730D01*
X109978D01*
Y283650D01*
X110058D01*
Y283571D01*
X110138D01*
Y283491D01*
X110217D01*
Y283411D01*
X110297D01*
Y283332D01*
X110377D01*
Y283252D01*
X110456D01*
Y283093D01*
X110536D01*
Y283013D01*
X110616D01*
Y282854D01*
X110695D01*
Y282774D01*
X110775D01*
Y282615D01*
X110854D01*
Y282455D01*
X110934D01*
Y282296D01*
X111014D01*
Y282137D01*
X111093D01*
Y281978D01*
Y281898D01*
X111173D01*
Y281659D01*
X111253D01*
Y281420D01*
X111332D01*
Y280783D01*
X111412D01*
Y280146D01*
X111332D01*
Y279588D01*
X111253D01*
Y279190D01*
X111173D01*
Y279030D01*
X111093D01*
Y278791D01*
X111014D01*
Y278632D01*
X110934D01*
Y278473D01*
X110854D01*
Y278313D01*
X110775D01*
Y278154D01*
X110695D01*
Y277995D01*
X110616D01*
Y277915D01*
X110536D01*
Y277836D01*
X110456D01*
Y277676D01*
X110377D01*
Y277597D01*
X110297D01*
Y277517D01*
X110217D01*
Y277437D01*
X110138D01*
Y277358D01*
X110058D01*
Y277278D01*
X109978D01*
Y277198D01*
X109899D01*
Y277119D01*
X109819D01*
Y277039D01*
X109739D01*
Y276959D01*
X109660D01*
Y276880D01*
X109500D01*
Y276800D01*
X109341D01*
Y276720D01*
X109262D01*
Y276641D01*
X109102D01*
Y276561D01*
X108863D01*
Y276482D01*
X108624D01*
Y276402D01*
X108306D01*
Y276322D01*
X107668D01*
Y276242D01*
X106872D01*
Y276322D01*
X106235D01*
Y276402D01*
X105916D01*
Y276482D01*
X105597D01*
Y276561D01*
X105438D01*
Y276641D01*
X105279D01*
Y276720D01*
X105120D01*
Y276800D01*
X104960D01*
Y276880D01*
X104801D01*
Y276959D01*
X104721D01*
Y277039D01*
X104642D01*
Y277119D01*
X104482D01*
Y277198D01*
X104403D01*
Y277278D01*
X104323D01*
Y277358D01*
X104243D01*
Y277437D01*
X104164D01*
Y277517D01*
X104084D01*
Y277597D01*
X104004D01*
Y277676D01*
X103925D01*
Y277756D01*
X103845D01*
Y277915D01*
X103765D01*
Y277995D01*
X103686D01*
Y278154D01*
X103606D01*
Y278234D01*
X103526D01*
Y278393D01*
X103447D01*
Y278552D01*
X103367D01*
Y278712D01*
X103287D01*
Y278871D01*
X103208D01*
Y279110D01*
X103128D01*
Y279349D01*
X103049D01*
Y279668D01*
X102969D01*
Y280305D01*
X102889D01*
Y281181D01*
X102969D01*
Y281659D01*
X103049D01*
Y282057D01*
X103128D01*
Y282296D01*
X103208D01*
Y282455D01*
X103287D01*
Y282615D01*
X103367D01*
Y282774D01*
X103447D01*
Y282933D01*
X103526D01*
Y283013D01*
X103606D01*
Y283172D01*
X103686D01*
Y283252D01*
X103765D01*
Y283332D01*
X103845D01*
Y283411D01*
X103925D01*
Y283491D01*
X104004D01*
Y283571D01*
X104084D01*
Y283650D01*
X104164D01*
Y283730D01*
X104243D01*
Y283810D01*
X104323D01*
Y283889D01*
X104482D01*
Y283969D01*
X104562D01*
Y284049D01*
X104721D01*
Y284128D01*
X104801D01*
Y284208D01*
X104960D01*
Y284288D01*
X105120D01*
Y284367D01*
X105279D01*
Y284447D01*
X105518D01*
Y284526D01*
X105836D01*
Y284606D01*
X106155D01*
Y284686D01*
X106713D01*
Y284765D01*
X107509D01*
Y284686D01*
D02*
G37*
G36*
X134273Y272499D02*
X134352D01*
Y272340D01*
X134432D01*
Y272100D01*
X134512D01*
Y271862D01*
X134591D01*
Y271623D01*
X134671D01*
Y271463D01*
X134751D01*
Y271224D01*
X134830D01*
Y270985D01*
X134910D01*
Y270826D01*
X134990D01*
Y270587D01*
X135069D01*
Y270348D01*
X135149D01*
Y270109D01*
X135229D01*
Y269950D01*
X135308D01*
Y269711D01*
X135388D01*
Y269472D01*
X135468D01*
Y269233D01*
X135547D01*
Y269074D01*
X135627D01*
Y268835D01*
X135706D01*
Y268596D01*
X135786D01*
Y268357D01*
X135866D01*
Y268197D01*
X135945D01*
Y267958D01*
X136025D01*
Y267720D01*
X136105D01*
Y267481D01*
X136184D01*
Y267321D01*
X136264D01*
Y267082D01*
X136344D01*
Y266843D01*
X136423D01*
Y266604D01*
X136503D01*
Y266445D01*
X136583D01*
Y266206D01*
X136662D01*
Y265967D01*
X136742D01*
Y265728D01*
X136822D01*
Y265569D01*
X136901D01*
Y265330D01*
X136981D01*
Y265091D01*
X137060D01*
Y264932D01*
X137140D01*
Y264693D01*
X137220D01*
Y264454D01*
X137300D01*
Y264215D01*
X137379D01*
Y264055D01*
X137459D01*
Y263817D01*
X137539D01*
Y263578D01*
X137618D01*
Y263339D01*
X137698D01*
Y263179D01*
X137777D01*
Y262940D01*
X137857D01*
Y262701D01*
X137937D01*
Y262542D01*
X138016D01*
Y262303D01*
X138096D01*
Y262064D01*
X138176D01*
Y261825D01*
X138255D01*
Y261586D01*
X138335D01*
Y261427D01*
X138415D01*
Y261188D01*
X138494D01*
Y260949D01*
X138574D01*
Y260790D01*
X138654D01*
Y260551D01*
X138733D01*
Y260312D01*
X138813D01*
Y260153D01*
X138893D01*
Y259913D01*
X138972D01*
Y259675D01*
X139052D01*
Y259436D01*
X139131D01*
Y259197D01*
X139211D01*
Y259037D01*
X139291D01*
Y258798D01*
X139371D01*
Y258559D01*
X139450D01*
Y258320D01*
X139530D01*
Y258161D01*
X139609D01*
Y257922D01*
X139689D01*
Y257683D01*
X139769D01*
Y257444D01*
X139848D01*
Y257285D01*
X139928D01*
Y257046D01*
X140008D01*
Y256807D01*
X140087D01*
Y256648D01*
X140167D01*
Y256409D01*
X140247D01*
Y256090D01*
X140326D01*
Y255851D01*
X140406D01*
Y255612D01*
X140486D01*
Y255453D01*
X140565D01*
Y255214D01*
X140645D01*
Y255055D01*
X140725D01*
Y254816D01*
X140804D01*
Y254577D01*
X140884D01*
Y254417D01*
X140964D01*
Y254179D01*
X141043D01*
Y254019D01*
X141123D01*
Y253780D01*
X141202D01*
Y253621D01*
X141282D01*
Y253462D01*
X141362D01*
Y253223D01*
X141442D01*
Y253063D01*
X141521D01*
Y252904D01*
X141601D01*
Y252745D01*
X141680D01*
Y252585D01*
X141760D01*
Y252346D01*
X141840D01*
Y252187D01*
X141919D01*
Y252028D01*
X141999D01*
Y251869D01*
X142079D01*
Y251709D01*
X142158D01*
Y251550D01*
X142238D01*
Y251470D01*
X142318D01*
Y251311D01*
X142397D01*
Y251152D01*
X142477D01*
Y250992D01*
X142557D01*
Y250833D01*
X142636D01*
Y250674D01*
X142716D01*
Y250594D01*
X142796D01*
Y250435D01*
X142875D01*
Y250275D01*
X142955D01*
Y250116D01*
X143035D01*
Y250037D01*
X143114D01*
Y249877D01*
X143194D01*
Y249718D01*
X143273D01*
Y249638D01*
X143353D01*
Y249479D01*
X143433D01*
Y249399D01*
X143512D01*
Y249240D01*
X143592D01*
Y249160D01*
X143672D01*
Y249001D01*
X143751D01*
Y248842D01*
X143831D01*
Y248762D01*
X143911D01*
Y248603D01*
X143990D01*
Y248523D01*
X144070D01*
Y248443D01*
X144150D01*
Y248364D01*
X144229D01*
Y248204D01*
X144309D01*
Y248125D01*
X144389D01*
Y248045D01*
X144468D01*
Y247886D01*
X144548D01*
Y247806D01*
X144628D01*
Y247726D01*
X144707D01*
Y247647D01*
X144787D01*
Y247567D01*
X144867D01*
Y247488D01*
X144946D01*
Y247408D01*
X145026D01*
Y247328D01*
X145106D01*
Y247249D01*
X145185D01*
Y247169D01*
X145265D01*
Y247089D01*
X145424D01*
Y247010D01*
X145504D01*
Y246930D01*
X145583D01*
Y246850D01*
X145663D01*
Y246771D01*
X145743D01*
Y246691D01*
X145902D01*
Y246611D01*
X145982D01*
Y246532D01*
X146141D01*
Y246452D01*
X146221D01*
Y246372D01*
X146380D01*
Y246293D01*
X146460D01*
Y246213D01*
X146619D01*
Y246133D01*
X146778D01*
Y246054D01*
X146858D01*
Y245974D01*
X147097D01*
Y245895D01*
X147256D01*
Y245815D01*
X147415D01*
Y245735D01*
X147575D01*
Y245655D01*
X147814D01*
Y245576D01*
X147973D01*
Y245496D01*
X148212D01*
Y245417D01*
X148451D01*
Y245337D01*
X148770D01*
Y245257D01*
X149009D01*
Y245178D01*
X149327D01*
Y245098D01*
X149805D01*
Y245018D01*
X150203D01*
Y244939D01*
X151159D01*
Y244859D01*
X151956D01*
Y244779D01*
X152673D01*
Y244700D01*
X153390D01*
Y244779D01*
X153469D01*
Y244700D01*
X154027D01*
Y244620D01*
X154266D01*
Y244540D01*
X154345D01*
Y244461D01*
X154425D01*
Y244381D01*
X154505D01*
Y244142D01*
X154584D01*
Y243903D01*
X154505D01*
Y243744D01*
X154425D01*
Y243585D01*
X154266D01*
Y243505D01*
X154106D01*
Y243425D01*
X153867D01*
Y243346D01*
X153469D01*
Y243266D01*
X146778D01*
Y243346D01*
X143831D01*
Y243425D01*
X142557D01*
Y243505D01*
X140884D01*
Y243585D01*
X137539D01*
Y243505D01*
X136344D01*
Y243425D01*
X135308D01*
Y243346D01*
X131724D01*
Y243266D01*
X129095D01*
Y243346D01*
X128777D01*
Y243425D01*
X128538D01*
Y243505D01*
X128378D01*
Y243585D01*
X128299D01*
Y243744D01*
X128219D01*
Y243903D01*
X128139D01*
Y244222D01*
X128219D01*
Y244381D01*
X128299D01*
Y244461D01*
X128378D01*
Y244540D01*
X128458D01*
Y244620D01*
X128697D01*
Y244700D01*
X128856D01*
Y244779D01*
X129175D01*
Y244859D01*
X129653D01*
Y244779D01*
X130609D01*
Y244700D01*
X130848D01*
Y244779D01*
X131325D01*
Y244859D01*
X131644D01*
Y244939D01*
X131963D01*
Y245018D01*
X132202D01*
Y245098D01*
X132441D01*
Y245178D01*
X132680D01*
Y245257D01*
X132839D01*
Y245337D01*
X132998D01*
Y245417D01*
X133158D01*
Y245496D01*
X133317D01*
Y245576D01*
X133476D01*
Y245655D01*
X133635D01*
Y245735D01*
X133715D01*
Y245815D01*
X133874D01*
Y245895D01*
X133954D01*
Y245974D01*
X134034D01*
Y246054D01*
X134193D01*
Y246133D01*
X134273D01*
Y246213D01*
X134352D01*
Y246293D01*
X134432D01*
Y246452D01*
X134512D01*
Y246532D01*
X134591D01*
Y246691D01*
X134671D01*
Y246850D01*
X134751D01*
Y247089D01*
X134830D01*
Y247249D01*
X134910D01*
Y247647D01*
X134990D01*
Y249320D01*
X134910D01*
Y250116D01*
X134830D01*
Y250674D01*
X134751D01*
Y251152D01*
X134671D01*
Y251550D01*
X134591D01*
Y252028D01*
X134512D01*
Y252346D01*
X134432D01*
Y252745D01*
X134352D01*
Y252984D01*
X134273D01*
Y253302D01*
X134193D01*
Y253621D01*
X134113D01*
Y253940D01*
X134034D01*
Y254179D01*
X133954D01*
Y254417D01*
X133874D01*
Y254656D01*
X133795D01*
Y254975D01*
X133715D01*
Y255214D01*
X133635D01*
Y255453D01*
X133556D01*
Y255692D01*
X133476D01*
Y255931D01*
X133396D01*
Y256170D01*
X133317D01*
Y256409D01*
X133237D01*
Y256648D01*
X133158D01*
Y256887D01*
X133078D01*
Y257126D01*
X132998D01*
Y257285D01*
X132919D01*
Y257524D01*
X132839D01*
Y257763D01*
X132759D01*
Y258002D01*
X132680D01*
Y258241D01*
X132600D01*
Y258480D01*
X132520D01*
Y258719D01*
X132441D01*
Y258958D01*
X132361D01*
Y259197D01*
X132281D01*
Y259436D01*
X132202D01*
Y259675D01*
X132122D01*
Y259834D01*
X132042D01*
Y260073D01*
X131963D01*
Y260312D01*
X131883D01*
Y260551D01*
X131803D01*
Y260790D01*
X131724D01*
Y261029D01*
X131644D01*
Y261268D01*
X131564D01*
Y261507D01*
X131485D01*
Y261746D01*
X131405D01*
Y261984D01*
X131325D01*
Y262224D01*
X131246D01*
Y262462D01*
X131166D01*
Y262701D01*
X131087D01*
Y262861D01*
X131007D01*
Y263100D01*
X130927D01*
Y263339D01*
X130848D01*
Y263578D01*
X130768D01*
Y263817D01*
X130688D01*
Y264055D01*
X130609D01*
Y264295D01*
X130529D01*
Y264533D01*
X130449D01*
Y264772D01*
X130370D01*
Y265011D01*
X130290D01*
Y265250D01*
X130210D01*
Y265410D01*
X130131D01*
Y265649D01*
X130051D01*
Y265887D01*
X129971D01*
Y266206D01*
X129892D01*
Y266366D01*
X129812D01*
Y266604D01*
X129732D01*
Y266843D01*
X129653D01*
Y267082D01*
X129573D01*
Y267321D01*
X129493D01*
Y267560D01*
X129414D01*
Y267799D01*
X129334D01*
Y268038D01*
X129254D01*
Y268277D01*
X129175D01*
Y268437D01*
X129095D01*
Y268675D01*
X129016D01*
Y268994D01*
X128936D01*
Y269233D01*
X128856D01*
Y269392D01*
X128777D01*
Y269631D01*
X128697D01*
Y269870D01*
X128617D01*
Y270109D01*
X128538D01*
Y270348D01*
X128458D01*
Y270587D01*
X128378D01*
Y270826D01*
X128299D01*
Y271065D01*
X128219D01*
Y271304D01*
X128139D01*
Y271543D01*
X128060D01*
Y271782D01*
X127980D01*
Y272021D01*
X127900D01*
Y272180D01*
X127821D01*
Y272419D01*
X127741D01*
Y272658D01*
X134273D01*
Y272499D01*
D02*
G37*
G36*
X96756Y272419D02*
X96676D01*
Y272180D01*
X96597D01*
Y272021D01*
X96517D01*
Y271782D01*
X96437D01*
Y271623D01*
X96358D01*
Y271384D01*
X96278D01*
Y271145D01*
X96198D01*
Y270985D01*
X96119D01*
Y270746D01*
X96039D01*
Y270507D01*
X95959D01*
Y270348D01*
X95880D01*
Y270109D01*
X95800D01*
Y269870D01*
X95720D01*
Y269711D01*
X95641D01*
Y269472D01*
X95561D01*
Y269233D01*
X95481D01*
Y269074D01*
X95402D01*
Y268835D01*
X95322D01*
Y268596D01*
X95243D01*
Y268437D01*
X95163D01*
Y268197D01*
X95083D01*
Y267958D01*
X95003D01*
Y267799D01*
X94924D01*
Y267560D01*
X94844D01*
Y267321D01*
X94765D01*
Y267162D01*
X94685D01*
Y266923D01*
X94605D01*
Y266684D01*
X94526D01*
Y266525D01*
X94446D01*
Y266286D01*
X94366D01*
Y266047D01*
X94287D01*
Y265887D01*
X94207D01*
Y265649D01*
X94127D01*
Y265410D01*
X94048D01*
Y265250D01*
X93968D01*
Y265011D01*
X93888D01*
Y264772D01*
X93809D01*
Y264613D01*
X93729D01*
Y264374D01*
X93649D01*
Y264135D01*
X93570D01*
Y263976D01*
X93490D01*
Y263737D01*
X93410D01*
Y263498D01*
X93331D01*
Y263339D01*
X93251D01*
Y263100D01*
X93172D01*
Y262861D01*
X93092D01*
Y262701D01*
X93012D01*
Y262462D01*
X92932D01*
Y262224D01*
X92853D01*
Y262064D01*
X92773D01*
Y261825D01*
X92694D01*
Y261586D01*
X92614D01*
Y261427D01*
X92534D01*
Y261188D01*
X92455D01*
Y261029D01*
X92375D01*
Y260790D01*
X92295D01*
Y260551D01*
X92216D01*
Y260391D01*
X92136D01*
Y260153D01*
X92056D01*
Y259913D01*
X91977D01*
Y259754D01*
X91897D01*
Y259515D01*
X91817D01*
Y259276D01*
X91738D01*
Y259117D01*
X91658D01*
Y258878D01*
X91578D01*
Y258639D01*
X91499D01*
Y258480D01*
X91419D01*
Y258241D01*
X91339D01*
Y258002D01*
X91260D01*
Y257842D01*
X91180D01*
Y257604D01*
X91101D01*
Y257444D01*
X91021D01*
Y257205D01*
X90941D01*
Y256966D01*
X90861D01*
Y256807D01*
X90782D01*
Y256568D01*
X90702D01*
Y256329D01*
X90623D01*
Y256170D01*
X90543D01*
Y255931D01*
X90463D01*
Y255692D01*
X90384D01*
Y255533D01*
X90304D01*
Y255294D01*
X90224D01*
Y255055D01*
X90145D01*
Y254895D01*
X90065D01*
Y254656D01*
X89985D01*
Y254417D01*
X89906D01*
Y254258D01*
X89826D01*
Y254019D01*
X89746D01*
Y253780D01*
X89667D01*
Y253621D01*
X89587D01*
Y253382D01*
X89507D01*
Y253143D01*
X89428D01*
Y252984D01*
X89348D01*
Y252745D01*
X89268D01*
Y252506D01*
X89189D01*
Y252346D01*
X89109D01*
Y252108D01*
X89030D01*
Y251869D01*
X88950D01*
Y251709D01*
X88870D01*
Y251470D01*
X88791D01*
Y251231D01*
X88711D01*
Y251072D01*
X88631D01*
Y250833D01*
X88552D01*
Y250594D01*
X88472D01*
Y250435D01*
X88392D01*
Y250196D01*
X88313D01*
Y249957D01*
X88233D01*
Y249798D01*
X88153D01*
Y249559D01*
X88074D01*
Y249320D01*
X87994D01*
Y249160D01*
X87914D01*
Y248921D01*
X87835D01*
Y248682D01*
X87755D01*
Y248523D01*
X87675D01*
Y248284D01*
X87596D01*
Y248125D01*
X87516D01*
Y247966D01*
X87436D01*
Y247647D01*
X87357D01*
Y245895D01*
X87436D01*
Y245735D01*
X87516D01*
Y245576D01*
X87596D01*
Y245496D01*
X87675D01*
Y245417D01*
X87755D01*
Y245337D01*
X87835D01*
Y245257D01*
X87914D01*
Y245178D01*
X87994D01*
Y245098D01*
X88074D01*
Y245018D01*
X88233D01*
Y244939D01*
X88472D01*
Y244859D01*
X88711D01*
Y244779D01*
X88791D01*
Y244700D01*
X88950D01*
Y244540D01*
X89030D01*
Y244461D01*
X89109D01*
Y243983D01*
X89030D01*
Y243824D01*
X88870D01*
Y243744D01*
X88711D01*
Y243664D01*
X88074D01*
Y243585D01*
X87197D01*
Y243505D01*
X83613D01*
Y243425D01*
X81383D01*
Y243346D01*
X78436D01*
Y243266D01*
X66089D01*
Y243346D01*
X65611D01*
Y243425D01*
X65293D01*
Y243505D01*
X65133D01*
Y243585D01*
X64974D01*
Y243664D01*
X64894D01*
Y243744D01*
X64815D01*
Y243824D01*
X64735D01*
Y244381D01*
X64815D01*
Y244540D01*
X64974D01*
Y244620D01*
X65133D01*
Y244700D01*
X65930D01*
Y244779D01*
X67523D01*
Y244859D01*
X68320D01*
Y244939D01*
X68877D01*
Y245018D01*
X69275D01*
Y245098D01*
X69594D01*
Y245178D01*
X69913D01*
Y245257D01*
X70152D01*
Y245337D01*
X70391D01*
Y245417D01*
X70630D01*
Y245496D01*
X70789D01*
Y245576D01*
X71028D01*
Y245655D01*
X71187D01*
Y245735D01*
X71426D01*
Y245815D01*
X71585D01*
Y245895D01*
X71745D01*
Y245974D01*
X71904D01*
Y246054D01*
X72063D01*
Y246133D01*
X72143D01*
Y246213D01*
X72302D01*
Y246293D01*
X72461D01*
Y246372D01*
X72541D01*
Y246452D01*
X72701D01*
Y246532D01*
X72780D01*
Y246611D01*
X72939D01*
Y246691D01*
X73019D01*
Y246771D01*
X73099D01*
Y246850D01*
X73258D01*
Y246930D01*
X73338D01*
Y247010D01*
X73497D01*
Y247089D01*
X73577D01*
Y247169D01*
X73656D01*
Y247249D01*
X73816D01*
Y247328D01*
X73895D01*
Y247408D01*
X73975D01*
Y247488D01*
X74055D01*
Y247567D01*
X74134D01*
Y247647D01*
X74294D01*
Y247726D01*
X74373D01*
Y247806D01*
X74453D01*
Y247886D01*
X74533D01*
Y247966D01*
X74612D01*
Y248045D01*
X74771D01*
Y248125D01*
X74851D01*
Y248204D01*
X74931D01*
Y248284D01*
X75011D01*
Y248364D01*
X75090D01*
Y248443D01*
X75170D01*
Y248523D01*
X75249D01*
Y248603D01*
X75329D01*
Y248682D01*
X75409D01*
Y248762D01*
X75488D01*
Y248842D01*
X75568D01*
Y248921D01*
X75648D01*
Y249001D01*
X75727D01*
Y249081D01*
X75807D01*
Y249240D01*
X75887D01*
Y249320D01*
X75966D01*
Y249399D01*
X76046D01*
Y249479D01*
X76126D01*
Y249638D01*
X76205D01*
Y249718D01*
X76285D01*
Y249798D01*
X76364D01*
Y249957D01*
X76444D01*
Y250037D01*
X76524D01*
Y250196D01*
X76604D01*
Y250275D01*
X76683D01*
Y250355D01*
X76763D01*
Y250514D01*
X76842D01*
Y250594D01*
X76922D01*
Y250753D01*
X77002D01*
Y250833D01*
X77082D01*
Y250992D01*
X77161D01*
Y251152D01*
X77241D01*
Y251231D01*
X77320D01*
Y251391D01*
X77400D01*
Y251550D01*
X77480D01*
Y251630D01*
X77559D01*
Y251789D01*
X77639D01*
Y251948D01*
X77719D01*
Y252108D01*
X77798D01*
Y252187D01*
X77878D01*
Y252346D01*
X77958D01*
Y252506D01*
X78037D01*
Y252665D01*
X78117D01*
Y252824D01*
X78197D01*
Y252984D01*
X78276D01*
Y253143D01*
X78356D01*
Y253223D01*
X78436D01*
Y253382D01*
X78515D01*
Y253541D01*
X78595D01*
Y253780D01*
X78675D01*
Y253860D01*
X78754D01*
Y254099D01*
X78834D01*
Y254258D01*
X78913D01*
Y254417D01*
X78993D01*
Y254577D01*
X79073D01*
Y254736D01*
X79152D01*
Y254895D01*
X79232D01*
Y255055D01*
X79312D01*
Y255214D01*
X79391D01*
Y255453D01*
X79471D01*
Y255612D01*
X79551D01*
Y255771D01*
X79630D01*
Y255931D01*
X79710D01*
Y256170D01*
X79790D01*
Y256329D01*
X79869D01*
Y256488D01*
X79949D01*
Y256648D01*
X80029D01*
Y256887D01*
X80108D01*
Y257046D01*
X80188D01*
Y257205D01*
X80268D01*
Y257444D01*
X80347D01*
Y257604D01*
X80427D01*
Y257842D01*
X80507D01*
Y258002D01*
X80586D01*
Y258161D01*
X80666D01*
Y258400D01*
X80746D01*
Y258559D01*
X80825D01*
Y258798D01*
X80905D01*
Y258958D01*
X80984D01*
Y259197D01*
X81064D01*
Y259356D01*
X81144D01*
Y259595D01*
X81223D01*
Y259834D01*
X81303D01*
Y259993D01*
X81383D01*
Y260232D01*
X81462D01*
Y260391D01*
X81542D01*
Y260630D01*
X81622D01*
Y260790D01*
X81701D01*
Y261029D01*
X81781D01*
Y261268D01*
X81861D01*
Y261427D01*
X81940D01*
Y261666D01*
X82020D01*
Y261825D01*
X82100D01*
Y262064D01*
X82179D01*
Y262224D01*
X82259D01*
Y262462D01*
X82339D01*
Y262622D01*
X82418D01*
Y262861D01*
X82498D01*
Y263020D01*
X82578D01*
Y263259D01*
X82657D01*
Y263498D01*
X82737D01*
Y263657D01*
X82816D01*
Y263896D01*
X82896D01*
Y264055D01*
X82976D01*
Y264295D01*
X83055D01*
Y264454D01*
X83135D01*
Y264693D01*
X83215D01*
Y264852D01*
X83294D01*
Y265091D01*
X83374D01*
Y265250D01*
X83454D01*
Y265489D01*
X83533D01*
Y265728D01*
X83613D01*
Y265887D01*
X83693D01*
Y266126D01*
X83772D01*
Y266286D01*
X83852D01*
Y266525D01*
X83932D01*
Y266684D01*
X84011D01*
Y266923D01*
X84091D01*
Y267082D01*
X84171D01*
Y267321D01*
X84250D01*
Y267481D01*
X84330D01*
Y267720D01*
X84410D01*
Y267879D01*
X84489D01*
Y268118D01*
X84569D01*
Y268277D01*
X84649D01*
Y268516D01*
X84728D01*
Y268755D01*
X84808D01*
Y268914D01*
X84887D01*
Y269153D01*
X84967D01*
Y269313D01*
X85047D01*
Y269552D01*
X85127D01*
Y269711D01*
X85206D01*
Y269950D01*
X85286D01*
Y270189D01*
X85365D01*
Y270348D01*
X85445D01*
Y270587D01*
X85525D01*
Y270746D01*
X85604D01*
Y270985D01*
X85684D01*
Y271145D01*
X85764D01*
Y271384D01*
X85843D01*
Y271623D01*
X85923D01*
Y271782D01*
X86003D01*
Y271862D01*
Y271941D01*
Y272021D01*
X86082D01*
Y272180D01*
X86162D01*
Y272340D01*
X86242D01*
Y272578D01*
X86321D01*
Y272658D01*
X96756D01*
Y272419D01*
D02*
G37*
G36*
X350741Y51406D02*
X347592Y53768D01*
X350741Y56130D01*
Y51406D01*
D02*
G37*
%LPC*%
G36*
X145583Y284208D02*
X144628D01*
Y284128D01*
X144389D01*
Y284049D01*
X144150D01*
Y283969D01*
X144070D01*
Y283889D01*
X143911D01*
Y283810D01*
X143831D01*
Y283730D01*
X143751D01*
Y283650D01*
X143672D01*
Y283571D01*
X143592D01*
Y283491D01*
X143512D01*
Y283332D01*
X143433D01*
Y283172D01*
X143353D01*
Y283013D01*
X143273D01*
Y282694D01*
X143194D01*
Y281340D01*
X143273D01*
Y281101D01*
X143353D01*
Y280942D01*
X143433D01*
Y280783D01*
X143512D01*
Y280623D01*
X143592D01*
Y280544D01*
X143672D01*
Y280464D01*
X143751D01*
Y280384D01*
X143831D01*
Y280305D01*
X143990D01*
Y280225D01*
X144229D01*
Y280146D01*
X145265D01*
Y280225D01*
X145743D01*
Y280305D01*
X145902D01*
Y281181D01*
Y281261D01*
Y284128D01*
X145583D01*
Y284208D01*
D02*
G37*
G36*
X137140D02*
X136184D01*
Y284128D01*
X135547D01*
Y284049D01*
X135069D01*
Y283969D01*
X134751D01*
Y283889D01*
X134512D01*
Y283810D01*
X134352D01*
Y283730D01*
X134193D01*
Y283650D01*
X134034D01*
Y283571D01*
X133874D01*
Y283491D01*
X133795D01*
Y283411D01*
X133715D01*
Y283332D01*
X133556D01*
Y283252D01*
X133476D01*
Y283172D01*
X133396D01*
Y283093D01*
X133317D01*
Y283013D01*
X133237D01*
Y282933D01*
X133158D01*
Y282854D01*
X133078D01*
Y282774D01*
X132998D01*
Y282615D01*
X132919D01*
Y282535D01*
X132839D01*
Y282376D01*
X132759D01*
Y282296D01*
X132680D01*
Y282137D01*
X132600D01*
Y281978D01*
X132520D01*
Y281818D01*
X132441D01*
Y281579D01*
X132361D01*
Y281340D01*
X132281D01*
Y281022D01*
X132202D01*
Y279508D01*
X132281D01*
Y279030D01*
X132361D01*
Y278791D01*
X132441D01*
Y278552D01*
X132520D01*
Y278313D01*
X132600D01*
Y278154D01*
X132680D01*
Y277995D01*
X132759D01*
Y277915D01*
X132839D01*
Y277836D01*
X132919D01*
Y277676D01*
X132998D01*
Y277597D01*
X133158D01*
Y277517D01*
X133237D01*
Y277437D01*
X133317D01*
Y277358D01*
X133396D01*
Y277278D01*
X133556D01*
Y277198D01*
X133635D01*
Y277119D01*
X133795D01*
Y277039D01*
X133954D01*
Y276959D01*
X134113D01*
Y276880D01*
X134273D01*
Y276800D01*
X134591D01*
Y276720D01*
X134830D01*
Y276641D01*
X135547D01*
Y276561D01*
X135786D01*
Y276641D01*
X136822D01*
Y276720D01*
X137060D01*
Y276800D01*
X137220D01*
Y276880D01*
X137379D01*
Y276959D01*
X137539D01*
Y277119D01*
X137618D01*
Y277676D01*
X137698D01*
Y283969D01*
X137618D01*
Y284049D01*
X137539D01*
Y284128D01*
X137140D01*
Y284208D01*
D02*
G37*
G36*
X116191Y284288D02*
X116032D01*
Y284208D01*
X115554D01*
Y284128D01*
X115395D01*
Y284049D01*
X115235D01*
Y283969D01*
X115156D01*
Y283889D01*
X115076D01*
Y283810D01*
X114997D01*
Y283730D01*
X114917D01*
Y283571D01*
X114837D01*
Y283411D01*
X114758D01*
Y283252D01*
X114678D01*
Y282933D01*
X114598D01*
Y281898D01*
X114678D01*
Y281659D01*
X114758D01*
Y281500D01*
X114837D01*
Y281420D01*
X114917D01*
Y281261D01*
X114997D01*
Y281181D01*
X115076D01*
Y281101D01*
X115235D01*
Y281022D01*
X115554D01*
Y280942D01*
X116430D01*
Y281022D01*
X116749D01*
Y284208D01*
X116191D01*
Y284288D01*
D02*
G37*
G36*
X116749Y280703D02*
X115554D01*
Y280623D01*
X115315D01*
Y280544D01*
X115156D01*
Y280464D01*
X114997D01*
Y280384D01*
X114837D01*
Y280305D01*
X114758D01*
Y280225D01*
X114678D01*
Y280146D01*
X114598D01*
Y280066D01*
X114519D01*
Y279986D01*
X114439D01*
Y279907D01*
X114359D01*
Y279827D01*
X114280D01*
Y279668D01*
X114200D01*
Y279508D01*
X114120D01*
Y279349D01*
X114041D01*
Y279110D01*
X113961D01*
Y278871D01*
X113881D01*
Y277676D01*
X113961D01*
Y277437D01*
X114041D01*
Y277358D01*
X114120D01*
Y277198D01*
X114200D01*
Y277119D01*
X114280D01*
Y277039D01*
X114359D01*
Y276959D01*
X114519D01*
Y276880D01*
X114598D01*
Y276800D01*
X114758D01*
Y276720D01*
X115076D01*
Y276641D01*
X115873D01*
Y276720D01*
X116271D01*
Y276800D01*
X116430D01*
Y276880D01*
X116590D01*
Y276959D01*
X116669D01*
Y277119D01*
X116749D01*
Y279907D01*
Y279986D01*
Y280703D01*
D02*
G37*
G36*
X74533Y284208D02*
X73497D01*
Y284128D01*
X73258D01*
Y284049D01*
X73099D01*
Y283969D01*
X72939D01*
Y283889D01*
X72780D01*
Y283810D01*
X72701D01*
Y283730D01*
X72621D01*
Y283650D01*
X72541D01*
Y283571D01*
X72461D01*
Y283491D01*
X72382D01*
Y283332D01*
X72302D01*
Y283172D01*
X72223D01*
Y283013D01*
X72143D01*
Y282694D01*
X72063D01*
Y281340D01*
X72143D01*
Y281101D01*
X72223D01*
Y280942D01*
X72302D01*
Y280783D01*
X72382D01*
Y280623D01*
X72461D01*
Y280544D01*
X72541D01*
Y280464D01*
X72621D01*
Y280384D01*
X72701D01*
Y280305D01*
X72860D01*
Y280225D01*
X73099D01*
Y280146D01*
X74134D01*
Y280225D01*
X74612D01*
Y280305D01*
X74771D01*
Y284128D01*
X74533D01*
Y284208D01*
D02*
G37*
G36*
X152752Y283093D02*
X152593D01*
Y282854D01*
X152513D01*
Y282615D01*
X152434D01*
Y282455D01*
X152354D01*
Y282137D01*
X152274D01*
Y281978D01*
X152195D01*
Y281739D01*
X152115D01*
Y281500D01*
X152035D01*
Y281261D01*
X151956D01*
Y281022D01*
X151876D01*
Y280783D01*
X151796D01*
Y280544D01*
X151717D01*
Y280384D01*
X151637D01*
Y280146D01*
X151558D01*
Y279986D01*
X153788D01*
Y280146D01*
X153708D01*
Y280384D01*
X153629D01*
Y280623D01*
X153549D01*
Y280862D01*
X153469D01*
Y281101D01*
X153390D01*
Y281340D01*
X153310D01*
Y281579D01*
X153230D01*
Y281818D01*
X153150D01*
Y282057D01*
X153071D01*
Y282296D01*
X152991D01*
Y282535D01*
X152912D01*
Y282774D01*
X152832D01*
Y283013D01*
X152752D01*
Y283093D01*
D02*
G37*
G36*
X127183D02*
X127024D01*
Y282854D01*
X126944D01*
Y282615D01*
X126865D01*
Y282376D01*
X126785D01*
Y282137D01*
X126706D01*
Y281978D01*
X126626D01*
Y281739D01*
X126546D01*
Y281500D01*
X126467D01*
Y281261D01*
X126387D01*
Y281022D01*
X126307D01*
Y280783D01*
X126228D01*
Y280544D01*
X126148D01*
Y280384D01*
X126068D01*
Y280146D01*
X125989D01*
Y279986D01*
X128219D01*
Y280146D01*
X128139D01*
Y280384D01*
X128060D01*
Y280623D01*
X127980D01*
Y280862D01*
X127900D01*
Y281101D01*
X127821D01*
Y281340D01*
X127741D01*
Y281579D01*
X127661D01*
Y281818D01*
X127582D01*
Y282057D01*
X127502D01*
Y282296D01*
X127422D01*
Y282455D01*
Y282535D01*
Y282615D01*
X127343D01*
Y282774D01*
X127263D01*
Y283013D01*
X127183D01*
Y283093D01*
D02*
G37*
G36*
X107589Y284447D02*
X106872D01*
Y284367D01*
X106474D01*
Y284288D01*
X106155D01*
Y284208D01*
X105996D01*
Y284128D01*
X105836D01*
Y284049D01*
X105677D01*
Y283969D01*
X105597D01*
Y283889D01*
X105438D01*
Y283810D01*
X105359D01*
Y283730D01*
X105199D01*
Y283650D01*
X105120D01*
Y283571D01*
X105040D01*
Y283491D01*
X104960D01*
Y283411D01*
X104880D01*
Y283332D01*
X104801D01*
Y283252D01*
X104721D01*
Y283093D01*
X104642D01*
Y283013D01*
X104562D01*
Y282933D01*
X104482D01*
Y282774D01*
X104403D01*
Y282615D01*
X104323D01*
Y282455D01*
X104243D01*
Y282296D01*
X104164D01*
Y281978D01*
X104084D01*
Y281739D01*
X104004D01*
Y281340D01*
X103925D01*
Y279429D01*
X104004D01*
Y278951D01*
X104084D01*
Y278712D01*
X104164D01*
Y278473D01*
X104243D01*
Y278313D01*
X104323D01*
Y278154D01*
X104403D01*
Y277995D01*
X104482D01*
Y277915D01*
X104562D01*
Y277836D01*
X104642D01*
Y277676D01*
X104721D01*
Y277597D01*
X104801D01*
Y277517D01*
X104880D01*
Y277437D01*
X104960D01*
Y277358D01*
X105040D01*
Y277278D01*
X105120D01*
Y277198D01*
X105199D01*
Y277119D01*
X105359D01*
Y277039D01*
X105438D01*
Y276959D01*
X105597D01*
Y276880D01*
X105836D01*
Y276800D01*
X105996D01*
Y276720D01*
X106314D01*
Y276641D01*
X107589D01*
Y276720D01*
X107907D01*
Y276800D01*
X108146D01*
Y276880D01*
X108306D01*
Y276959D01*
X108465D01*
Y277039D01*
X108624D01*
Y277119D01*
X108704D01*
Y277198D01*
X108863D01*
Y277278D01*
X108943D01*
Y277358D01*
X109022D01*
Y277437D01*
X109102D01*
Y277517D01*
X109182D01*
Y277597D01*
X109262D01*
Y277676D01*
X109341D01*
Y277756D01*
X109421D01*
Y277836D01*
X109500D01*
Y277915D01*
X109580D01*
Y277995D01*
X109660D01*
Y278154D01*
X109739D01*
Y278234D01*
X109819D01*
Y278393D01*
X109899D01*
Y278552D01*
X109978D01*
Y278712D01*
X110058D01*
Y278951D01*
X110138D01*
Y279190D01*
X110217D01*
Y279429D01*
X110297D01*
Y279827D01*
X110377D01*
Y281739D01*
X110297D01*
Y282137D01*
X110217D01*
Y282376D01*
X110138D01*
Y282615D01*
X110058D01*
Y282774D01*
X109978D01*
Y282933D01*
X109899D01*
Y283093D01*
X109819D01*
Y283172D01*
X109739D01*
Y283252D01*
X109660D01*
Y283411D01*
X109580D01*
Y283491D01*
X109500D01*
Y283571D01*
X109421D01*
Y283650D01*
X109341D01*
Y283730D01*
X109182D01*
Y283810D01*
X109102D01*
Y283889D01*
X109022D01*
Y283969D01*
X108863D01*
Y284049D01*
X108704D01*
Y284128D01*
X108545D01*
Y284208D01*
X108306D01*
Y284288D01*
X108067D01*
Y284367D01*
X107589D01*
Y284447D01*
D02*
G37*
%LPD*%
D10*
X331450Y49043D02*
G03*
X326726Y49043I-2362J0D01*
G01*
X317939Y85544D02*
X321876D01*
X317939Y91056D02*
X321876D01*
X331450Y49043D02*
X336568D01*
X321660D02*
X326726D01*
X336568D02*
Y83689D01*
X321592Y83621D02*
X336552D01*
X321592Y48975D02*
Y83621D01*
X344836Y82902D02*
Y86839D01*
X350347Y82902D02*
Y86839D01*
X352710Y82902D02*
Y86839D01*
X358222Y82902D02*
Y86839D01*
X355466Y70500D02*
Y74437D01*
X349954Y70500D02*
Y74437D01*
X343042Y34347D02*
X349341D01*
X343098Y41443D02*
X349397D01*
X332237Y11051D02*
Y14988D01*
X337749Y11051D02*
Y14988D01*
X315111Y19056D02*
X319048D01*
X315111Y13544D02*
X319048D01*
X327513Y31524D02*
Y35461D01*
X322001Y31524D02*
Y35461D01*
X319639Y31524D02*
Y35461D01*
X314127Y31524D02*
Y35461D01*
X311765Y31524D02*
Y35461D01*
X306253Y31524D02*
Y35461D01*
X289816Y1405D02*
Y43138D01*
Y1405D02*
X303595D01*
Y43138D01*
X289816D02*
X303595D01*
X304678Y82902D02*
Y86839D01*
X310190Y82902D02*
Y86839D01*
X291489Y50618D02*
Y57705D01*
X297788Y50618D02*
Y57705D01*
X294442Y72272D02*
Y79358D01*
X300741Y72272D02*
Y79358D01*
D17*
X318549Y6081D02*
X329360D01*
X318549Y2231D02*
Y6081D01*
Y2231D02*
X329360D01*
Y6081D01*
X363685Y72787D02*
Y83597D01*
X359835D02*
X363685D01*
X359835Y72787D02*
Y83597D01*
Y72787D02*
X363685D01*
X348330Y62944D02*
Y73754D01*
X344480D02*
X348330D01*
X344480Y62944D02*
Y73754D01*
Y62944D02*
X348330D01*
X343727Y62220D02*
X354538D01*
X343727Y58370D02*
Y62220D01*
Y58370D02*
X354538D01*
Y62220D01*
X355514Y46182D02*
Y56992D01*
Y46182D02*
X359364D01*
Y56992D01*
X355514D02*
X359364D01*
X347592Y51406D02*
Y56130D01*
X341413Y23895D02*
X352223D01*
Y27745D01*
X341413D02*
X352223D01*
X341413Y23895D02*
Y27745D01*
X340063Y11642D02*
Y18685D01*
Y11642D02*
X340701D01*
X340063Y18685D02*
X340701D01*
X344245Y11642D02*
X348182D01*
X352364D02*
Y18685D01*
X351725Y11642D02*
X352364D01*
X351725Y18685D02*
X352364D01*
X357385Y1527D02*
Y12337D01*
X353535D02*
X357385D01*
X353535Y1527D02*
Y12337D01*
Y1527D02*
X357385D01*
X332723Y5688D02*
X343533D01*
X332723Y1838D02*
Y5688D01*
Y1838D02*
X343533D01*
Y5688D01*
X318549Y11200D02*
X329360D01*
X318549Y7350D02*
Y11200D01*
Y7350D02*
X329360D01*
Y11200D01*
X302832Y70352D02*
X313642D01*
Y74202D01*
X302832D02*
X313642D01*
X302832Y70352D02*
Y74202D01*
X302758Y58190D02*
Y69000D01*
Y58190D02*
X306608D01*
Y69000D01*
X302758D02*
X306608D01*
X307926Y58120D02*
Y68930D01*
Y58120D02*
X311776D01*
Y68930D01*
X307926D02*
X311776D01*
X304211Y46633D02*
Y57443D01*
X300361D02*
X304211D01*
X300361Y46633D02*
Y57443D01*
Y46633D02*
X304211D01*
X305489Y46603D02*
Y57413D01*
Y46603D02*
X309339D01*
Y57413D01*
X305489D02*
X309339D01*
X310607Y46603D02*
Y57413D01*
Y46603D02*
X314457D01*
Y57413D01*
X310607D02*
X314457D01*
X297640Y83978D02*
Y94788D01*
Y83978D02*
X301490D01*
Y94788D01*
X297640D02*
X301490D01*
D18*
X339124Y87874D02*
Y85251D01*
X338599Y84726D01*
X337549D01*
X337025Y85251D01*
Y87874D01*
X335975Y85251D02*
X335451Y84726D01*
X334401D01*
X333876Y85251D01*
Y87349D01*
X334401Y87874D01*
X335451D01*
X335975Y87349D01*
Y86825D01*
X335451Y86300D01*
X333876D01*
X358024Y22374D02*
Y19750D01*
X357499Y19226D01*
X356450D01*
X355925Y19750D01*
Y22374D01*
X354875Y21849D02*
X354350Y22374D01*
X353301D01*
X352776Y21849D01*
Y21325D01*
X353301Y20800D01*
X352776Y20275D01*
Y19750D01*
X353301Y19226D01*
X354350D01*
X354875Y19750D01*
Y20275D01*
X354350Y20800D01*
X354875Y21325D01*
Y21849D01*
X354350Y20800D02*
X353301D01*
X349873Y42326D02*
Y45474D01*
X348299D01*
X347774Y44949D01*
Y43900D01*
X348299Y43375D01*
X349873D01*
X348824D02*
X347774Y42326D01*
X346725Y45474D02*
X344626D01*
X345675D01*
Y42326D01*
X343576D02*
X342527D01*
X343051D01*
Y45474D01*
X343576Y44949D01*
X360026Y84502D02*
X363174D01*
Y86076D01*
X362649Y86601D01*
X361600D01*
X361075Y86076D01*
Y84502D01*
Y85551D02*
X360026Y86601D01*
X362649Y87651D02*
X363174Y88175D01*
Y89225D01*
X362649Y89749D01*
X362125D01*
X361600Y89225D01*
Y88700D01*
Y89225D01*
X361075Y89749D01*
X360550D01*
X360026Y89225D01*
Y88175D01*
X360550Y87651D01*
X363174Y92898D02*
X362649Y91849D01*
X361600Y90799D01*
X360550D01*
X360026Y91324D01*
Y92373D01*
X360550Y92898D01*
X361075D01*
X361600Y92373D01*
Y90799D01*
X344726Y74302D02*
X347874D01*
Y75876D01*
X347350Y76401D01*
X346300D01*
X345775Y75876D01*
Y74302D01*
Y75351D02*
X344726Y76401D01*
X347350Y77451D02*
X347874Y77975D01*
Y79025D01*
X347350Y79549D01*
X346825D01*
X346300Y79025D01*
Y78500D01*
Y79025D01*
X345775Y79549D01*
X345251D01*
X344726Y79025D01*
Y77975D01*
X345251Y77451D01*
X347874Y82698D02*
Y80599D01*
X346300D01*
X346825Y81649D01*
Y82173D01*
X346300Y82698D01*
X345251D01*
X344726Y82173D01*
Y81124D01*
X345251Y80599D01*
X359926Y47202D02*
X363074D01*
Y48776D01*
X362549Y49301D01*
X361500D01*
X360975Y48776D01*
Y47202D01*
Y48251D02*
X359926Y49301D01*
X362549Y50350D02*
X363074Y50875D01*
Y51925D01*
X362549Y52450D01*
X362025D01*
X361500Y51925D01*
Y51400D01*
Y51925D01*
X360975Y52450D01*
X360451D01*
X359926Y51925D01*
Y50875D01*
X360451Y50350D01*
X359926Y55073D02*
X363074D01*
X361500Y53499D01*
Y55598D01*
X363598Y58826D02*
Y61974D01*
X362024D01*
X361499Y61449D01*
Y60400D01*
X362024Y59875D01*
X363598D01*
X362549D02*
X361499Y58826D01*
X360450Y61449D02*
X359925Y61974D01*
X358875D01*
X358350Y61449D01*
Y60925D01*
X358875Y60400D01*
X359400D01*
X358875D01*
X358350Y59875D01*
Y59351D01*
X358875Y58826D01*
X359925D01*
X360450Y59351D01*
X357301Y61449D02*
X356776Y61974D01*
X355727D01*
X355202Y61449D01*
Y60925D01*
X355727Y60400D01*
X356251D01*
X355727D01*
X355202Y59875D01*
Y59351D01*
X355727Y58826D01*
X356776D01*
X357301Y59351D01*
X317998Y2426D02*
Y5574D01*
X316424D01*
X315899Y5049D01*
Y4000D01*
X316424Y3475D01*
X317998D01*
X316949D02*
X315899Y2426D01*
X314849Y5049D02*
X314325Y5574D01*
X313275D01*
X312751Y5049D01*
Y4525D01*
X313275Y4000D01*
X313800D01*
X313275D01*
X312751Y3475D01*
Y2950D01*
X313275Y2426D01*
X314325D01*
X314849Y2950D01*
X309602Y2426D02*
X311701D01*
X309602Y4525D01*
Y5049D01*
X310127Y5574D01*
X311176D01*
X311701Y5049D01*
X317998Y7926D02*
Y11074D01*
X316424D01*
X315899Y10549D01*
Y9500D01*
X316424Y8975D01*
X317998D01*
X316949D02*
X315899Y7926D01*
X314849Y10549D02*
X314325Y11074D01*
X313275D01*
X312751Y10549D01*
Y10025D01*
X313275Y9500D01*
X313800D01*
X313275D01*
X312751Y8975D01*
Y8450D01*
X313275Y7926D01*
X314325D01*
X314849Y8450D01*
X311701Y7926D02*
X310651D01*
X311176D01*
Y11074D01*
X311701Y10549D01*
X344626Y2202D02*
X347774D01*
Y3776D01*
X347250Y4301D01*
X346200D01*
X345675Y3776D01*
Y2202D01*
Y3251D02*
X344626Y4301D01*
X347250Y5350D02*
X347774Y5875D01*
Y6925D01*
X347250Y7450D01*
X346725D01*
X346200Y6925D01*
Y6400D01*
Y6925D01*
X345675Y7450D01*
X345150D01*
X344626Y6925D01*
Y5875D01*
X345150Y5350D01*
X347250Y8499D02*
X347774Y9024D01*
Y10073D01*
X347250Y10598D01*
X345150D01*
X344626Y10073D01*
Y9024D01*
X345150Y8499D01*
X347250D01*
X312398Y74926D02*
Y78074D01*
X310824D01*
X310299Y77549D01*
Y76500D01*
X310824Y75975D01*
X312398D01*
X311349D02*
X310299Y74926D01*
X307151D02*
X309249D01*
X307151Y77025D01*
Y77549D01*
X307675Y78074D01*
X308725D01*
X309249Y77549D01*
X306101Y75450D02*
X305576Y74926D01*
X304527D01*
X304002Y75450D01*
Y77549D01*
X304527Y78074D01*
X305576D01*
X306101Y77549D01*
Y77025D01*
X305576Y76500D01*
X304002D01*
X315626Y40002D02*
X318774D01*
Y41576D01*
X318250Y42101D01*
X317200D01*
X316675Y41576D01*
Y40002D01*
Y41051D02*
X315626Y42101D01*
Y45250D02*
Y43150D01*
X317725Y45250D01*
X318250D01*
X318774Y44725D01*
Y43675D01*
X318250Y43150D01*
Y46299D02*
X318774Y46824D01*
Y47873D01*
X318250Y48398D01*
X317725D01*
X317200Y47873D01*
X316675Y48398D01*
X316150D01*
X315626Y47873D01*
Y46824D01*
X316150Y46299D01*
X316675D01*
X317200Y46824D01*
X317725Y46299D01*
X318250D01*
X317200Y46824D02*
Y47873D01*
X299498Y44426D02*
Y47574D01*
X297924D01*
X297399Y47049D01*
Y46000D01*
X297924Y45475D01*
X299498D01*
X298449D02*
X297399Y44426D01*
X294250D02*
X296350D01*
X294250Y46525D01*
Y47049D01*
X294775Y47574D01*
X295825D01*
X296350Y47049D01*
X293201Y47574D02*
X291102D01*
Y47049D01*
X293201Y44951D01*
Y44426D01*
X312326Y59502D02*
X315474D01*
Y61076D01*
X314949Y61601D01*
X313900D01*
X313375Y61076D01*
Y59502D01*
Y60551D02*
X312326Y61601D01*
Y64749D02*
Y62651D01*
X314425Y64749D01*
X314949D01*
X315474Y64225D01*
Y63175D01*
X314949Y62651D01*
X315474Y67898D02*
X314949Y66849D01*
X313900Y65799D01*
X312850D01*
X312326Y66324D01*
Y67373D01*
X312850Y67898D01*
X313375D01*
X313900Y67373D01*
Y65799D01*
X350998Y28726D02*
Y31874D01*
X349424D01*
X348899Y31350D01*
Y30300D01*
X349424Y29775D01*
X350998D01*
X349949D02*
X348899Y28726D01*
X345750D02*
X347849D01*
X345750Y30825D01*
Y31350D01*
X346275Y31874D01*
X347325D01*
X347849Y31350D01*
X342602Y31874D02*
X344701D01*
Y30300D01*
X343651Y30825D01*
X343127D01*
X342602Y30300D01*
Y29250D01*
X343127Y28726D01*
X344176D01*
X344701Y29250D01*
X302526Y91902D02*
X305674D01*
Y93476D01*
X305150Y94001D01*
X304100D01*
X303575Y93476D01*
Y91902D01*
Y92951D02*
X302526Y94001D01*
Y97149D02*
Y95051D01*
X304625Y97149D01*
X305150D01*
X305674Y96625D01*
Y95575D01*
X305150Y95051D01*
X302526Y99773D02*
X305674D01*
X304100Y98199D01*
Y100298D01*
X308025Y16774D02*
X309074D01*
X308549D01*
Y14151D01*
X309074Y13626D01*
X309599D01*
X310124Y14151D01*
X306975Y16250D02*
X306451Y16774D01*
X305401D01*
X304876Y16250D01*
Y15725D01*
X305401Y15200D01*
X304876Y14675D01*
Y14151D01*
X305401Y13626D01*
X306451D01*
X306975Y14151D01*
Y14675D01*
X306451Y15200D01*
X306975Y15725D01*
Y16250D01*
X306451Y15200D02*
X305401D01*
X351824Y50374D02*
Y47226D01*
X350250D01*
X349725Y47750D01*
Y49850D01*
X350250Y50374D01*
X351824D01*
X348675D02*
X346576D01*
Y49850D01*
X348675Y47750D01*
Y47226D01*
X309649Y21201D02*
X310174Y20676D01*
Y19627D01*
X309649Y19102D01*
X307551D01*
X307026Y19627D01*
Y20676D01*
X307551Y21201D01*
X307026Y23825D02*
X310174D01*
X308600Y22251D01*
Y24350D01*
X310174Y27498D02*
X309649Y26449D01*
X308600Y25399D01*
X307551D01*
X307026Y25924D01*
Y26973D01*
X307551Y27498D01*
X308075D01*
X308600Y26973D01*
Y25399D01*
X331150Y31401D02*
X331674Y30876D01*
Y29827D01*
X331150Y29302D01*
X329050D01*
X328526Y29827D01*
Y30876D01*
X329050Y31401D01*
X328526Y34025D02*
X331674D01*
X330100Y32451D01*
Y34549D01*
X331674Y37698D02*
Y35599D01*
X330100D01*
X330625Y36649D01*
Y37173D01*
X330100Y37698D01*
X329050D01*
X328526Y37173D01*
Y36124D01*
X329050Y35599D01*
X335249Y31401D02*
X335774Y30876D01*
Y29827D01*
X335249Y29302D01*
X333151D01*
X332626Y29827D01*
Y30876D01*
X333151Y31401D01*
X332626Y34025D02*
X335774D01*
X334200Y32451D01*
Y34549D01*
X332626Y37173D02*
X335774D01*
X334200Y35599D01*
Y37698D01*
X356249Y93001D02*
X356774Y92476D01*
Y91427D01*
X356249Y90902D01*
X354151D01*
X353626Y91427D01*
Y92476D01*
X354151Y93001D01*
X353626Y95625D02*
X356774D01*
X355200Y94051D01*
Y96149D01*
X356249Y97199D02*
X356774Y97724D01*
Y98773D01*
X356249Y99298D01*
X355725D01*
X355200Y98773D01*
Y98249D01*
Y98773D01*
X354675Y99298D01*
X354151D01*
X353626Y98773D01*
Y97724D01*
X354151Y97199D01*
X348650Y93001D02*
X349174Y92476D01*
Y91427D01*
X348650Y90902D01*
X346550D01*
X346026Y91427D01*
Y92476D01*
X346550Y93001D01*
X346026Y95625D02*
X349174D01*
X347600Y94051D01*
Y96149D01*
X346026Y99298D02*
Y97199D01*
X348125Y99298D01*
X348650D01*
X349174Y98773D01*
Y97724D01*
X348650Y97199D01*
X358949Y67726D02*
X359474Y67201D01*
Y66151D01*
X358949Y65627D01*
X356851D01*
X356326Y66151D01*
Y67201D01*
X356851Y67726D01*
X356326Y70350D02*
X359474D01*
X357900Y68775D01*
Y70874D01*
X356326Y71924D02*
Y72973D01*
Y72449D01*
X359474D01*
X358949Y71924D01*
X325749Y15201D02*
X326274Y14676D01*
Y13627D01*
X325749Y13102D01*
X323651D01*
X323126Y13627D01*
Y14676D01*
X323651Y15201D01*
X323126Y17825D02*
X326274D01*
X324700Y16251D01*
Y18350D01*
X325749Y19399D02*
X326274Y19924D01*
Y20973D01*
X325749Y21498D01*
X323651D01*
X323126Y20973D01*
Y19924D01*
X323651Y19399D01*
X325749D01*
X336999Y21550D02*
X337524Y22074D01*
X338573D01*
X339098Y21550D01*
Y19451D01*
X338573Y18926D01*
X337524D01*
X336999Y19451D01*
X335949Y21550D02*
X335425Y22074D01*
X334375D01*
X333851Y21550D01*
Y21025D01*
X334375Y20500D01*
X334900D01*
X334375D01*
X333851Y19975D01*
Y19451D01*
X334375Y18926D01*
X335425D01*
X335949Y19451D01*
X332801D02*
X332276Y18926D01*
X331227D01*
X330702Y19451D01*
Y21550D01*
X331227Y22074D01*
X332276D01*
X332801Y21550D01*
Y21025D01*
X332276Y20500D01*
X330702D01*
X360849Y5101D02*
X361374Y4576D01*
Y3527D01*
X360849Y3002D01*
X358751D01*
X358226Y3527D01*
Y4576D01*
X358751Y5101D01*
X360849Y6151D02*
X361374Y6675D01*
Y7725D01*
X360849Y8249D01*
X360325D01*
X359800Y7725D01*
Y7200D01*
Y7725D01*
X359275Y8249D01*
X358751D01*
X358226Y7725D01*
Y6675D01*
X358751Y6151D01*
X360849Y9299D02*
X361374Y9824D01*
Y10873D01*
X360849Y11398D01*
X360325D01*
X359800Y10873D01*
X359275Y11398D01*
X358751D01*
X358226Y10873D01*
Y9824D01*
X358751Y9299D01*
X359275D01*
X359800Y9824D01*
X360325Y9299D01*
X360849D01*
X359800Y9824D02*
Y10873D01*
X313750Y83001D02*
X314274Y82476D01*
Y81427D01*
X313750Y80902D01*
X311650D01*
X311126Y81427D01*
Y82476D01*
X311650Y83001D01*
X313750Y84051D02*
X314274Y84575D01*
Y85625D01*
X313750Y86150D01*
X313225D01*
X312700Y85625D01*
Y85100D01*
Y85625D01*
X312175Y86150D01*
X311650D01*
X311126Y85625D01*
Y84575D01*
X311650Y84051D01*
X314274Y87199D02*
Y89298D01*
X313750D01*
X311650Y87199D01*
X311126D01*
X311199Y44850D02*
X311724Y45374D01*
X312773D01*
X313298Y44850D01*
Y42750D01*
X312773Y42226D01*
X311724D01*
X311199Y42750D01*
X310150Y44850D02*
X309625Y45374D01*
X308575D01*
X308050Y44850D01*
Y44325D01*
X308575Y43800D01*
X309100D01*
X308575D01*
X308050Y43275D01*
Y42750D01*
X308575Y42226D01*
X309625D01*
X310150Y42750D01*
X304902Y45374D02*
X305951Y44850D01*
X307001Y43800D01*
Y42750D01*
X306476Y42226D01*
X305427D01*
X304902Y42750D01*
Y43275D01*
X305427Y43800D01*
X307001D01*
X321999Y94550D02*
X322524Y95074D01*
X323573D01*
X324098Y94550D01*
Y92450D01*
X323573Y91926D01*
X322524D01*
X321999Y92450D01*
X320950Y94550D02*
X320425Y95074D01*
X319375D01*
X318850Y94550D01*
Y94025D01*
X319375Y93500D01*
X319900D01*
X319375D01*
X318850Y92975D01*
Y92450D01*
X319375Y91926D01*
X320425D01*
X320950Y92450D01*
X315702Y95074D02*
X317801D01*
Y93500D01*
X316751Y94025D01*
X316227D01*
X315702Y93500D01*
Y92450D01*
X316227Y91926D01*
X317276D01*
X317801Y92450D01*
X297399Y64450D02*
X297924Y64974D01*
X298973D01*
X299498Y64450D01*
Y62350D01*
X298973Y61826D01*
X297924D01*
X297399Y62350D01*
X296350Y64450D02*
X295825Y64974D01*
X294775D01*
X294250Y64450D01*
Y63925D01*
X294775Y63400D01*
X295300D01*
X294775D01*
X294250Y62875D01*
Y62350D01*
X294775Y61826D01*
X295825D01*
X296350Y62350D01*
X291102Y61826D02*
X293201D01*
X291102Y63925D01*
Y64450D01*
X291627Y64974D01*
X292676D01*
X293201Y64450D01*
X293449Y82801D02*
X293974Y82276D01*
Y81227D01*
X293449Y80702D01*
X291351D01*
X290826Y81227D01*
Y82276D01*
X291351Y82801D01*
X293449Y83851D02*
X293974Y84375D01*
Y85425D01*
X293449Y85949D01*
X292925D01*
X292400Y85425D01*
Y84900D01*
Y85425D01*
X291875Y85949D01*
X291351D01*
X290826Y85425D01*
Y84375D01*
X291351Y83851D01*
X290826Y88573D02*
X293974D01*
X292400Y86999D01*
Y89098D01*
X319050Y61601D02*
X319574Y61076D01*
Y60027D01*
X319050Y59502D01*
X316950D01*
X316426Y60027D01*
Y61076D01*
X316950Y61601D01*
X319050Y62651D02*
X319574Y63175D01*
Y64225D01*
X319050Y64749D01*
X318525D01*
X318000Y64225D01*
Y63700D01*
Y64225D01*
X317475Y64749D01*
X316950D01*
X316426Y64225D01*
Y63175D01*
X316950Y62651D01*
X319050Y65799D02*
X319574Y66324D01*
Y67373D01*
X319050Y67898D01*
X318525D01*
X318000Y67373D01*
Y66849D01*
Y67373D01*
X317475Y67898D01*
X316950D01*
X316426Y67373D01*
Y66324D01*
X316950Y65799D01*
D169*
X314422Y50224D02*
G03*
X314422Y50224I-689J0D01*
G01*
M02*
