G04*
G04 #@! TF.GenerationSoftware,Altium Limited,Altium Designer,23.4.1 (23)*
G04*
G04 Layer_Color=16711680*
%FSLAX25Y25*%
%MOIN*%
G70*
G04*
G04 #@! TF.SameCoordinates,A51C0158-4689-45C6-BA85-3C71187D63DA*
G04*
G04*
G04 #@! TF.FilePolarity,Positive*
G04*
G01*
G75*
%ADD101C,0.02500*%
D101*
X84378Y12705D02*
X153655D01*
X84000Y11005D02*
X153372D01*
X84189Y8551D02*
X153655D01*
X84000Y6380D02*
X153012D01*
X84094Y4303D02*
X153655D01*
X84000Y2321D02*
X153466D01*
X84000Y745D02*
X84645Y100D01*
X84000Y745D02*
Y14045D01*
X153655D01*
Y-0D02*
Y14045D01*
X288752Y115402D02*
X366597D01*
Y-0D02*
Y115402D01*
X289643Y-0D02*
X366597D01*
X288752Y115402D02*
Y361426D01*
X288728Y361450D02*
X288752Y361426D01*
X-0Y361450D02*
X288728D01*
X-0Y-0D02*
Y361450D01*
Y-0D02*
X289643D01*
X288477D02*
X288480Y17379D01*
X288498Y20397D02*
Y21397D01*
X288516Y24415D02*
Y25415D01*
X288535Y28434D02*
Y29434D01*
X288553Y32452D02*
Y33452D01*
X288571Y36470D02*
Y50053D01*
X288643Y65126D02*
Y66126D01*
X288625Y61108D02*
Y62108D01*
X288607Y57090D02*
Y58090D01*
X288589Y53071D02*
Y54071D01*
X288662Y69144D02*
Y82727D01*
X288680Y85746D02*
Y86746D01*
X288698Y89764D02*
Y90764D01*
X288716Y93782D02*
Y94782D01*
X288734Y97800D02*
Y98800D01*
X288752Y101818D02*
Y115402D01*
M02*
