G04*
G04 #@! TF.GenerationSoftware,Altium Limited,Altium Designer,23.4.1 (23)*
G04*
G04 Layer_Physical_Order=3*
G04 Layer_Color=128*
%FSLAX25Y25*%
%MOIN*%
G70*
G04*
G04 #@! TF.SameCoordinates,A51C0158-4689-45C6-BA85-3C71187D63DA*
G04*
G04*
G04 #@! TF.FilePolarity,Negative*
G04*
G01*
G75*
%ADD101C,0.02500*%
%ADD111C,0.04000*%
%ADD130R,1.77319X0.55750*%
%ADD131R,1.29700X1.03400*%
%ADD132R,0.78329X0.41300*%
%ADD133C,0.08953*%
%ADD134C,0.08165*%
%ADD136C,0.10134*%
%ADD137C,0.12693*%
%ADD138C,0.08362*%
%ADD141C,0.14268*%
%ADD144C,0.09150*%
%ADD145C,0.09543*%
%ADD146C,0.11118*%
G04:AMPARAMS|DCode=148|XSize=63.779mil|YSize=63.779mil|CornerRadius=0mil|HoleSize=0mil|Usage=FLASHONLY|Rotation=0.000|XOffset=0mil|YOffset=0mil|HoleType=Round|Shape=Relief|Width=15mil|Gap=10mil|Entries=4|*
%AMTHD148*
7,0,0,0.06378,0.04378,0.01500,45*
%
%ADD148THD148*%
%ADD149C,0.07378*%
G04:AMPARAMS|DCode=150|XSize=61.811mil|YSize=61.811mil|CornerRadius=0mil|HoleSize=0mil|Usage=FLASHONLY|Rotation=0.000|XOffset=0mil|YOffset=0mil|HoleType=Round|Shape=Relief|Width=15mil|Gap=10mil|Entries=4|*
%AMTHD150*
7,0,0,0.06181,0.04181,0.01500,45*
%
%ADD150THD150*%
%ADD151C,0.07181*%
%ADD152R,0.07200X0.05600*%
%ADD153R,0.07300X0.09800*%
%ADD154R,1.14328X0.96250*%
G04:AMPARAMS|DCode=155|XSize=79.528mil|YSize=79.528mil|CornerRadius=0mil|HoleSize=0mil|Usage=FLASHONLY|Rotation=0.000|XOffset=0mil|YOffset=0mil|HoleType=Round|Shape=Relief|Width=15mil|Gap=10mil|Entries=4|*
%AMTHD155*
7,0,0,0.07953,0.05953,0.01500,45*
%
%ADD155THD155*%
%AMTHOVALD156*
21,1,0.01181,0.09724,0,0,270.0*
1,1,0.09724,0.00000,0.00591*
1,1,0.09724,0.00000,-0.00591*
21,0,0.01181,0.07724,0,0,270.0*
1,0,0.07724,0.00000,0.00591*
1,0,0.07724,0.00000,-0.00591*
4,0,4,-0.00530,0.00060,-0.03968,0.03498,-0.02908,0.04559,0.00530,0.01121,-0.00530,0.00060,0.0*
4,0,4,-0.00530,-0.01121,0.02908,-0.04559,0.03968,-0.03498,0.00530,-0.00060,-0.00530,-0.01121,0.0*
4,0,4,-0.00530,0.01121,0.02908,0.04559,0.03968,0.03498,0.00530,0.00060,-0.00530,0.01121,0.0*
4,0,4,-0.00530,-0.00060,-0.03968,-0.03498,-0.02908,-0.04559,0.00530,-0.01121,-0.00530,-0.00060,0.0*
%
%ADD156THOVALD156*%

%ADD157O,0.09937X0.17811*%
%ADD158O,0.17811X0.10724*%
G04:AMPARAMS|DCode=159|XSize=81.496mil|YSize=81.496mil|CornerRadius=0mil|HoleSize=0mil|Usage=FLASHONLY|Rotation=0.000|XOffset=0mil|YOffset=0mil|HoleType=Round|Shape=Relief|Width=15mil|Gap=10mil|Entries=4|*
%AMTHD159*
7,0,0,0.08150,0.06150,0.01500,45*
%
%ADD159THD159*%
G04:AMPARAMS|DCode=160|XSize=101.181mil|YSize=101.181mil|CornerRadius=0mil|HoleSize=0mil|Usage=FLASHONLY|Rotation=0.000|XOffset=0mil|YOffset=0mil|HoleType=Round|Shape=Relief|Width=15mil|Gap=10mil|Entries=4|*
%AMTHD160*
7,0,0,0.10118,0.08118,0.01500,45*
%
%ADD160THD160*%
%ADD161C,0.06984*%
D101*
X93696Y153400D02*
X101000D01*
X88576D02*
X93696D01*
X101000D02*
X124500Y176900D01*
X19500Y116900D02*
X70300D01*
X115100Y161700D01*
X142000D01*
X153500Y150200D01*
Y83800D02*
Y150200D01*
Y83800D02*
X164000Y73300D01*
X227400D01*
X264500Y36200D01*
Y25000D02*
Y36200D01*
X262700Y23200D02*
X264500Y25000D01*
X252600Y23200D02*
X262700D01*
X230700Y45100D02*
X252600Y23200D01*
X84500Y45100D02*
X230700D01*
X52900D02*
X84500D01*
X46200Y51800D02*
X52900Y45100D01*
X46200Y51800D02*
Y89500D01*
X41200Y94500D02*
X46200Y89500D01*
X20600Y94500D02*
X41200D01*
X14600Y100500D02*
X20600Y94500D01*
X14600Y100500D02*
Y112000D01*
X19500Y116900D01*
X290333Y406D02*
Y115402D01*
X291146Y-0D02*
Y115402D01*
X288752Y45D02*
Y116615D01*
X180386Y176900D02*
X204914Y203914D01*
X221400Y220400D01*
X256625D01*
X279875Y243650D01*
Y258025D01*
X275000Y262900D02*
X279875Y258025D01*
X264800Y262900D02*
X275000D01*
X97769Y186169D02*
X108300Y196700D01*
X179776D01*
X207434Y224358D01*
Y257934D01*
X213000Y263500D01*
X224900D01*
X229875Y258525D01*
Y243256D02*
Y258525D01*
Y243256D02*
X232237Y240894D01*
X256394D01*
X260300Y244800D01*
Y258400D01*
X264800Y262900D01*
X124500Y176900D02*
X180386D01*
X57920Y153400D02*
X88576D01*
X49560Y161760D02*
X57920Y153400D01*
X53103Y186169D02*
X97769D01*
X49560Y161760D02*
Y182626D01*
X53103Y186169D01*
D111*
X366597Y0D02*
Y115402D01*
X-0Y0D02*
X366597Y0D01*
X0Y361450D02*
X288728D01*
X288752Y361290D01*
X288752Y115402D01*
X366597Y115402D01*
X-0Y0D02*
X0Y361450D01*
D130*
X89541Y333575D02*
D03*
D131*
X110050Y258400D02*
D03*
D132*
X118964Y20650D02*
D03*
D133*
X298084Y7508D02*
D03*
Y13413D02*
D03*
Y19319D02*
D03*
Y25224D02*
D03*
Y31130D02*
D03*
X280700Y40671D02*
D03*
Y34765D02*
D03*
Y28860D02*
D03*
Y22954D02*
D03*
Y11143D02*
D03*
Y17049D02*
D03*
D134*
X331730Y88527D02*
D03*
Y102670D02*
D03*
X317587D02*
D03*
D136*
X175544Y339141D02*
D03*
X37749D02*
D03*
D137*
X22001Y319141D02*
D03*
Y339141D02*
D03*
X269954Y339928D02*
D03*
X249954D02*
D03*
X198458D02*
D03*
X218458D02*
D03*
D138*
X32828Y284023D02*
D03*
X13143D02*
D03*
X32828Y241700D02*
D03*
X13143D02*
D03*
X267048Y165743D02*
D03*
Y146057D02*
D03*
D141*
X12400Y171800D02*
D03*
X12249Y60900D02*
D03*
D144*
X22395Y128117D02*
D03*
D145*
X90111Y222999D02*
D03*
X129481D02*
D03*
X70426Y301739D02*
D03*
X149167D02*
D03*
X194876Y7009D02*
D03*
X183065D02*
D03*
D146*
X239934Y255146D02*
D03*
Y315146D02*
D03*
X269934Y325146D02*
D03*
Y295146D02*
D03*
X218458D02*
D03*
Y325146D02*
D03*
X188458Y315146D02*
D03*
Y255146D02*
D03*
D148*
X182540Y111840D02*
D03*
X357434Y44366D02*
D03*
X255460Y31253D02*
D03*
X232000Y172800D02*
D03*
X168771Y21229D02*
D03*
X360600Y86300D02*
D03*
X362700Y88300D02*
D03*
X362600Y84400D02*
D03*
X178900Y39400D02*
D03*
X181895Y39363D02*
D03*
X181900Y36400D02*
D03*
X354400Y15000D02*
D03*
X357000D02*
D03*
X332400Y36600D02*
D03*
X335400D02*
D03*
Y39600D02*
D03*
X89718Y163335D02*
D03*
X83418D02*
D03*
X80269D02*
D03*
X177947Y157400D02*
D03*
X173948D02*
D03*
X175947Y153400D02*
D03*
X234400Y144700D02*
D03*
X230448Y184900D02*
D03*
X254400Y56300D02*
D03*
X257400D02*
D03*
X277700Y6100D02*
D03*
X274700D02*
D03*
X280700D02*
D03*
X251400Y56300D02*
D03*
X241800Y101500D02*
D03*
X244800D02*
D03*
X241800Y98500D02*
D03*
X65148Y66100D02*
D03*
X73147Y66000D02*
D03*
X65148Y71400D02*
D03*
X73147D02*
D03*
X69147Y66100D02*
D03*
Y71400D02*
D03*
X133047Y138700D02*
D03*
Y143700D02*
D03*
X127548Y143600D02*
D03*
X86568Y163335D02*
D03*
X71214Y179476D02*
D03*
X67277Y159791D02*
D03*
X63340D02*
D03*
X59403D02*
D03*
X67277Y179476D02*
D03*
X63340D02*
D03*
D149*
X267200Y235300D02*
D03*
X308700Y99200D02*
D03*
X341048Y46408D02*
D03*
X249180Y116100D02*
D03*
X213681Y150719D02*
D03*
X211856Y153700D02*
D03*
X196700Y99807D02*
D03*
X196600Y79000D02*
D03*
X195000Y108600D02*
D03*
X98053Y59895D02*
D03*
X71500Y132300D02*
D03*
X93448Y56600D02*
D03*
X215300Y99600D02*
D03*
X185200Y91000D02*
D03*
X12500Y193100D02*
D03*
X185500Y142000D02*
D03*
X347100Y3400D02*
D03*
X362300Y5400D02*
D03*
X307400Y93100D02*
D03*
X327900Y69700D02*
D03*
X316700Y22400D02*
D03*
X308100Y4700D02*
D03*
X306100Y9600D02*
D03*
X326800Y17400D02*
D03*
X326200Y23700D02*
D03*
X335300Y29000D02*
D03*
X358900Y25400D02*
D03*
Y37400D02*
D03*
X313800Y44200D02*
D03*
X329700Y49300D02*
D03*
X328600Y60800D02*
D03*
X340300Y89100D02*
D03*
X357500Y97300D02*
D03*
X345800Y103400D02*
D03*
X301600Y103900D02*
D03*
X50800Y140600D02*
D03*
X65600Y190300D02*
D03*
X178300Y76100D02*
D03*
X255900Y7900D02*
D03*
X256000Y18100D02*
D03*
X263600Y47200D02*
D03*
X230800Y88300D02*
D03*
X246600Y109000D02*
D03*
X69000Y91800D02*
D03*
X10800Y149500D02*
D03*
X108600Y159000D02*
D03*
X187450Y136250D02*
D03*
X216900Y118700D02*
D03*
X151200Y110900D02*
D03*
X157700Y137100D02*
D03*
X123900Y176300D02*
D03*
X117400Y189100D02*
D03*
X33700Y121000D02*
D03*
X66300Y143700D02*
D03*
X114600Y115200D02*
D03*
X92600Y115400D02*
D03*
X70200Y113900D02*
D03*
X49100Y94800D02*
D03*
X172700Y49400D02*
D03*
X181700Y49600D02*
D03*
X166300Y73300D02*
D03*
X167600Y87100D02*
D03*
X188800Y97400D02*
D03*
X193100Y69400D02*
D03*
X247100Y35000D02*
D03*
X238000Y45300D02*
D03*
X234000Y61600D02*
D03*
X236600Y74200D02*
D03*
X220000Y78300D02*
D03*
X258800Y85100D02*
D03*
X275300Y90000D02*
D03*
X206800Y113200D02*
D03*
X230800Y106700D02*
D03*
X212400Y134100D02*
D03*
X265100Y120300D02*
D03*
X282400Y126100D02*
D03*
X274600Y136600D02*
D03*
X248700Y145300D02*
D03*
X229300Y145400D02*
D03*
X255500Y158400D02*
D03*
X240700Y159300D02*
D03*
X275800Y181700D02*
D03*
X254200Y182400D02*
D03*
X276300Y208000D02*
D03*
X257300Y209100D02*
D03*
X158648Y168600D02*
D03*
X165300Y197700D02*
D03*
X185300Y186600D02*
D03*
X185100Y201700D02*
D03*
X200700Y187000D02*
D03*
X200200Y202200D02*
D03*
X200000Y216800D02*
D03*
X186000Y216900D02*
D03*
X54500Y114900D02*
D03*
Y119900D02*
D03*
Y124850D02*
D03*
X96300Y178511D02*
D03*
X249800Y225000D02*
D03*
X267200Y238300D02*
D03*
X271200Y235300D02*
D03*
X219400Y235400D02*
D03*
X215400D02*
D03*
Y238400D02*
D03*
X173740Y55140D02*
D03*
X182200Y27700D02*
D03*
X185900D02*
D03*
Y30900D02*
D03*
X182300D02*
D03*
X77400Y198700D02*
D03*
X252400Y73800D02*
D03*
X212200Y79000D02*
D03*
X276100Y118170D02*
D03*
X276200Y109970D02*
D03*
D150*
X229785Y32904D02*
D03*
X55147Y108400D02*
D03*
D151*
X227061Y21704D02*
D03*
X212156Y32904D02*
D03*
X200088Y59400D02*
D03*
X200014Y56900D02*
D03*
X215600Y84900D02*
D03*
X255050Y122800D02*
D03*
X256898Y124648D02*
D03*
X172185Y65100D02*
D03*
D152*
X298000Y31300D02*
D03*
D153*
X280450Y14300D02*
D03*
D154*
X231564Y313325D02*
D03*
D155*
X298084Y37036D02*
D03*
D156*
X54920Y176131D02*
D03*
X54769Y65231D02*
D03*
D157*
X30117Y171800D02*
D03*
X29966Y60900D02*
D03*
D158*
X42715Y152902D02*
D03*
X42564Y42002D02*
D03*
D159*
X22395Y108432D02*
D03*
D160*
X269934Y255146D02*
D03*
X218458D02*
D03*
D161*
X115540Y62312D02*
D03*
X118544Y65316D02*
D03*
X121547Y62312D02*
D03*
X118544Y59308D02*
D03*
X124551D02*
D03*
X127555Y62312D02*
D03*
X124551Y65316D02*
D03*
X127555Y56304D02*
D03*
X121547D02*
D03*
X124551Y53300D02*
D03*
X118544D02*
D03*
X115540Y56304D02*
D03*
M02*
