G04*
G04 #@! TF.GenerationSoftware,Altium Limited,Altium Designer,23.4.1 (23)*
G04*
G04 Layer_Physical_Order=1*
G04 Layer_Color=255*
%FSLAX25Y25*%
%MOIN*%
G70*
G04*
G04 #@! TF.SameCoordinates,A51C0158-4689-45C6-BA85-3C71187D63DA*
G04*
G04*
G04 #@! TF.FilePolarity,Positive*
G04*
G01*
G75*
%ADD21C,0.01000*%
%ADD61C,0.08268*%
%ADD64C,0.01968*%
%ADD66R,0.03800X0.03100*%
%ADD67R,0.04331X0.03150*%
%ADD68R,0.01693X0.04921*%
%ADD69R,0.04724X0.01181*%
%ADD70R,0.01181X0.04724*%
%ADD71R,0.17323X0.12992*%
%ADD72R,0.24410X0.15354*%
%ADD73R,0.05118X0.02756*%
%ADD74R,0.03150X0.04331*%
%ADD75R,0.06102X0.02362*%
%ADD76R,0.08500X0.10799*%
%ADD77R,0.05906X0.12598*%
%ADD78R,0.02165X0.04134*%
%ADD79R,0.04331X0.07874*%
%ADD80R,0.05984X0.04724*%
%ADD81R,0.04134X0.02165*%
%ADD82R,0.03100X0.03800*%
%ADD83R,0.07520X0.04095*%
%ADD84R,0.05906X0.03543*%
%ADD85R,0.03543X0.05906*%
%ADD86R,0.04134X0.04134*%
G04:AMPARAMS|DCode=87|XSize=62.99mil|YSize=49.21mil|CornerRadius=0mil|HoleSize=0mil|Usage=FLASHONLY|Rotation=45.000|XOffset=0mil|YOffset=0mil|HoleType=Round|Shape=Rectangle|*
%AMROTATEDRECTD87*
4,1,4,-0.00487,-0.03967,-0.03967,-0.00487,0.00487,0.03967,0.03967,0.00487,-0.00487,-0.03967,0.0*
%
%ADD87ROTATEDRECTD87*%

%ADD88R,0.06299X0.12598*%
%ADD89R,0.04724X0.06299*%
%ADD90R,0.12992X0.06299*%
%ADD91R,0.02756X0.05118*%
%ADD92R,0.02362X0.03150*%
%ADD93R,0.01968X0.03937*%
%ADD94R,0.03937X0.03150*%
%ADD95R,0.02756X0.05906*%
%ADD96R,0.07087X0.07480*%
%ADD97R,0.08268X0.06299*%
%ADD98R,0.01575X0.05315*%
%ADD99R,0.04331X0.02362*%
%ADD100R,0.03150X0.02362*%
%ADD101C,0.02500*%
%ADD102C,0.01200*%
%ADD103C,0.01100*%
%ADD104C,0.02000*%
%ADD105C,0.03000*%
%ADD106C,0.07000*%
%ADD107C,0.01500*%
%ADD108C,0.03500*%
%ADD109C,0.01470*%
%ADD110C,0.04500*%
%ADD111C,0.04000*%
%ADD112C,0.06000*%
%ADD113O,0.05906X0.03937*%
%ADD114C,0.03937*%
%ADD115C,0.06201*%
%ADD116C,0.11811*%
%ADD117R,0.03937X0.03937*%
%ADD118O,0.07087X0.14173*%
%ADD119O,0.07874X0.15748*%
%ADD120O,0.15748X0.07874*%
%ADD121C,0.07874*%
%ADD122C,0.05906*%
%ADD123C,0.01575*%
%ADD124R,0.03937X0.03937*%
%ADD125C,0.02362*%
%ADD126C,0.01772*%
G36*
X274068Y256858D02*
Y253433D01*
X271646Y251012D01*
X255488D01*
X253176Y248700D01*
X253176Y244179D01*
X252601Y243604D01*
X249294Y243604D01*
X248729Y244169D01*
X248729Y255153D01*
X252856Y259280D01*
X271646D01*
X274068Y256858D01*
D02*
G37*
G36*
X222592D02*
Y253433D01*
X220170Y251012D01*
X204012D01*
X201700Y248700D01*
X201700Y244179D01*
X201125Y243604D01*
X197817Y243604D01*
X197253Y244169D01*
X197253Y255153D01*
X201380Y259280D01*
X220170D01*
X222592Y256858D01*
D02*
G37*
G36*
X279780Y247739D02*
Y243986D01*
X279081Y243287D01*
X265054D01*
X264459Y243882D01*
Y248077D01*
X264856Y248474D01*
X279044D01*
X279780Y247739D01*
D02*
G37*
G36*
X227980D02*
Y243986D01*
X227281Y243287D01*
X213254D01*
X212659Y243882D01*
Y248077D01*
X213056Y248474D01*
X227244D01*
X227980Y247739D01*
D02*
G37*
G36*
X244092Y256739D02*
Y253433D01*
X244092Y246008D01*
X248500Y241600D01*
X255094D01*
X257429Y243934D01*
X257429Y247797D01*
X257743Y248111D01*
X260669D01*
X261063Y247716D01*
X261063Y243951D01*
X257012Y239900D01*
X241998D01*
X235824Y246074D01*
Y256862D01*
X238241Y259280D01*
X241551D01*
X244092Y256739D01*
D02*
G37*
G36*
X192592D02*
Y253433D01*
X192592Y246008D01*
X197000Y241600D01*
X203594D01*
X205271Y243277D01*
X205271Y247608D01*
X205943Y248280D01*
X208532D01*
X209148Y247664D01*
X209148Y244004D01*
X205044Y239900D01*
X190498D01*
X184324Y246074D01*
Y256862D01*
X186741Y259280D01*
X190051D01*
X192592Y256739D01*
D02*
G37*
G36*
X17000Y286300D02*
Y239700D01*
X14800Y237500D01*
X11400Y237500D01*
X9300Y239600D01*
X9300Y286500D01*
X10900Y288100D01*
X15200Y288100D01*
X17000Y286300D01*
D02*
G37*
G36*
X223100Y241519D02*
X223100Y235500D01*
X221200Y233600D01*
X208200D01*
X207600Y234200D01*
Y240000D01*
X209900Y242300D01*
X222320D01*
X223100Y241519D01*
D02*
G37*
G36*
X274900Y241420D02*
X274900Y235400D01*
X273000Y233500D01*
X260000D01*
X259400Y234100D01*
Y239900D01*
X261700Y242200D01*
X274119D01*
X274900Y241420D01*
D02*
G37*
G36*
X274047Y230938D02*
X263588Y220478D01*
X227226D01*
Y231400D01*
X273856D01*
X274047Y230938D01*
D02*
G37*
G36*
X287325Y227813D02*
Y159539D01*
X286825Y159490D01*
X286754Y159844D01*
X286390Y160390D01*
X279847Y166932D01*
X279301Y167297D01*
X278658Y167425D01*
X269916D01*
Y168611D01*
X264179D01*
Y167637D01*
X243000D01*
X242259Y167490D01*
X242248Y167483D01*
X240233D01*
Y163917D01*
X242248D01*
X242259Y163910D01*
X243000Y163763D01*
X264179D01*
Y162874D01*
X269916D01*
Y164060D01*
X277961D01*
X283518Y158503D01*
Y128448D01*
X283150Y128202D01*
Y126100D01*
Y123998D01*
X283518Y123752D01*
Y82017D01*
X283281Y81615D01*
X283018Y81615D01*
X281600D01*
Y79040D01*
Y76465D01*
X283018D01*
X283281Y76465D01*
X283518Y76063D01*
Y74713D01*
X277782D01*
Y76765D01*
X277981D01*
Y81315D01*
X274219D01*
Y76765D01*
X272981D01*
Y81315D01*
X269219D01*
Y79361D01*
X269211Y79349D01*
X269083Y78706D01*
Y76439D01*
X269081D01*
Y71102D01*
X268119D01*
Y76439D01*
X268117D01*
Y78706D01*
X268117Y78706D01*
X267989Y79349D01*
X267981Y79361D01*
Y81315D01*
X264219D01*
Y76765D01*
X264386D01*
X264750Y76439D01*
Y72394D01*
X264288Y72202D01*
X250245Y86245D01*
X249766Y86566D01*
X249200Y86678D01*
X232916D01*
X232696Y87178D01*
X232850Y87550D01*
X230800D01*
Y89050D01*
X232850D01*
X232649Y89535D01*
X232243Y89942D01*
X232450Y90442D01*
X235600D01*
Y92820D01*
Y95198D01*
X229600D01*
Y92820D01*
X229100D01*
Y92320D01*
X225541D01*
Y91403D01*
X225079Y91212D01*
X222778Y93512D01*
Y97971D01*
X223240Y98162D01*
X225051Y96351D01*
X225349Y96152D01*
X225700Y96082D01*
X267382D01*
X267734Y96152D01*
X268031Y96351D01*
X268230Y96649D01*
X268300Y97000D01*
Y97725D01*
X268230Y98076D01*
X268031Y98374D01*
X268018Y98383D01*
Y101535D01*
X268518Y101912D01*
X268645Y101892D01*
X268714Y101896D01*
X268781Y101882D01*
X269219D01*
Y98025D01*
X272981D01*
Y102575D01*
X272796D01*
X272605Y103037D01*
X272658Y103090D01*
X272857Y103387D01*
X272926Y103738D01*
Y115310D01*
X272857Y115662D01*
X272658Y115959D01*
X272400Y116217D01*
Y116220D01*
X272397D01*
X271958Y116659D01*
X271660Y116858D01*
X271309Y116928D01*
X268390D01*
X268039Y116858D01*
X267741Y116659D01*
X267302Y116220D01*
X267200D01*
Y116118D01*
X266734Y115651D01*
X266535Y115354D01*
X266465Y115003D01*
Y107062D01*
X264225Y104822D01*
X232714D01*
X232507Y105322D01*
X232649Y105464D01*
X232850Y105950D01*
X228750D01*
X228951Y105464D01*
X229093Y105322D01*
X228886Y104822D01*
X223997D01*
Y108629D01*
X223928Y108980D01*
X223780Y109201D01*
Y109329D01*
X223652D01*
X223431Y109477D01*
X223080Y109547D01*
X222111D01*
Y109629D01*
X221271D01*
Y109329D01*
X221199D01*
Y109201D01*
X221051Y108980D01*
X220981Y108629D01*
Y106267D01*
X220031D01*
X219918Y106833D01*
X219843Y106945D01*
Y109329D01*
X219771D01*
Y109629D01*
X218930D01*
Y109329D01*
X199545D01*
Y106855D01*
X199517Y106813D01*
X199408Y106267D01*
Y102827D01*
X198015Y101434D01*
X197879Y101571D01*
X197114Y101888D01*
X196286D01*
X195521Y101571D01*
X194936Y100986D01*
X194619Y100221D01*
Y99393D01*
X194936Y98628D01*
X195521Y98042D01*
X196286Y97725D01*
X196673D01*
X196830Y97311D01*
X196835Y97225D01*
X195555Y95945D01*
X195234Y95466D01*
X195122Y94900D01*
Y93750D01*
X194350D01*
Y88550D01*
X198850D01*
Y88550D01*
X199250D01*
Y88550D01*
X203750D01*
Y93750D01*
X203029D01*
Y94567D01*
X204509Y96046D01*
X204971Y95854D01*
Y93750D01*
X204250D01*
Y88550D01*
X208750D01*
Y93750D01*
X208029D01*
Y96867D01*
X208738Y97575D01*
X209200Y97384D01*
Y96722D01*
X209312Y96156D01*
X209633Y95676D01*
X210180Y95129D01*
Y93709D01*
X209408D01*
Y88509D01*
X213909D01*
Y93594D01*
X214344Y93865D01*
X216122Y92088D01*
Y90900D01*
X216234Y90334D01*
X216555Y89855D01*
X226043Y80366D01*
X226523Y80046D01*
X227088Y79933D01*
X244176D01*
X250319Y73790D01*
Y73386D01*
X250636Y72621D01*
X251221Y72036D01*
X251986Y71719D01*
X252814D01*
X253579Y72036D01*
X254164Y72621D01*
X254481Y73386D01*
Y74214D01*
X254383Y74452D01*
X254806Y74735D01*
X259668Y69874D01*
X259476Y69412D01*
X257001Y69412D01*
X256824Y69376D01*
X256652Y69343D01*
X256651Y69342D01*
X256650Y69342D01*
X256503Y69243D01*
X256354Y69144D01*
X255571Y68364D01*
X255112Y68554D01*
Y68554D01*
X249912D01*
Y67731D01*
X246717D01*
Y68185D01*
X242167D01*
Y64423D01*
X246717D01*
Y64877D01*
X249912D01*
Y64054D01*
X253844D01*
X254178Y63554D01*
X254177Y63552D01*
X249884D01*
Y62729D01*
X247528D01*
X247517Y62731D01*
X247517Y62731D01*
X246717D01*
Y63185D01*
X242167D01*
Y59423D01*
X246717D01*
Y59877D01*
X247508D01*
X247519Y59874D01*
X247519Y59874D01*
X249884D01*
Y59052D01*
X250054D01*
X250205Y58552D01*
X250051Y58449D01*
X247179Y55576D01*
X246717Y55768D01*
Y58185D01*
X242167D01*
Y54423D01*
X243294D01*
X243343Y53923D01*
X243047Y53864D01*
X242750Y53665D01*
X242269Y53185D01*
X242167D01*
Y53083D01*
X241813Y52729D01*
X241614Y52431D01*
X241545Y52080D01*
Y50528D01*
X241614Y50177D01*
X241813Y49879D01*
X242167Y49525D01*
Y49423D01*
X242269D01*
X242838Y48855D01*
X243136Y48656D01*
X243487Y48586D01*
X261272D01*
X261607Y48136D01*
X261612Y48100D01*
X261550Y47950D01*
X265650D01*
X265449Y48436D01*
X264836Y49049D01*
X264034Y49381D01*
X263394D01*
X263112Y49859D01*
X263148Y49912D01*
X263218Y50263D01*
Y65671D01*
X263680Y65862D01*
X273422Y56120D01*
Y27770D01*
X273534Y27204D01*
X273855Y26725D01*
X276916Y23663D01*
X276822Y22954D01*
X276921Y22206D01*
X277210Y21508D01*
X277670Y20909D01*
X278269Y20449D01*
X278565Y20326D01*
X278565Y19785D01*
X278219Y19642D01*
X277599Y19166D01*
X277123Y18546D01*
X276824Y17824D01*
X276787Y17549D01*
X280700D01*
X284613D01*
X284576Y17824D01*
X284277Y18546D01*
X283801Y19166D01*
X283646Y19285D01*
X283816Y19785D01*
X287400D01*
Y1427D01*
X256973D01*
X253500Y4900D01*
Y6688D01*
X254000Y6787D01*
X254051Y6664D01*
X254664Y6051D01*
X255150Y5850D01*
Y7900D01*
Y9950D01*
X254664Y9749D01*
X254051Y9136D01*
X254000Y9013D01*
X253500Y9112D01*
Y17130D01*
X254000Y17229D01*
X254151Y16864D01*
X254765Y16251D01*
X255250Y16050D01*
Y18100D01*
Y20150D01*
X254765Y19949D01*
X254151Y19335D01*
X254000Y18971D01*
X253500Y19071D01*
Y21200D01*
X233300Y41400D01*
X214141D01*
X214100Y41500D01*
Y55600D01*
X205500Y64200D01*
X199100D01*
X196000Y61100D01*
Y53044D01*
X195538Y52853D01*
X186678Y61712D01*
Y89535D01*
X186964Y89821D01*
X187281Y90586D01*
Y91414D01*
X186964Y92179D01*
X186379Y92764D01*
X185614Y93081D01*
X184786D01*
X184021Y92764D01*
X183436Y92179D01*
X183119Y91414D01*
Y90586D01*
X183436Y89821D01*
X183722Y89535D01*
Y61100D01*
X183834Y60534D01*
X184155Y60055D01*
X196757Y47452D01*
Y41400D01*
X184658D01*
X184648Y41451D01*
X184573Y41563D01*
X184449Y41749D01*
X183749Y42449D01*
X183451Y42648D01*
X183100Y42718D01*
X177000D01*
X176649Y42648D01*
X176351Y42449D01*
X175455Y41553D01*
X175353Y41400D01*
X170465D01*
Y46950D01*
X170395Y47301D01*
X170247Y47522D01*
Y47650D01*
X170145D01*
X169666Y48129D01*
X169369Y48328D01*
X169018Y48398D01*
X166278D01*
X165926Y48328D01*
X165629Y48129D01*
X165150Y47650D01*
X165048D01*
Y47528D01*
X164888Y47289D01*
X164818Y46938D01*
Y41400D01*
X162775D01*
Y43150D01*
X163947D01*
Y47650D01*
X162775D01*
Y49125D01*
X164213D01*
Y53675D01*
X158482D01*
Y49125D01*
X159920D01*
Y47650D01*
X158747D01*
Y43150D01*
X159920D01*
Y41939D01*
X159819Y41838D01*
X156972D01*
Y42882D01*
X156972D01*
Y42939D01*
X156972D01*
Y47882D01*
X156972D01*
Y47939D01*
X156972D01*
Y52882D01*
X156972D01*
Y52939D01*
X156972D01*
Y57882D01*
X156972D01*
Y57939D01*
X156972D01*
Y62882D01*
X156972D01*
Y62939D01*
X156972D01*
Y67882D01*
X156972D01*
Y67939D01*
X156972D01*
Y72882D01*
X156972D01*
Y72939D01*
X156972D01*
Y77882D01*
X156972D01*
Y77939D01*
X156972D01*
Y82882D01*
X156972D01*
Y82939D01*
X156972D01*
Y87882D01*
X156972D01*
Y87939D01*
X156972D01*
Y92882D01*
X156972D01*
Y92939D01*
X156972D01*
Y97882D01*
X155572D01*
X150170Y103284D01*
X144142D01*
Y104284D01*
X138599D01*
Y103984D01*
X133899D01*
Y103984D01*
X133842D01*
Y103984D01*
X128899D01*
Y103984D01*
X128842D01*
Y103984D01*
X123899D01*
Y103984D01*
X123842D01*
Y103984D01*
X118899D01*
Y103984D01*
X118842D01*
Y103984D01*
X113899D01*
Y103984D01*
X113842D01*
Y103984D01*
X108899D01*
Y103984D01*
X108842D01*
Y103984D01*
X103899D01*
Y103984D01*
X103842D01*
Y103984D01*
X98899D01*
X98842Y104063D01*
Y104063D01*
X93899D01*
Y103284D01*
X87571D01*
X82169Y97882D01*
X80769D01*
Y92939D01*
X80769D01*
Y92882D01*
X80769D01*
Y87939D01*
X80769D01*
Y87882D01*
X80769D01*
Y82939D01*
X80769D01*
Y82882D01*
X80769D01*
Y77939D01*
X80769D01*
Y77882D01*
X80769D01*
Y75941D01*
X80269Y75748D01*
X78043Y77974D01*
X77745Y78173D01*
X77394Y78243D01*
X53772D01*
X53421Y78173D01*
X53123Y77974D01*
X48399Y73250D01*
X48200Y72952D01*
X48130Y72601D01*
Y51341D01*
X48200Y50990D01*
X48399Y50692D01*
X55092Y43999D01*
X55389Y43800D01*
X55740Y43730D01*
X73851D01*
X74202Y43800D01*
X74499Y43999D01*
X80269Y49768D01*
X80769Y49576D01*
Y47939D01*
X80769D01*
Y47882D01*
X80769D01*
Y42939D01*
X80769D01*
Y42882D01*
X80769D01*
Y41400D01*
X68400D01*
X49846Y22846D01*
X9154D01*
X3800Y28200D01*
X3800Y200601D01*
X9099Y205900D01*
X13668D01*
X14156Y205871D01*
X14156Y205400D01*
Y197944D01*
X27361D01*
X40565D01*
Y205400D01*
X40565Y205871D01*
X41053Y205900D01*
X132524D01*
X133311Y205113D01*
Y198590D01*
X133462Y197441D01*
X133906Y196371D01*
X134057Y196174D01*
Y195527D01*
X134553D01*
X134611Y195451D01*
X135530Y194746D01*
X136600Y194303D01*
X137749Y194152D01*
X138898Y194303D01*
X139968Y194746D01*
X140887Y195451D01*
X140945Y195527D01*
X141441D01*
Y196174D01*
X141593Y196371D01*
X142036Y197441D01*
X142187Y198590D01*
Y205900D01*
X144762D01*
Y195662D01*
X134611Y185511D01*
X133906Y184592D01*
X133462Y183522D01*
X133311Y182373D01*
Y178511D01*
X133462Y177362D01*
X133906Y176292D01*
X134057Y176095D01*
Y175449D01*
X134553D01*
X134611Y175373D01*
X135530Y174668D01*
X136600Y174224D01*
X137749Y174073D01*
X138898Y174224D01*
X139968Y174668D01*
X140887Y175373D01*
X140945Y175449D01*
X141441D01*
Y176095D01*
X141593Y176292D01*
X142036Y177362D01*
X142187Y178511D01*
Y180535D01*
X152338Y190686D01*
X153043Y191605D01*
X153487Y192675D01*
X153638Y193824D01*
Y205900D01*
X173400D01*
X179000Y211500D01*
Y226000D01*
X184400Y231400D01*
X224269D01*
Y220958D01*
X215454Y212142D01*
X215133Y211663D01*
X215021Y211097D01*
Y153102D01*
X214592Y152786D01*
X214204Y152886D01*
X213937Y153286D01*
Y154114D01*
X213620Y154879D01*
X213035Y155464D01*
X212270Y155781D01*
X211442D01*
X210677Y155464D01*
X210091Y154879D01*
X209775Y154114D01*
Y153638D01*
X209669Y153532D01*
X209360Y153069D01*
X209251Y152523D01*
X209251Y152522D01*
Y147468D01*
X208751Y147201D01*
X208665Y147258D01*
Y156150D01*
X209487D01*
Y161350D01*
X204987D01*
Y156150D01*
X205810D01*
Y146302D01*
X205810Y146302D01*
X205919Y145755D01*
X206228Y145292D01*
X207282Y144238D01*
Y142794D01*
X204395D01*
Y143094D01*
X202344D01*
Y143921D01*
X202274Y144272D01*
X202075Y144570D01*
X200396Y146249D01*
X200099Y146448D01*
X199748Y146518D01*
X198528D01*
X197465Y147580D01*
Y163500D01*
X197395Y163851D01*
X197196Y164149D01*
X193896Y167449D01*
X193599Y167648D01*
X193247Y167718D01*
X188488D01*
X188306Y168143D01*
X188306Y168218D01*
Y170020D01*
X184748D01*
X181188D01*
Y168218D01*
X181188Y168143D01*
X181041Y167797D01*
X180672Y167778D01*
X180306Y168170D01*
Y169980D01*
X176748D01*
X173188D01*
Y168218D01*
X173188Y168102D01*
X172910Y167718D01*
X171586D01*
X171235Y167648D01*
X170937Y167449D01*
X163684Y160196D01*
X163586Y160050D01*
X163488Y159904D01*
X163487Y159901D01*
X163486Y159899D01*
X163451Y159725D01*
X163416Y159553D01*
X163374Y152878D01*
X163374Y152877D01*
X163374Y152875D01*
X163408Y152702D01*
X163441Y152527D01*
X163442Y152525D01*
X163442Y152524D01*
X163541Y152375D01*
X163638Y152228D01*
X163640Y152227D01*
X163640Y152226D01*
X164706Y151153D01*
X164707Y151152D01*
X164708Y151151D01*
X164855Y151053D01*
X165003Y150953D01*
X165005Y150953D01*
X165006Y150952D01*
X165181Y150917D01*
X165354Y150882D01*
X165356Y150883D01*
X165357Y150882D01*
X171547D01*
X179048Y150882D01*
X179399Y150952D01*
X179696Y151151D01*
X181596Y153051D01*
X181795Y153349D01*
X181865Y153700D01*
X181865Y158682D01*
X183374Y158682D01*
Y156276D01*
X188130D01*
Y158682D01*
X189067D01*
X189730Y158020D01*
Y144900D01*
X189800Y144549D01*
X189999Y144251D01*
X191299Y142951D01*
X191596Y142752D01*
X191947Y142682D01*
X198359D01*
X199328Y141714D01*
Y137369D01*
X199397Y137018D01*
X199545Y136797D01*
Y136669D01*
X199673D01*
X199894Y136521D01*
X200245Y136451D01*
X201214D01*
Y136369D01*
X202054D01*
Y136669D01*
X202127D01*
Y136797D01*
X202274Y137018D01*
X202344Y137369D01*
Y139731D01*
X203482D01*
Y136669D01*
X203554D01*
Y136369D01*
X204395D01*
Y136669D01*
X211596D01*
X211696Y136169D01*
X211164Y135949D01*
X210551Y135336D01*
X210350Y134850D01*
X214450D01*
X214249Y135336D01*
X213635Y135949D01*
X213104Y136169D01*
X213204Y136669D01*
X221388D01*
X221656Y136169D01*
X221534Y135987D01*
X221422Y135422D01*
Y131000D01*
X221534Y130434D01*
X221855Y129955D01*
X222944Y128865D01*
X223424Y128545D01*
X223989Y128432D01*
X225333D01*
Y126630D01*
Y122693D01*
Y118756D01*
Y114819D01*
Y110882D01*
X231457D01*
Y114631D01*
X233901D01*
X233947Y114622D01*
X234748D01*
Y113850D01*
X239948D01*
Y118350D01*
X234748D01*
Y117578D01*
X233985D01*
X233938Y117588D01*
X231457D01*
Y120800D01*
X249300Y120800D01*
X253700Y116400D01*
X258100D01*
X260700Y119000D01*
Y129400D01*
X256300Y133800D01*
X237100D01*
X234300Y131000D01*
X231757D01*
Y131107D01*
X231457D01*
Y131180D01*
X229084D01*
X228939Y131277D01*
X228395Y131385D01*
Y132321D01*
X228947Y132431D01*
X229103Y132535D01*
X231457D01*
Y132607D01*
X231757D01*
Y133448D01*
X231457D01*
Y135116D01*
X229985D01*
Y137118D01*
X232322D01*
Y135541D01*
X236478D01*
Y142059D01*
X236337D01*
Y143939D01*
X236481Y144286D01*
Y145114D01*
X236164Y145879D01*
X235579Y146464D01*
X234814Y146781D01*
X233986D01*
X233221Y146464D01*
X232636Y145879D01*
X232319Y145114D01*
Y144286D01*
X232463Y143939D01*
Y142059D01*
X232322D01*
Y140482D01*
X229181D01*
X228538Y140354D01*
X227992Y139990D01*
X227278Y139276D01*
X226778Y139483D01*
Y144482D01*
X227278Y144581D01*
X227451Y144165D01*
X228064Y143551D01*
X228550Y143350D01*
Y145400D01*
Y147450D01*
X228064Y147249D01*
X227451Y146635D01*
X227278Y146219D01*
X226778Y146318D01*
Y181975D01*
X230448D01*
X231205Y182075D01*
X231205Y182075D01*
X241289D01*
X241648Y182028D01*
X242405Y182127D01*
X242707Y182253D01*
X246207D01*
Y187747D01*
Y192253D01*
Y197747D01*
X246207D01*
X246207Y197747D01*
Y202253D01*
X246207D01*
X246207D01*
Y207747D01*
Y212253D01*
Y217522D01*
X264200D01*
X264766Y217634D01*
X265245Y217955D01*
X278593Y231302D01*
X278658Y231400D01*
X283737D01*
X287325Y227813D01*
D02*
G37*
G36*
X196547Y163500D02*
Y147200D01*
X198147Y145600D01*
X199748D01*
X201426Y143921D01*
Y137369D01*
X200245D01*
Y142094D01*
X198739Y143600D01*
X191947D01*
X190647Y144900D01*
Y158400D01*
X189447Y159600D01*
X180947Y159600D01*
X180947Y153700D01*
X179048Y151800D01*
X171547Y151800D01*
X165357D01*
X164291Y152872D01*
X164333Y159547D01*
X171586Y166800D01*
X193247D01*
X196547Y163500D01*
D02*
G37*
G36*
X272009Y115310D02*
Y103738D01*
X271070Y102800D01*
X268781Y102800D01*
X268281Y102875D01*
Y102875D01*
X268281Y102875D01*
X267100D01*
Y100300D01*
Y97725D01*
X267382D01*
Y97000D01*
X225700D01*
X222720Y99980D01*
X222666Y100252D01*
X222345Y100732D01*
X221899Y101178D01*
Y108629D01*
X223080D01*
Y103905D01*
X264605D01*
X267382Y106682D01*
Y115003D01*
X268390Y116010D01*
X271309D01*
X272009Y115310D01*
D02*
G37*
G36*
X365170Y111879D02*
Y89082D01*
X364670Y88983D01*
X364464Y89479D01*
X363879Y90064D01*
X363114Y90381D01*
X362286D01*
X361521Y90064D01*
X360936Y89479D01*
X360619Y88714D01*
Y88381D01*
X360186D01*
X359421Y88064D01*
X358836Y87479D01*
X358519Y86714D01*
Y85886D01*
X358836Y85121D01*
X359421Y84536D01*
X360186Y84219D01*
X360519D01*
Y83986D01*
X360836Y83221D01*
X361421Y82636D01*
X362186Y82319D01*
X363014D01*
X363779Y82636D01*
X364364Y83221D01*
X364681Y83986D01*
X365170Y83958D01*
Y2118D01*
X364479Y1428D01*
X348919D01*
X348712Y1928D01*
X348949Y2165D01*
X349150Y2650D01*
X345050D01*
X345251Y2165D01*
X345488Y1928D01*
X345281Y1428D01*
X294290Y1427D01*
X291000Y4717D01*
Y110690D01*
X294285Y113974D01*
X363075Y113974D01*
X365170Y111879D01*
D02*
G37*
G36*
X128400Y69100D02*
X130900Y66600D01*
Y52000D01*
X129075Y50175D01*
X112496D01*
X112300Y50371D01*
Y67100D01*
X114400Y69200D01*
X128400Y69100D01*
D02*
G37*
G36*
X262300Y67282D02*
Y50263D01*
X261540Y49503D01*
X243487D01*
X242462Y50528D01*
Y52080D01*
X243398Y53016D01*
X245916D01*
X250700Y57800D01*
X254933Y57800D01*
X255635Y58503D01*
X255665Y67162D01*
X257001Y68494D01*
X261087Y68494D01*
X262300Y67282D01*
D02*
G37*
G36*
X79756Y74963D02*
Y69058D01*
Y50554D01*
X73851Y44648D01*
X55740D01*
X49047Y51341D01*
Y72601D01*
X53772Y77325D01*
X77394D01*
X79756Y74963D01*
D02*
G37*
G36*
X169547Y46950D02*
Y37504D01*
X175104D01*
X176104Y38504D01*
Y40904D01*
X177000Y41800D01*
X183100D01*
X183800Y41100D01*
X183800Y34168D01*
X183071Y33438D01*
X150567Y33438D01*
X149783Y34222D01*
Y36598D01*
X150689Y37504D01*
X165736D01*
Y46938D01*
X166278Y47480D01*
X169018D01*
X169547Y46950D01*
D02*
G37*
G36*
X187200Y31400D02*
Y26800D01*
X186400Y26000D01*
X186367Y26033D01*
X179042D01*
X150367Y26033D01*
X149323Y27077D01*
Y31139D01*
X150363Y32178D01*
X178656Y32244D01*
X186356D01*
X187200Y31400D01*
D02*
G37*
%LPC*%
G36*
X13643Y286962D02*
Y284523D01*
X16082D01*
X15909Y285169D01*
X15518Y285845D01*
X14965Y286398D01*
X14289Y286789D01*
X13643Y286962D01*
D02*
G37*
G36*
X12643D02*
X11997Y286789D01*
X11320Y286398D01*
X10767Y285845D01*
X10377Y285169D01*
X10204Y284523D01*
X12643D01*
Y286962D01*
D02*
G37*
G36*
X16082Y283523D02*
X13643D01*
Y281083D01*
X14289Y281257D01*
X14965Y281647D01*
X15518Y282200D01*
X15909Y282877D01*
X16082Y283523D01*
D02*
G37*
G36*
X12643D02*
X10204D01*
X10377Y282877D01*
X10767Y282200D01*
X11320Y281647D01*
X11997Y281257D01*
X12643Y281083D01*
Y283523D01*
D02*
G37*
G36*
X13643Y244639D02*
Y242200D01*
X16082D01*
X15909Y242846D01*
X15518Y243523D01*
X14965Y244075D01*
X14289Y244466D01*
X13643Y244639D01*
D02*
G37*
G36*
X12643D02*
X11997Y244466D01*
X11320Y244075D01*
X10767Y243523D01*
X10377Y242846D01*
X10204Y242200D01*
X12643D01*
Y244639D01*
D02*
G37*
G36*
X16082Y241200D02*
X13643D01*
Y238761D01*
X14289Y238934D01*
X14965Y239324D01*
X15518Y239877D01*
X15909Y240554D01*
X16082Y241200D01*
D02*
G37*
G36*
X12643D02*
X10204D01*
X10377Y240554D01*
X10767Y239877D01*
X11320Y239324D01*
X11997Y238934D01*
X12643Y238761D01*
Y241200D01*
D02*
G37*
G36*
X240998Y228047D02*
X236988D01*
Y225750D01*
X240998D01*
Y228047D01*
D02*
G37*
G36*
X246507D02*
X242497D01*
Y225000D01*
Y221953D01*
X246507D01*
Y222075D01*
X249800D01*
X250557Y222175D01*
X251262Y222467D01*
X251868Y222932D01*
X252333Y223537D01*
X252625Y224243D01*
X252725Y225000D01*
X252625Y225757D01*
X252333Y226463D01*
X251868Y227068D01*
X251262Y227533D01*
X250557Y227825D01*
X249800Y227925D01*
X246507D01*
Y228047D01*
D02*
G37*
G36*
X240998Y224250D02*
X236988D01*
Y221953D01*
X240998D01*
Y224250D01*
D02*
G37*
G36*
X186750Y218950D02*
Y217650D01*
X188050D01*
X187849Y218135D01*
X187235Y218749D01*
X186750Y218950D01*
D02*
G37*
G36*
X185250D02*
X184765Y218749D01*
X184151Y218135D01*
X183950Y217650D01*
X185250D01*
Y218950D01*
D02*
G37*
G36*
X200750Y218850D02*
Y217550D01*
X202050D01*
X201849Y218036D01*
X201236Y218649D01*
X200750Y218850D01*
D02*
G37*
G36*
X199250D02*
X198765Y218649D01*
X198151Y218036D01*
X197950Y217550D01*
X199250D01*
Y218850D01*
D02*
G37*
G36*
X188050Y216150D02*
X186750D01*
Y214850D01*
X187235Y215051D01*
X187849Y215665D01*
X188050Y216150D01*
D02*
G37*
G36*
X185250D02*
X183950D01*
X184151Y215665D01*
X184765Y215051D01*
X185250Y214850D01*
Y216150D01*
D02*
G37*
G36*
X202050Y216050D02*
X200750D01*
Y214750D01*
X201236Y214951D01*
X201849Y215564D01*
X202050Y216050D01*
D02*
G37*
G36*
X199250D02*
X197950D01*
X198151Y215564D01*
X198765Y214951D01*
X199250Y214750D01*
Y216050D01*
D02*
G37*
G36*
X258050Y211150D02*
Y209850D01*
X259350D01*
X259149Y210335D01*
X258536Y210949D01*
X258050Y211150D01*
D02*
G37*
G36*
X256550D02*
X256065Y210949D01*
X255451Y210335D01*
X255250Y209850D01*
X256550D01*
Y211150D01*
D02*
G37*
G36*
X277050Y210050D02*
Y208750D01*
X278350D01*
X278149Y209236D01*
X277536Y209849D01*
X277050Y210050D01*
D02*
G37*
G36*
X275550D02*
X275064Y209849D01*
X274451Y209236D01*
X274250Y208750D01*
X275550D01*
Y210050D01*
D02*
G37*
G36*
X259350Y208350D02*
X258050D01*
Y207050D01*
X258536Y207251D01*
X259149Y207864D01*
X259350Y208350D01*
D02*
G37*
G36*
X256550D02*
X255250D01*
X255451Y207864D01*
X256065Y207251D01*
X256550Y207050D01*
Y208350D01*
D02*
G37*
G36*
X278350Y207250D02*
X277050D01*
Y205950D01*
X277536Y206151D01*
X278149Y206765D01*
X278350Y207250D01*
D02*
G37*
G36*
X275550D02*
X274250D01*
X274451Y206765D01*
X275064Y206151D01*
X275550Y205950D01*
Y207250D01*
D02*
G37*
G36*
X200950Y204250D02*
Y202950D01*
X202250D01*
X202049Y203435D01*
X201435Y204049D01*
X200950Y204250D01*
D02*
G37*
G36*
X199450D02*
X198965Y204049D01*
X198351Y203435D01*
X198150Y202950D01*
X199450D01*
Y204250D01*
D02*
G37*
G36*
X185850Y203750D02*
Y202450D01*
X187150D01*
X186949Y202936D01*
X186336Y203549D01*
X185850Y203750D01*
D02*
G37*
G36*
X184350D02*
X183864Y203549D01*
X183251Y202936D01*
X183050Y202450D01*
X184350D01*
Y203750D01*
D02*
G37*
G36*
X85103Y203208D02*
X79372D01*
Y200508D01*
X78813D01*
X78512Y200568D01*
X78329D01*
X77814Y200781D01*
X76986D01*
X76221Y200464D01*
X75636Y199879D01*
X75319Y199114D01*
Y198286D01*
X75636Y197521D01*
X76221Y196936D01*
X76986Y196619D01*
X77814D01*
X77994Y196694D01*
X78271D01*
X78572Y196634D01*
X79372D01*
Y193934D01*
X80300D01*
Y193134D01*
X80300Y193133D01*
Y188353D01*
X80448Y187612D01*
X80455Y187601D01*
Y185587D01*
X84020D01*
Y187601D01*
X84027Y187612D01*
X84175Y188353D01*
Y193134D01*
X84175Y193134D01*
Y193934D01*
X85103D01*
Y203208D01*
D02*
G37*
G36*
X202250Y201450D02*
X200950D01*
Y200150D01*
X201435Y200351D01*
X202049Y200964D01*
X202250Y201450D01*
D02*
G37*
G36*
X199450D02*
X198150D01*
X198351Y200964D01*
X198965Y200351D01*
X199450Y200150D01*
Y201450D01*
D02*
G37*
G36*
X187150Y200950D02*
X185850D01*
Y199650D01*
X186336Y199851D01*
X186949Y200465D01*
X187150Y200950D01*
D02*
G37*
G36*
X184350D02*
X183050D01*
X183251Y200465D01*
X183864Y199851D01*
X184350Y199650D01*
Y200950D01*
D02*
G37*
G36*
X166050Y199750D02*
Y198450D01*
X167350D01*
X167149Y198935D01*
X166535Y199549D01*
X166050Y199750D01*
D02*
G37*
G36*
X164550D02*
X164065Y199549D01*
X163451Y198935D01*
X163250Y198450D01*
X164550D01*
Y199750D01*
D02*
G37*
G36*
X167350Y196950D02*
X166050D01*
Y195650D01*
X166535Y195851D01*
X167149Y196465D01*
X167350Y196950D01*
D02*
G37*
G36*
X164550D02*
X163250D01*
X163451Y196465D01*
X164065Y195851D01*
X164550Y195650D01*
Y196950D01*
D02*
G37*
G36*
X26611Y196444D02*
X14156D01*
Y195182D01*
X13656Y194982D01*
X13250Y195150D01*
Y193100D01*
Y191050D01*
X13656Y191218D01*
X14156Y191018D01*
Y188516D01*
X26611D01*
Y196444D01*
D02*
G37*
G36*
X11750Y195150D02*
X11265Y194949D01*
X10651Y194335D01*
X10450Y193850D01*
X11750D01*
Y195150D01*
D02*
G37*
G36*
X104777Y205197D02*
X90505Y205197D01*
X90154Y205127D01*
X89856Y204928D01*
X87986Y203058D01*
X87787Y202761D01*
X87717Y202410D01*
Y194732D01*
X87787Y194381D01*
X87986Y194083D01*
X90151Y191918D01*
X90449Y191719D01*
X90800Y191649D01*
X104875Y191649D01*
X105226Y191719D01*
X105524Y191918D01*
X107394Y193788D01*
X107593Y194086D01*
X107663Y194437D01*
Y202311D01*
X107593Y202662D01*
X107394Y202960D01*
X105426Y204928D01*
X105128Y205127D01*
X104777Y205197D01*
D02*
G37*
G36*
X66350Y192350D02*
Y191050D01*
X67650D01*
X67449Y191535D01*
X66835Y192149D01*
X66350Y192350D01*
D02*
G37*
G36*
X64850D02*
X64364Y192149D01*
X63751Y191535D01*
X63550Y191050D01*
X64850D01*
Y192350D01*
D02*
G37*
G36*
X11750Y192350D02*
X10450D01*
X10651Y191865D01*
X11265Y191251D01*
X11750Y191050D01*
Y192350D01*
D02*
G37*
G36*
X118150Y191150D02*
Y189850D01*
X119450D01*
X119249Y190336D01*
X118635Y190949D01*
X118150Y191150D01*
D02*
G37*
G36*
X116650D02*
X116165Y190949D01*
X115551Y190336D01*
X115350Y189850D01*
X116650D01*
Y191150D01*
D02*
G37*
G36*
X40565Y196444D02*
X28111D01*
Y188516D01*
X40565D01*
Y196444D01*
D02*
G37*
G36*
X67650Y189550D02*
X66350D01*
Y188250D01*
X66835Y188451D01*
X67449Y189065D01*
X67650Y189550D01*
D02*
G37*
G36*
X64850D02*
X63550D01*
X63751Y189065D01*
X64364Y188451D01*
X64850Y188250D01*
Y189550D01*
D02*
G37*
G36*
X201450Y189050D02*
Y187750D01*
X202750D01*
X202549Y188235D01*
X201936Y188849D01*
X201450Y189050D01*
D02*
G37*
G36*
X199950D02*
X199464Y188849D01*
X198851Y188235D01*
X198650Y187750D01*
X199950D01*
Y189050D01*
D02*
G37*
G36*
X186050Y188650D02*
Y187350D01*
X187350D01*
X187149Y187836D01*
X186536Y188449D01*
X186050Y188650D01*
D02*
G37*
G36*
X184550D02*
X184064Y188449D01*
X183451Y187836D01*
X183250Y187350D01*
X184550D01*
Y188650D01*
D02*
G37*
G36*
X119450Y188350D02*
X118150D01*
Y187050D01*
X118635Y187251D01*
X119249Y187864D01*
X119450Y188350D01*
D02*
G37*
G36*
X116650D02*
X115350D01*
X115551Y187864D01*
X116165Y187251D01*
X116650Y187050D01*
Y188350D01*
D02*
G37*
G36*
X202750Y186250D02*
X201450D01*
Y184950D01*
X201936Y185151D01*
X202549Y185765D01*
X202750Y186250D01*
D02*
G37*
G36*
X199950D02*
X198650D01*
X198851Y185765D01*
X199464Y185151D01*
X199950Y184950D01*
Y186250D01*
D02*
G37*
G36*
X187350Y185850D02*
X186050D01*
Y184550D01*
X186536Y184751D01*
X187149Y185364D01*
X187350Y185850D01*
D02*
G37*
G36*
X184550D02*
X183250D01*
X183451Y185364D01*
X184064Y184751D01*
X184550Y184550D01*
Y185850D01*
D02*
G37*
G36*
X254950Y184450D02*
Y183150D01*
X256250D01*
X256049Y183635D01*
X255435Y184249D01*
X254950Y184450D01*
D02*
G37*
G36*
X253450D02*
X252964Y184249D01*
X252351Y183635D01*
X252150Y183150D01*
X253450D01*
Y184450D01*
D02*
G37*
G36*
X276550Y183750D02*
Y182450D01*
X277850D01*
X277649Y182936D01*
X277035Y183549D01*
X276550Y183750D01*
D02*
G37*
G36*
X275050D02*
X274565Y183549D01*
X273951Y182936D01*
X273750Y182450D01*
X275050D01*
Y183750D01*
D02*
G37*
G36*
X256250Y181650D02*
X254950D01*
Y180350D01*
X255435Y180551D01*
X256049Y181165D01*
X256250Y181650D01*
D02*
G37*
G36*
X253450D02*
X252150D01*
X252351Y181165D01*
X252964Y180551D01*
X253450Y180350D01*
Y181650D01*
D02*
G37*
G36*
X277850Y180950D02*
X276550D01*
Y179650D01*
X277035Y179851D01*
X277649Y180464D01*
X277850Y180950D01*
D02*
G37*
G36*
X275050D02*
X273750D01*
X273951Y180464D01*
X274565Y179851D01*
X275050Y179650D01*
Y180950D01*
D02*
G37*
G36*
X106308Y181873D02*
X103066D01*
Y179261D01*
X106308D01*
Y181873D01*
D02*
G37*
G36*
X165844Y185048D02*
X151451D01*
Y177349D01*
X165844D01*
Y185048D01*
D02*
G37*
G36*
X124650Y178350D02*
Y177050D01*
X125950D01*
X125749Y177535D01*
X125136Y178149D01*
X124650Y178350D01*
D02*
G37*
G36*
X123150D02*
X122664Y178149D01*
X122051Y177535D01*
X121850Y177050D01*
X123150D01*
Y178350D01*
D02*
G37*
G36*
X106308Y177761D02*
X103066D01*
Y175149D01*
X106308D01*
Y177761D01*
D02*
G37*
G36*
X101566Y181873D02*
X98324D01*
Y181688D01*
X96300D01*
X95478Y181580D01*
X94711Y181262D01*
X94053Y180757D01*
X93549Y180099D01*
X93231Y179333D01*
X93123Y178511D01*
X93231Y177689D01*
X93549Y176922D01*
X94053Y176264D01*
X94711Y175759D01*
X95478Y175442D01*
X96300Y175334D01*
X98324D01*
Y175149D01*
X101566D01*
Y178511D01*
Y181873D01*
D02*
G37*
G36*
X125950Y175550D02*
X124650D01*
Y174250D01*
X125136Y174451D01*
X125749Y175065D01*
X125950Y175550D01*
D02*
G37*
G36*
X123150D02*
X121850D01*
X122051Y175065D01*
X122664Y174451D01*
X123150Y174250D01*
Y175550D01*
D02*
G37*
G36*
X30867Y180618D02*
Y172550D01*
X35096D01*
Y175737D01*
X34927Y177026D01*
X34429Y178227D01*
X33638Y179258D01*
X32606Y180050D01*
X31405Y180547D01*
X30867Y180618D01*
D02*
G37*
G36*
X29366D02*
X28828Y180547D01*
X27627Y180050D01*
X26595Y179258D01*
X25804Y178227D01*
X25307Y177026D01*
X25137Y175737D01*
Y172550D01*
X29366D01*
Y180618D01*
D02*
G37*
G36*
X188306Y172898D02*
X185248D01*
Y171020D01*
X188306D01*
Y172898D01*
D02*
G37*
G36*
X184248D02*
X181188D01*
Y171020D01*
X184248D01*
Y172898D01*
D02*
G37*
G36*
X180306Y172858D02*
X177248D01*
Y170980D01*
X180306D01*
Y172858D01*
D02*
G37*
G36*
X176248D02*
X173188D01*
Y170980D01*
X176248D01*
Y172858D01*
D02*
G37*
G36*
X159397Y170650D02*
Y169350D01*
X160698D01*
X160496Y169835D01*
X159883Y170449D01*
X159397Y170650D01*
D02*
G37*
G36*
X157897D02*
X157412Y170449D01*
X156798Y169835D01*
X156597Y169350D01*
X157897D01*
Y170650D01*
D02*
G37*
G36*
X13063Y176834D02*
X11737D01*
X10457Y176491D01*
X9309Y175828D01*
X8372Y174891D01*
X7709Y173743D01*
X7366Y172463D01*
Y171137D01*
X7709Y169857D01*
X8372Y168709D01*
X9309Y167772D01*
X10457Y167109D01*
X11737Y166766D01*
X13063D01*
X14343Y167109D01*
X15491Y167772D01*
X16428Y168709D01*
X17091Y169857D01*
X17434Y171137D01*
Y172463D01*
X17091Y173743D01*
X16428Y174891D01*
X15491Y175828D01*
X14343Y176491D01*
X13063Y176834D01*
D02*
G37*
G36*
X160698Y167850D02*
X159397D01*
Y166550D01*
X159883Y166751D01*
X160496Y167365D01*
X160698Y167850D01*
D02*
G37*
G36*
X157897D02*
X156597D01*
X156798Y167365D01*
X157412Y166751D01*
X157897Y166550D01*
Y167850D01*
D02*
G37*
G36*
X209787Y167950D02*
X207987D01*
Y165800D01*
X209787D01*
Y167950D01*
D02*
G37*
G36*
X206487D02*
X204687D01*
Y165800D01*
X206487D01*
Y167950D01*
D02*
G37*
G36*
X101343Y169271D02*
X93840D01*
Y165509D01*
X101343D01*
Y169271D01*
D02*
G37*
G36*
X134547Y166716D02*
X131488D01*
Y164838D01*
X134547D01*
Y166716D01*
D02*
G37*
G36*
X142097Y166058D02*
Y163908D01*
X143897D01*
Y166058D01*
X142097D01*
D02*
G37*
G36*
X232414Y174881D02*
X231586D01*
X230821Y174564D01*
X230236Y173979D01*
X229919Y173214D01*
Y172386D01*
X230039Y172096D01*
Y167483D01*
X229209D01*
Y163917D01*
X231224D01*
X231235Y163910D01*
X231976Y163763D01*
X232718Y163910D01*
X232728Y163917D01*
X234743D01*
Y167483D01*
X233914D01*
Y171982D01*
X234081Y172386D01*
Y173214D01*
X233764Y173979D01*
X233179Y174564D01*
X232414Y174881D01*
D02*
G37*
G36*
X101643Y164571D02*
X98342D01*
Y163140D01*
X101643D01*
Y164571D01*
D02*
G37*
G36*
X35096Y171050D02*
X30867D01*
Y162982D01*
X31405Y163053D01*
X32606Y163550D01*
X33638Y164342D01*
X34429Y165373D01*
X34927Y166574D01*
X35096Y167863D01*
Y171050D01*
D02*
G37*
G36*
X29366D02*
X25137D01*
Y167863D01*
X25307Y166574D01*
X25804Y165373D01*
X26595Y164342D01*
X27627Y163550D01*
X28828Y163053D01*
X29366Y162982D01*
Y171050D01*
D02*
G37*
G36*
X209787Y164300D02*
X207987D01*
Y162150D01*
X209787D01*
Y164300D01*
D02*
G37*
G36*
X206487D02*
X204687D01*
Y162150D01*
X206487D01*
Y164300D01*
D02*
G37*
G36*
X134547Y163838D02*
X131488D01*
Y161960D01*
X134547D01*
Y163838D01*
D02*
G37*
G36*
X241450Y161350D02*
Y160050D01*
X242750D01*
X242549Y160536D01*
X241935Y161149D01*
X241450Y161350D01*
D02*
G37*
G36*
X239950D02*
X239464Y161149D01*
X238851Y160536D01*
X238650Y160050D01*
X239950D01*
Y161350D01*
D02*
G37*
G36*
X109350Y161050D02*
Y159750D01*
X110650D01*
X110449Y160236D01*
X109836Y160849D01*
X109350Y161050D01*
D02*
G37*
G36*
X107850D02*
X107364Y160849D01*
X106751Y160236D01*
X106550Y159750D01*
X107850D01*
Y161050D01*
D02*
G37*
G36*
X256250Y160450D02*
Y159150D01*
X257550D01*
X257349Y159635D01*
X256735Y160249D01*
X256250Y160450D01*
D02*
G37*
G36*
X254750D02*
X254264Y160249D01*
X253651Y159635D01*
X253450Y159150D01*
X254750D01*
Y160450D01*
D02*
G37*
G36*
X242750Y158550D02*
X241450D01*
Y157250D01*
X241935Y157451D01*
X242549Y158064D01*
X242750Y158550D01*
D02*
G37*
G36*
X239950D02*
X238650D01*
X238851Y158064D01*
X239464Y157451D01*
X239950Y157250D01*
Y158550D01*
D02*
G37*
G36*
X110650Y158250D02*
X109350D01*
Y156950D01*
X109836Y157151D01*
X110449Y157764D01*
X110650Y158250D01*
D02*
G37*
G36*
X107850D02*
X106550D01*
X106751Y157764D01*
X107364Y157151D01*
X107850Y156950D01*
Y158250D01*
D02*
G37*
G36*
X162010Y160151D02*
X159397D01*
Y156752D01*
X162010D01*
Y160151D01*
D02*
G37*
G36*
X157897D02*
X155285D01*
Y156752D01*
X157897D01*
Y160151D01*
D02*
G37*
G36*
X257550Y157650D02*
X256250D01*
Y156350D01*
X256735Y156551D01*
X257349Y157165D01*
X257550Y157650D01*
D02*
G37*
G36*
X254750D02*
X253450D01*
X253651Y157165D01*
X254264Y156551D01*
X254750Y156350D01*
Y157650D01*
D02*
G37*
G36*
X46652Y157882D02*
X43465D01*
Y153652D01*
X51533D01*
X51462Y154191D01*
X50964Y155392D01*
X50173Y156423D01*
X49142Y157215D01*
X47941Y157712D01*
X46652Y157882D01*
D02*
G37*
G36*
X188130Y155276D02*
X186252D01*
Y152217D01*
X188130D01*
Y155276D01*
D02*
G37*
G36*
X185252D02*
X183374D01*
Y152217D01*
X185252D01*
Y155276D01*
D02*
G37*
G36*
X162010Y155252D02*
X159397D01*
Y151852D01*
X162010D01*
Y155252D01*
D02*
G37*
G36*
X157897D02*
X155285D01*
Y151852D01*
X157897D01*
Y155252D01*
D02*
G37*
G36*
X85403Y152327D02*
X82344D01*
Y150449D01*
X85403D01*
Y152327D01*
D02*
G37*
G36*
X89218D02*
X86159D01*
Y150449D01*
X89218D01*
Y152327D01*
D02*
G37*
G36*
X81344D02*
X78285D01*
Y150449D01*
X81344D01*
Y152327D01*
D02*
G37*
G36*
X11550Y151550D02*
Y150250D01*
X12850D01*
X12649Y150735D01*
X12036Y151349D01*
X11550Y151550D01*
D02*
G37*
G36*
X10050D02*
X9565Y151349D01*
X8951Y150735D01*
X8750Y150250D01*
X10050D01*
Y151550D01*
D02*
G37*
G36*
X188130Y151461D02*
X186252D01*
Y148402D01*
X188130D01*
Y151461D01*
D02*
G37*
G36*
X185252D02*
X183374D01*
Y148402D01*
X185252D01*
Y151461D01*
D02*
G37*
G36*
X51533Y152152D02*
X43465D01*
Y147923D01*
X46652D01*
X47941Y148092D01*
X49142Y148590D01*
X50173Y149381D01*
X50964Y150413D01*
X51462Y151613D01*
X51533Y152152D01*
D02*
G37*
G36*
X89218Y149449D02*
X86159D01*
Y147571D01*
X89218D01*
Y149449D01*
D02*
G37*
G36*
X85403D02*
X82344D01*
Y147571D01*
X85403D01*
Y149449D01*
D02*
G37*
G36*
X81344D02*
X78285D01*
Y147571D01*
X81344D01*
Y149449D01*
D02*
G37*
G36*
X12850Y148750D02*
X11550D01*
Y147450D01*
X12036Y147651D01*
X12649Y148265D01*
X12850Y148750D01*
D02*
G37*
G36*
X10050D02*
X8750D01*
X8951Y148265D01*
X9565Y147651D01*
X10050Y147450D01*
Y148750D01*
D02*
G37*
G36*
X41965Y157882D02*
X38778D01*
X37489Y157712D01*
X36288Y157215D01*
X35257Y156423D01*
X34466Y155392D01*
X34338Y155083D01*
X28111D01*
Y147156D01*
X40565D01*
Y147923D01*
X41965D01*
Y152902D01*
Y157882D01*
D02*
G37*
G36*
X26611Y155083D02*
X14156D01*
Y147156D01*
X26611D01*
Y155083D01*
D02*
G37*
G36*
X267547Y148997D02*
Y146557D01*
X269987D01*
X269814Y147203D01*
X269423Y147880D01*
X268870Y148433D01*
X268193Y148824D01*
X267547Y148997D01*
D02*
G37*
G36*
X266547Y148997D02*
X265902Y148824D01*
X265225Y148433D01*
X264672Y147880D01*
X264281Y147203D01*
X264108Y146557D01*
X266547D01*
Y148997D01*
D02*
G37*
G36*
X230050Y147450D02*
Y146150D01*
X231350D01*
X231149Y146635D01*
X230536Y147249D01*
X230050Y147450D01*
D02*
G37*
G36*
X249450Y147350D02*
Y146050D01*
X250750D01*
X250549Y146536D01*
X249936Y147149D01*
X249450Y147350D01*
D02*
G37*
G36*
X247950D02*
X247464Y147149D01*
X246851Y146536D01*
X246650Y146050D01*
X247950D01*
Y147350D01*
D02*
G37*
G36*
X67050Y145750D02*
Y144450D01*
X68350D01*
X68149Y144936D01*
X67536Y145549D01*
X67050Y145750D01*
D02*
G37*
G36*
X65550D02*
X65065Y145549D01*
X64451Y144936D01*
X64250Y144450D01*
X65550D01*
Y145750D01*
D02*
G37*
G36*
X231350Y144650D02*
X230050D01*
Y143350D01*
X230536Y143551D01*
X231149Y144165D01*
X231350Y144650D01*
D02*
G37*
G36*
X250750Y144550D02*
X249450D01*
Y143250D01*
X249936Y143451D01*
X250549Y144064D01*
X250750Y144550D01*
D02*
G37*
G36*
X247950D02*
X246650D01*
X246851Y144064D01*
X247464Y143451D01*
X247950Y143250D01*
Y144550D01*
D02*
G37*
G36*
X269987Y145557D02*
X267547D01*
Y143118D01*
X268193Y143291D01*
X268870Y143682D01*
X269423Y144235D01*
X269814Y144912D01*
X269987Y145557D01*
D02*
G37*
G36*
X266547D02*
X264108D01*
X264281Y144912D01*
X264672Y144235D01*
X265225Y143682D01*
X265902Y143291D01*
X266547Y143118D01*
Y145557D01*
D02*
G37*
G36*
X188130Y147402D02*
X183374D01*
Y144343D01*
X184151D01*
X184258Y143877D01*
X184259Y143843D01*
X183651Y143236D01*
X183450Y142750D01*
X187550D01*
X187349Y143236D01*
X186741Y143843D01*
X186742Y143877D01*
X186849Y144343D01*
X188130D01*
Y147402D01*
D02*
G37*
G36*
X68350Y142950D02*
X67050D01*
Y141650D01*
X67536Y141851D01*
X68149Y142464D01*
X68350Y142950D01*
D02*
G37*
G36*
X65550D02*
X64250D01*
X64451Y142464D01*
X65065Y141851D01*
X65550Y141650D01*
Y142950D01*
D02*
G37*
G36*
X51550Y142650D02*
Y141350D01*
X52850D01*
X52649Y141835D01*
X52035Y142449D01*
X51550Y142650D01*
D02*
G37*
G36*
X50050D02*
X49564Y142449D01*
X48951Y141835D01*
X48750Y141350D01*
X50050D01*
Y142650D01*
D02*
G37*
G36*
X172000Y142250D02*
X169850D01*
Y140450D01*
X172000D01*
Y142250D01*
D02*
G37*
G36*
X168350D02*
X166200D01*
Y140450D01*
X168350D01*
Y142250D01*
D02*
G37*
G36*
X187550Y141250D02*
X186250D01*
Y139950D01*
X186735Y140151D01*
X187349Y140764D01*
X187550Y141250D01*
D02*
G37*
G36*
X184750D02*
X183450D01*
X183651Y140764D01*
X184265Y140151D01*
X184750Y139950D01*
Y141250D01*
D02*
G37*
G36*
X244258Y142359D02*
X242380D01*
Y139300D01*
X244258D01*
Y142359D01*
D02*
G37*
G36*
X241380D02*
X239502D01*
Y139300D01*
X241380D01*
Y142359D01*
D02*
G37*
G36*
X90204Y144931D02*
X85454D01*
Y139032D01*
X90204D01*
Y144931D01*
D02*
G37*
G36*
X84454D02*
X79704D01*
Y139032D01*
X84454D01*
Y144931D01*
D02*
G37*
G36*
X52850Y139850D02*
X51550D01*
Y138550D01*
X52035Y138751D01*
X52649Y139365D01*
X52850Y139850D01*
D02*
G37*
G36*
X50050D02*
X48750D01*
X48951Y139365D01*
X49564Y138751D01*
X50050Y138550D01*
Y139850D01*
D02*
G37*
G36*
X158450Y139150D02*
Y137850D01*
X159750D01*
X159549Y138336D01*
X158935Y138949D01*
X158450Y139150D01*
D02*
G37*
G36*
X156950D02*
X156465Y138949D01*
X155851Y138336D01*
X155650Y137850D01*
X156950D01*
Y139150D01*
D02*
G37*
G36*
X40565Y145656D02*
X28111D01*
Y137729D01*
X40565D01*
Y145656D01*
D02*
G37*
G36*
X26611D02*
X14156D01*
Y137729D01*
X26611D01*
Y145656D01*
D02*
G37*
G36*
X275350Y138650D02*
Y137350D01*
X276650D01*
X276449Y137836D01*
X275835Y138449D01*
X275350Y138650D01*
D02*
G37*
G36*
X273850D02*
X273364Y138449D01*
X272751Y137836D01*
X272550Y137350D01*
X273850D01*
Y138650D01*
D02*
G37*
G36*
X172000Y138950D02*
X169850D01*
Y137150D01*
X172000D01*
Y138950D01*
D02*
G37*
G36*
X168350D02*
X166200D01*
Y137150D01*
X168350D01*
Y138950D01*
D02*
G37*
G36*
X188200Y138300D02*
Y137000D01*
X189500D01*
X189299Y137485D01*
X188686Y138099D01*
X188200Y138300D01*
D02*
G37*
G36*
X186700D02*
X186214Y138099D01*
X185601Y137485D01*
X185400Y137000D01*
X186700D01*
Y138300D01*
D02*
G37*
G36*
X244258D02*
X242380D01*
Y135241D01*
X244258D01*
Y138300D01*
D02*
G37*
G36*
X241380D02*
X239502D01*
Y135241D01*
X241380D01*
Y138300D01*
D02*
G37*
G36*
X159750Y136350D02*
X158450D01*
Y135050D01*
X158935Y135251D01*
X159549Y135864D01*
X159750Y136350D01*
D02*
G37*
G36*
X156950D02*
X155650D01*
X155851Y135864D01*
X156465Y135251D01*
X156950Y135050D01*
Y136350D01*
D02*
G37*
G36*
X276650Y135850D02*
X275350D01*
Y134550D01*
X275835Y134751D01*
X276449Y135364D01*
X276650Y135850D01*
D02*
G37*
G36*
X273850D02*
X272550D01*
X272751Y135364D01*
X273364Y134751D01*
X273850Y134550D01*
Y135850D01*
D02*
G37*
G36*
X189500Y135500D02*
X188200D01*
Y134200D01*
X188686Y134401D01*
X189299Y135014D01*
X189500Y135500D01*
D02*
G37*
G36*
X186700D02*
X185400D01*
X185601Y135014D01*
X186214Y134401D01*
X186700Y134200D01*
Y135500D01*
D02*
G37*
G36*
X46914Y135116D02*
X42364D01*
Y134188D01*
X26529D01*
X25787Y134041D01*
X25159Y133621D01*
X24183Y132646D01*
X23032Y132954D01*
X21758D01*
X20528Y132625D01*
X19425Y131988D01*
X18524Y131087D01*
X17887Y129984D01*
X17558Y128754D01*
Y127480D01*
X17887Y126250D01*
X18524Y125147D01*
X19425Y124247D01*
X20528Y123610D01*
X21758Y123280D01*
X23032D01*
X24262Y123610D01*
X25365Y124247D01*
X26265Y125147D01*
X26902Y126250D01*
X27232Y127480D01*
Y128754D01*
X26923Y129906D01*
X27331Y130314D01*
X42364D01*
Y129386D01*
X46914D01*
Y135116D01*
D02*
G37*
G36*
X90204Y138031D02*
X85454D01*
Y132132D01*
X90204D01*
Y138031D01*
D02*
G37*
G36*
X84454D02*
X79704D01*
Y132132D01*
X84454D01*
Y138031D01*
D02*
G37*
G36*
X214450Y133350D02*
X213150D01*
Y132050D01*
X213635Y132251D01*
X214249Y132864D01*
X214450Y133350D01*
D02*
G37*
G36*
X211650D02*
X210350D01*
X210551Y132864D01*
X211164Y132251D01*
X211650Y132050D01*
Y133350D01*
D02*
G37*
G36*
X67048Y134550D02*
X61848D01*
Y130050D01*
X67048D01*
Y130822D01*
X70035D01*
X70321Y130536D01*
X71086Y130219D01*
X71914D01*
X72679Y130536D01*
X73264Y131121D01*
X73581Y131886D01*
Y132714D01*
X73264Y133479D01*
X72679Y134064D01*
X71914Y134381D01*
X71086D01*
X70321Y134064D01*
X70035Y133778D01*
X67048D01*
Y134550D01*
D02*
G37*
G36*
X54394Y135116D02*
X49844D01*
Y129386D01*
X54394D01*
Y130363D01*
X55547D01*
Y130050D01*
X60747D01*
Y134550D01*
X55547D01*
Y134237D01*
X54394D01*
Y135116D01*
D02*
G37*
G36*
X53300Y187185D02*
X52949Y187116D01*
X52651Y186917D01*
X49403Y183669D01*
X49204Y183371D01*
X49135Y183020D01*
Y163236D01*
X49204Y162885D01*
X49403Y162587D01*
X55211Y156780D01*
X55508Y156581D01*
X55859Y156511D01*
X71804D01*
X72155Y156581D01*
X72453Y156780D01*
X76349Y160676D01*
X76489Y160886D01*
X76909Y160834D01*
X76989Y160803D01*
Y156248D01*
X77059Y155897D01*
X77258Y155599D01*
X78833Y154024D01*
X79130Y153825D01*
X79481Y153756D01*
X92817D01*
X92911Y153675D01*
X93166Y153256D01*
X93131Y153079D01*
Y152327D01*
X90218D01*
Y149949D01*
Y147571D01*
X93131D01*
Y133020D01*
X93200Y132669D01*
X93399Y132371D01*
X95368Y130402D01*
X95666Y130203D01*
X96017Y130134D01*
X106267D01*
X107304Y129096D01*
Y128295D01*
X107374Y127944D01*
X107573Y127647D01*
X108360Y126859D01*
X108658Y126660D01*
X109009Y126590D01*
X116489D01*
X116840Y126660D01*
X117138Y126859D01*
X117926Y127646D01*
X118124Y127944D01*
X118138Y128013D01*
X118668Y128255D01*
X118677Y128254D01*
X118680Y128252D01*
X119031Y128182D01*
X144847D01*
X145199Y128252D01*
X145496Y128451D01*
X149249Y132204D01*
X149448Y132501D01*
X149518Y132852D01*
Y143200D01*
X149448Y143551D01*
X149249Y143849D01*
X147214Y145884D01*
X147214Y145884D01*
X146916Y146082D01*
X146565Y146152D01*
X146393Y146118D01*
X146267Y146184D01*
X146049Y146401D01*
X145983Y146528D01*
X146018Y146700D01*
Y148820D01*
X147080Y149882D01*
X151700Y149882D01*
X152051Y149952D01*
X152349Y150151D01*
X153796Y151599D01*
X153995Y151896D01*
X154065Y152248D01*
Y158500D01*
X153995Y158851D01*
X153796Y159149D01*
X152096Y160849D01*
X151799Y161048D01*
X151447Y161118D01*
X143897D01*
Y162408D01*
X141347D01*
Y163158D01*
X140597D01*
Y166058D01*
X139107D01*
X138797Y166058D01*
X138607Y166479D01*
Y166716D01*
X135547D01*
Y164338D01*
Y161960D01*
X138449Y161960D01*
X138719Y161507D01*
X138570Y161118D01*
X132448D01*
X132096Y161048D01*
X131799Y160849D01*
X129999Y159049D01*
X129965Y158999D01*
X129465Y159150D01*
Y166394D01*
X129430Y166570D01*
X129396Y166743D01*
X129395Y166744D01*
X129395Y166745D01*
X129297Y166893D01*
X129198Y167041D01*
X126592Y169660D01*
X126443Y169760D01*
X126297Y169859D01*
X126296Y169859D01*
X126295Y169860D01*
X126122Y169895D01*
X125946Y169931D01*
X115808Y169980D01*
X115805Y169980D01*
X115803Y169980D01*
X115773D01*
X115422Y169911D01*
X115124Y169712D01*
X114617Y169205D01*
X114418Y168907D01*
X114349Y168556D01*
Y166199D01*
X114418Y165848D01*
X114617Y165550D01*
X115199Y164969D01*
X115497Y164770D01*
X115442Y164271D01*
X115100D01*
Y160509D01*
X122603D01*
Y163310D01*
X123065Y163502D01*
X123630Y162936D01*
Y153763D01*
X123130Y153714D01*
X123111Y153811D01*
X122912Y154108D01*
X122228Y154792D01*
X122225Y154794D01*
X122223Y154797D01*
X122077Y154893D01*
X121930Y154991D01*
X121927Y154992D01*
X121924Y154994D01*
X121846Y155009D01*
X121894Y155509D01*
X122603D01*
Y159271D01*
X115100D01*
Y155509D01*
X115958D01*
X116009Y155009D01*
X115918Y154990D01*
X115744Y154955D01*
X115742Y154954D01*
X115739Y154953D01*
X115594Y154855D01*
X115447Y154757D01*
X114680Y153990D01*
X114481Y153692D01*
X114411Y153341D01*
Y150973D01*
X113937Y150473D01*
X103090Y150473D01*
X102840Y150723D01*
Y152825D01*
X102770Y153176D01*
X102571Y153474D01*
X101783Y154262D01*
X101769Y154403D01*
X102965Y155599D01*
X103164Y155897D01*
X103234Y156248D01*
Y159004D01*
X103164Y159355D01*
X102965Y159653D01*
X101784Y160834D01*
X101643Y160928D01*
Y161640D01*
X97592D01*
Y162390D01*
X96842D01*
Y164571D01*
X93540D01*
X93123Y164770D01*
X93122Y164771D01*
X91941Y165952D01*
X91644Y166151D01*
X91292Y166221D01*
X79481D01*
X79130Y166151D01*
X78833Y165952D01*
X77258Y164377D01*
X77118Y164168D01*
X76698Y164220D01*
X76618Y164251D01*
Y170197D01*
X78385Y171964D01*
X82533D01*
X82884Y172034D01*
X83181Y172233D01*
X85150Y174202D01*
X85349Y174499D01*
X85419Y174850D01*
Y179378D01*
X85349Y179729D01*
X85150Y180027D01*
X82296Y182881D01*
X81998Y183080D01*
X81647Y183150D01*
X65590Y183150D01*
X61823Y186917D01*
X61525Y187116D01*
X61174Y187185D01*
X53300Y187185D01*
D02*
G37*
G36*
X281650Y128150D02*
X281165Y127949D01*
X280551Y127336D01*
X280350Y126850D01*
X281650D01*
Y128150D01*
D02*
G37*
G36*
X55250Y126900D02*
Y125600D01*
X56550D01*
X56349Y126085D01*
X55735Y126699D01*
X55250Y126900D01*
D02*
G37*
G36*
X53750D02*
X53264Y126699D01*
X52651Y126085D01*
X52450Y125600D01*
X53750D01*
Y126900D01*
D02*
G37*
G36*
X50954Y127936D02*
X48879D01*
Y125271D01*
X50954D01*
Y127936D01*
D02*
G37*
G36*
X47879D02*
X45804D01*
Y125271D01*
X47879D01*
Y127936D01*
D02*
G37*
G36*
X281650Y125350D02*
X280350D01*
X280551Y124864D01*
X281165Y124251D01*
X281650Y124050D01*
Y125350D01*
D02*
G37*
G36*
X56550Y124100D02*
X55250D01*
Y122800D01*
X55735Y123001D01*
X56349Y123615D01*
X56550Y124100D01*
D02*
G37*
G36*
X53750D02*
X52450D01*
X52651Y123615D01*
X53264Y123001D01*
X53750Y122800D01*
Y124100D01*
D02*
G37*
G36*
X184235Y127181D02*
X181655Y124600D01*
X183748Y122506D01*
X186329Y125087D01*
X184235Y127181D01*
D02*
G37*
G36*
X178147Y126693D02*
X175566Y124113D01*
X177660Y122019D01*
X180240Y124600D01*
X178147Y126693D01*
D02*
G37*
G36*
X34450Y123050D02*
Y121750D01*
X35750D01*
X35549Y122236D01*
X34936Y122849D01*
X34450Y123050D01*
D02*
G37*
G36*
X32950D02*
X32465Y122849D01*
X31851Y122236D01*
X31650Y121750D01*
X32950D01*
Y123050D01*
D02*
G37*
G36*
X50954Y124271D02*
X48879D01*
Y121605D01*
X50954D01*
Y124271D01*
D02*
G37*
G36*
X47879D02*
X45804D01*
Y121605D01*
X47879D01*
Y124271D01*
D02*
G37*
G36*
X165010Y125805D02*
X162429Y123225D01*
X164523Y121131D01*
X167103Y123712D01*
X165010Y125805D01*
D02*
G37*
G36*
X265850Y122350D02*
Y121050D01*
X267150D01*
X266949Y121536D01*
X266336Y122149D01*
X265850Y122350D01*
D02*
G37*
G36*
X264350D02*
X263864Y122149D01*
X263251Y121536D01*
X263050Y121050D01*
X264350D01*
Y122350D01*
D02*
G37*
G36*
X55250Y121950D02*
Y120650D01*
X56550D01*
X56349Y121135D01*
X55735Y121749D01*
X55250Y121950D01*
D02*
G37*
G36*
X53750D02*
X53264Y121749D01*
X52651Y121135D01*
X52450Y120650D01*
X53750D01*
Y121950D01*
D02*
G37*
G36*
X146103Y126750D02*
X142704D01*
Y120201D01*
X146103D01*
Y126750D01*
D02*
G37*
G36*
X141204D02*
X137804D01*
Y120201D01*
X141204D01*
Y126750D01*
D02*
G37*
G36*
X217650Y120750D02*
Y119450D01*
X218950D01*
X218749Y119936D01*
X218135Y120549D01*
X217650Y120750D01*
D02*
G37*
G36*
X216150D02*
X215665Y120549D01*
X215051Y119936D01*
X214850Y119450D01*
X216150D01*
Y120750D01*
D02*
G37*
G36*
X180947Y123893D02*
X178367Y121312D01*
X180460Y119219D01*
X183041Y121799D01*
X180947Y123893D01*
D02*
G37*
G36*
X35750Y120250D02*
X34450D01*
Y118950D01*
X34936Y119151D01*
X35549Y119764D01*
X35750Y120250D01*
D02*
G37*
G36*
X32950D02*
X31650D01*
X31851Y119764D01*
X32465Y119151D01*
X32950Y118950D01*
Y120250D01*
D02*
G37*
G36*
X167810Y123005D02*
X165230Y120424D01*
X167323Y118331D01*
X169904Y120911D01*
X167810Y123005D01*
D02*
G37*
G36*
X267150Y119550D02*
X265850D01*
Y118250D01*
X266336Y118451D01*
X266949Y119064D01*
X267150Y119550D01*
D02*
G37*
G36*
X264350D02*
X263050D01*
X263251Y119064D01*
X263864Y118451D01*
X264350Y118250D01*
Y119550D01*
D02*
G37*
G36*
X56550Y119150D02*
X55250D01*
Y117850D01*
X55735Y118051D01*
X56349Y118665D01*
X56550Y119150D01*
D02*
G37*
G36*
X53750D02*
X52450D01*
X52651Y118665D01*
X53264Y118051D01*
X53750Y117850D01*
Y119150D01*
D02*
G37*
G36*
X161722Y122518D02*
X159141Y119937D01*
X161235Y117843D01*
X163815Y120424D01*
X161722Y122518D01*
D02*
G37*
G36*
X218950Y117950D02*
X217650D01*
Y116650D01*
X218135Y116851D01*
X218749Y117464D01*
X218950Y117950D01*
D02*
G37*
G36*
X216150D02*
X214850D01*
X215051Y117464D01*
X215665Y116851D01*
X216150Y116650D01*
Y117950D01*
D02*
G37*
G36*
X49707Y118258D02*
X46648D01*
Y116380D01*
X49707D01*
Y118258D01*
D02*
G37*
G36*
X45647D02*
X42588D01*
Y116380D01*
X45647D01*
Y118258D01*
D02*
G37*
G36*
X178000Y141950D02*
X172800D01*
Y137450D01*
X173922D01*
Y134366D01*
X173904Y134275D01*
X169866Y130237D01*
X174336Y125768D01*
X178302Y129733D01*
X180533D01*
X180725Y129271D01*
X178854Y127401D01*
X180947Y125307D01*
X183528Y127888D01*
X182144Y129271D01*
X182336Y129733D01*
X185196D01*
X188954Y125975D01*
X188763Y125513D01*
X188189D01*
X187604Y125396D01*
X187108Y125065D01*
X178359Y116316D01*
X174075D01*
X171134Y119257D01*
X165690Y113812D01*
X168518Y110985D01*
Y107550D01*
X167447D01*
Y103118D01*
X166648D01*
Y104550D01*
X164497D01*
Y102750D01*
X165400D01*
Y101318D01*
X171200D01*
Y102807D01*
X171548Y102935D01*
X172000Y102639D01*
Y98318D01*
X173071D01*
Y97650D01*
X172000D01*
Y93150D01*
X177200D01*
Y97650D01*
X176129D01*
Y98318D01*
X177200D01*
Y102818D01*
X176129D01*
Y107067D01*
X180047Y110984D01*
X180618Y110848D01*
X180990Y110290D01*
X181701Y109815D01*
X182540Y109648D01*
X187100D01*
X187674Y109762D01*
X190359D01*
Y113918D01*
X188629D01*
Y115666D01*
X189511Y116549D01*
X191868D01*
Y114819D01*
Y110882D01*
X193573D01*
Y110116D01*
X193236Y109779D01*
X192919Y109014D01*
Y108186D01*
X193236Y107421D01*
X193821Y106836D01*
X194586Y106519D01*
X195414D01*
X196179Y106836D01*
X196764Y107421D01*
X197081Y108186D01*
Y109014D01*
X196764Y109779D01*
X196427Y110116D01*
Y110882D01*
X197993D01*
Y114819D01*
Y118456D01*
X198293D01*
Y119296D01*
X197993D01*
Y119369D01*
X195699D01*
X195516Y119491D01*
X194930Y119607D01*
Y120485D01*
X195516Y120602D01*
X195699Y120724D01*
X197993D01*
Y120796D01*
X198293D01*
Y121637D01*
X197993D01*
Y126630D01*
Y130567D01*
Y135116D01*
X191868D01*
Y132535D01*
Y127950D01*
X191368Y127743D01*
X186854Y132257D01*
X186374Y132578D01*
X185808Y132690D01*
X178302D01*
X176878Y134113D01*
Y137450D01*
X178000D01*
Y141950D01*
D02*
G37*
G36*
X93350Y117450D02*
Y116150D01*
X94650D01*
X94449Y116636D01*
X93836Y117249D01*
X93350Y117450D01*
D02*
G37*
G36*
X91850D02*
X91365Y117249D01*
X90751Y116636D01*
X90550Y116150D01*
X91850D01*
Y117450D01*
D02*
G37*
G36*
X115350Y117250D02*
Y115950D01*
X116650D01*
X116449Y116436D01*
X115835Y117049D01*
X115350Y117250D01*
D02*
G37*
G36*
X113850D02*
X113365Y117049D01*
X112751Y116436D01*
X112550Y115950D01*
X113850D01*
Y117250D01*
D02*
G37*
G36*
X55250Y116950D02*
Y115650D01*
X56550D01*
X56349Y116136D01*
X55735Y116749D01*
X55250Y116950D01*
D02*
G37*
G36*
X53750D02*
X53264Y116749D01*
X52651Y116136D01*
X52450Y115650D01*
X53750D01*
Y116950D01*
D02*
G37*
G36*
X164523Y119717D02*
X161942Y117136D01*
X164035Y115043D01*
X166616Y117624D01*
X164523Y119717D01*
D02*
G37*
G36*
X70950Y115950D02*
Y114650D01*
X72250D01*
X72049Y115136D01*
X71435Y115749D01*
X70950Y115950D01*
D02*
G37*
G36*
X69450D02*
X68964Y115749D01*
X68351Y115136D01*
X68150Y114650D01*
X69450D01*
Y115950D01*
D02*
G37*
G36*
X246248Y118350D02*
X241048D01*
Y113850D01*
X246248D01*
Y114622D01*
X247715D01*
X248001Y114336D01*
X248766Y114019D01*
X249594D01*
X250359Y114336D01*
X250944Y114921D01*
X251261Y115686D01*
Y116514D01*
X250944Y117279D01*
X250359Y117864D01*
X249594Y118181D01*
X248766D01*
X248001Y117864D01*
X247715Y117578D01*
X246248D01*
Y118350D01*
D02*
G37*
G36*
X207550Y115250D02*
Y113950D01*
X208850D01*
X208649Y114436D01*
X208035Y115049D01*
X207550Y115250D01*
D02*
G37*
G36*
X206050D02*
X205564Y115049D01*
X204951Y114436D01*
X204750Y113950D01*
X206050D01*
Y115250D01*
D02*
G37*
G36*
X49707Y115380D02*
X46648D01*
Y113502D01*
X49707D01*
Y115380D01*
D02*
G37*
G36*
X45647D02*
X42588D01*
Y113502D01*
X45647D01*
Y115380D01*
D02*
G37*
G36*
X94650Y114650D02*
X93350D01*
Y113350D01*
X93836Y113551D01*
X94449Y114164D01*
X94650Y114650D01*
D02*
G37*
G36*
X91850D02*
X90550D01*
X90751Y114164D01*
X91365Y113551D01*
X91850Y113350D01*
Y114650D01*
D02*
G37*
G36*
X116650Y114450D02*
X115350D01*
Y113150D01*
X115835Y113351D01*
X116449Y113964D01*
X116650Y114450D01*
D02*
G37*
G36*
X113850D02*
X112550D01*
X112751Y113964D01*
X113365Y113351D01*
X113850Y113150D01*
Y114450D01*
D02*
G37*
G36*
X56550Y114150D02*
X55250D01*
Y112850D01*
X55735Y113051D01*
X56349Y113664D01*
X56550Y114150D01*
D02*
G37*
G36*
X53750D02*
X52450D01*
X52651Y113664D01*
X53264Y113051D01*
X53750Y112850D01*
Y114150D01*
D02*
G37*
G36*
X146103Y118701D02*
X142704D01*
Y112152D01*
X146103D01*
Y118701D01*
D02*
G37*
G36*
X141204D02*
X137804D01*
Y112152D01*
X141204D01*
Y118701D01*
D02*
G37*
G36*
X72250Y113150D02*
X70950D01*
Y111850D01*
X71435Y112051D01*
X72049Y112664D01*
X72250Y113150D01*
D02*
G37*
G36*
X69450D02*
X68150D01*
X68351Y112664D01*
X68964Y112051D01*
X69450Y111850D01*
Y113150D01*
D02*
G37*
G36*
X151950Y112950D02*
Y111650D01*
X153250D01*
X153049Y112136D01*
X152436Y112749D01*
X151950Y112950D01*
D02*
G37*
G36*
X150450D02*
X149964Y112749D01*
X149351Y112136D01*
X149150Y111650D01*
X150450D01*
Y112950D01*
D02*
G37*
G36*
X208850Y112450D02*
X207550D01*
Y111150D01*
X208035Y111351D01*
X208649Y111964D01*
X208850Y112450D01*
D02*
G37*
G36*
X206050D02*
X204750D01*
X204951Y111964D01*
X205564Y111351D01*
X206050Y111150D01*
Y112450D01*
D02*
G37*
G36*
X247350Y111050D02*
Y109750D01*
X248650D01*
X248449Y110236D01*
X247835Y110849D01*
X247350Y111050D01*
D02*
G37*
G36*
X245850D02*
X245364Y110849D01*
X244751Y110236D01*
X244550Y109750D01*
X245850D01*
Y111050D01*
D02*
G37*
G36*
X153250Y110150D02*
X151950D01*
Y108850D01*
X152436Y109051D01*
X153049Y109664D01*
X153250Y110150D01*
D02*
G37*
G36*
X150450D02*
X149150D01*
X149351Y109664D01*
X149964Y109051D01*
X150450Y108850D01*
Y110150D01*
D02*
G37*
G36*
X231550Y108750D02*
Y107450D01*
X232850D01*
X232649Y107936D01*
X232035Y108549D01*
X231550Y108750D01*
D02*
G37*
G36*
X230050D02*
X229564Y108549D01*
X228951Y107936D01*
X228750Y107450D01*
X230050D01*
Y108750D01*
D02*
G37*
G36*
X248650Y108250D02*
X247350D01*
Y106950D01*
X247835Y107151D01*
X248449Y107764D01*
X248650Y108250D01*
D02*
G37*
G36*
X245850D02*
X244550D01*
X244751Y107764D01*
X245364Y107151D01*
X245850Y106950D01*
Y108250D01*
D02*
G37*
G36*
X166648Y107850D02*
X164497D01*
Y106050D01*
X166648D01*
Y107850D01*
D02*
G37*
G36*
X162997D02*
X160847D01*
Y106050D01*
X162997D01*
Y107850D01*
D02*
G37*
G36*
X190659Y106738D02*
X187600D01*
Y104860D01*
X190659D01*
Y106738D01*
D02*
G37*
G36*
X186600D02*
X183541D01*
Y104860D01*
X186600D01*
Y106738D01*
D02*
G37*
G36*
X23032Y113269D02*
X21758D01*
X20528Y112940D01*
X19425Y112303D01*
X18524Y111402D01*
X17887Y110299D01*
X17558Y109069D01*
Y107795D01*
X17887Y106565D01*
X18524Y105462D01*
X19425Y104562D01*
X20528Y103925D01*
X21758Y103595D01*
X23032D01*
X24262Y103925D01*
X25365Y104562D01*
X26265Y105462D01*
X26696Y106208D01*
X55147D01*
X55986Y106375D01*
X56698Y106850D01*
X57173Y107561D01*
X57340Y108400D01*
X57173Y109239D01*
X56698Y109950D01*
X55986Y110425D01*
X55147Y110592D01*
X26733D01*
X26265Y111402D01*
X25365Y112303D01*
X24262Y112940D01*
X23032Y113269D01*
D02*
G37*
G36*
X162997Y104550D02*
X160847D01*
Y102750D01*
X162997D01*
Y104550D01*
D02*
G37*
G36*
X190659Y103860D02*
X187600D01*
Y101982D01*
X190659D01*
Y103860D01*
D02*
G37*
G36*
X186600D02*
X183541D01*
Y101982D01*
X186600D01*
Y103860D01*
D02*
G37*
G36*
X189550Y99450D02*
Y98150D01*
X190850D01*
X190649Y98636D01*
X190035Y99249D01*
X189550Y99450D01*
D02*
G37*
G36*
X188050D02*
X187565Y99249D01*
X186951Y98636D01*
X186750Y98150D01*
X188050D01*
Y99450D01*
D02*
G37*
G36*
X276514Y120251D02*
X275686D01*
X274921Y119934D01*
X274336Y119349D01*
X274019Y118584D01*
Y117756D01*
X274336Y116991D01*
X274607Y116720D01*
X274514Y116220D01*
X273500D01*
Y111720D01*
X274354D01*
X274545Y111258D01*
X274436Y111149D01*
X274119Y110384D01*
Y109556D01*
X274341Y109020D01*
X274057Y108527D01*
X274048Y108520D01*
X273500D01*
Y104020D01*
X274673D01*
Y102575D01*
X274219D01*
Y98025D01*
X277981D01*
Y102575D01*
X277527D01*
Y104020D01*
X278700D01*
Y108520D01*
X278346D01*
X278059Y109020D01*
X278281Y109556D01*
Y110384D01*
X277964Y111149D01*
X277855Y111258D01*
X278046Y111720D01*
X278700D01*
Y112144D01*
X279200Y112351D01*
X279673Y111879D01*
Y102575D01*
X279219D01*
Y98025D01*
X282981D01*
Y102575D01*
X282527D01*
Y112470D01*
X282527Y112470D01*
X282419Y113016D01*
X282109Y113479D01*
X282109Y113479D01*
X280609Y114979D01*
X280146Y115289D01*
X279600Y115398D01*
X279600Y115398D01*
X278700D01*
Y116220D01*
X277686D01*
X277593Y116720D01*
X277864Y116991D01*
X278181Y117756D01*
Y118584D01*
X277864Y119349D01*
X277279Y119934D01*
X276514Y120251D01*
D02*
G37*
G36*
X171200Y99818D02*
X165400D01*
Y98450D01*
X165400Y98018D01*
X165400Y97518D01*
Y96150D01*
X171200D01*
Y97518D01*
X171200Y97950D01*
X171200Y98450D01*
Y99818D01*
D02*
G37*
G36*
X49850Y96850D02*
Y95550D01*
X51150D01*
X50949Y96035D01*
X50336Y96649D01*
X49850Y96850D01*
D02*
G37*
G36*
X48350D02*
X47864Y96649D01*
X47251Y96035D01*
X47050Y95550D01*
X48350D01*
Y96850D01*
D02*
G37*
G36*
X190850Y96650D02*
X189550D01*
Y95350D01*
X190035Y95551D01*
X190649Y96165D01*
X190850Y96650D01*
D02*
G37*
G36*
X188050D02*
X186750D01*
X186951Y96165D01*
X187565Y95551D01*
X188050Y95350D01*
Y96650D01*
D02*
G37*
G36*
X262659Y95198D02*
X259600D01*
Y93320D01*
X262659D01*
Y95198D01*
D02*
G37*
G36*
X254659D02*
X251600D01*
Y93320D01*
X254659D01*
Y95198D01*
D02*
G37*
G36*
X239659D02*
X236600D01*
Y93320D01*
X239659D01*
Y95198D01*
D02*
G37*
G36*
X258600D02*
X255541D01*
Y93320D01*
X258600D01*
Y95198D01*
D02*
G37*
G36*
X228600D02*
X225541D01*
Y93320D01*
X228600D01*
Y95198D01*
D02*
G37*
G36*
X250600D02*
X247541D01*
Y93320D01*
X250600D01*
Y95198D01*
D02*
G37*
G36*
X171200Y94650D02*
X169050D01*
Y92850D01*
X171200D01*
Y94650D01*
D02*
G37*
G36*
X167550D02*
X165400D01*
Y92850D01*
X167550D01*
Y94650D01*
D02*
G37*
G36*
X51150Y94050D02*
X49850D01*
Y92750D01*
X50336Y92951D01*
X50949Y93564D01*
X51150Y94050D01*
D02*
G37*
G36*
X48350D02*
X47050D01*
X47251Y93564D01*
X47864Y92951D01*
X48350Y92750D01*
Y94050D01*
D02*
G37*
G36*
X69750Y93850D02*
Y92550D01*
X71050D01*
X70849Y93036D01*
X70236Y93649D01*
X69750Y93850D01*
D02*
G37*
G36*
X68250D02*
X67765Y93649D01*
X67151Y93036D01*
X66950Y92550D01*
X68250D01*
Y93850D01*
D02*
G37*
G36*
X276050Y92050D02*
Y90750D01*
X277350D01*
X277149Y91236D01*
X276536Y91849D01*
X276050Y92050D01*
D02*
G37*
G36*
X274550D02*
X274064Y91849D01*
X273451Y91236D01*
X273250Y90750D01*
X274550D01*
Y92050D01*
D02*
G37*
G36*
X262659Y92320D02*
X259600D01*
Y90442D01*
X262659D01*
Y92320D01*
D02*
G37*
G36*
X258600D02*
X255541D01*
Y90442D01*
X258600D01*
Y92320D01*
D02*
G37*
G36*
X254659D02*
X251600D01*
Y90442D01*
X254659D01*
Y92320D01*
D02*
G37*
G36*
X250600D02*
X247541D01*
Y90442D01*
X250600D01*
Y92320D01*
D02*
G37*
G36*
X239659D02*
X236600D01*
Y90442D01*
X239659D01*
Y92320D01*
D02*
G37*
G36*
X71050Y91050D02*
X69750D01*
Y89750D01*
X70236Y89951D01*
X70849Y90565D01*
X71050Y91050D01*
D02*
G37*
G36*
X68250D02*
X66950D01*
X67151Y90565D01*
X67765Y89951D01*
X68250Y89750D01*
Y91050D01*
D02*
G37*
G36*
X277350Y89250D02*
X276050D01*
Y87950D01*
X276536Y88151D01*
X277149Y88765D01*
X277350Y89250D01*
D02*
G37*
G36*
X274550D02*
X273250D01*
X273451Y88765D01*
X274064Y88151D01*
X274550Y87950D01*
Y89250D01*
D02*
G37*
G36*
X168350Y89150D02*
Y87850D01*
X169650D01*
X169449Y88336D01*
X168835Y88949D01*
X168350Y89150D01*
D02*
G37*
G36*
X166850D02*
X166365Y88949D01*
X165751Y88336D01*
X165550Y87850D01*
X166850D01*
Y89150D01*
D02*
G37*
G36*
X40414Y94971D02*
X27960D01*
Y87044D01*
X40414D01*
Y94971D01*
D02*
G37*
G36*
X26460D02*
X14005D01*
Y87044D01*
X26460D01*
Y94971D01*
D02*
G37*
G36*
X259550Y87150D02*
Y85850D01*
X260850D01*
X260649Y86335D01*
X260035Y86949D01*
X259550Y87150D01*
D02*
G37*
G36*
X258050D02*
X257564Y86949D01*
X256951Y86335D01*
X256750Y85850D01*
X258050D01*
Y87150D01*
D02*
G37*
G36*
X169650Y86350D02*
X168350D01*
Y85050D01*
X168835Y85251D01*
X169449Y85865D01*
X169650Y86350D01*
D02*
G37*
G36*
X166850D02*
X165550D01*
X165751Y85865D01*
X166365Y85251D01*
X166850Y85050D01*
Y86350D01*
D02*
G37*
G36*
X260850Y84350D02*
X259550D01*
Y83050D01*
X260035Y83251D01*
X260649Y83864D01*
X260850Y84350D01*
D02*
G37*
G36*
X258050D02*
X256750D01*
X256951Y83864D01*
X257564Y83251D01*
X258050Y83050D01*
Y84350D01*
D02*
G37*
G36*
X213909Y87409D02*
X209408D01*
Y82209D01*
X213909D01*
Y83382D01*
X214453D01*
X214533Y83303D01*
X215225Y83016D01*
X215975D01*
X216667Y83303D01*
X217197Y83833D01*
X217484Y84525D01*
Y85275D01*
X217197Y85967D01*
X216667Y86497D01*
X215975Y86784D01*
X215225D01*
X214533Y86497D01*
X214408Y86373D01*
X213909Y86566D01*
Y87409D01*
D02*
G37*
G36*
X280600Y81615D02*
X278919D01*
Y79540D01*
X280600D01*
Y81615D01*
D02*
G37*
G36*
X220750Y80350D02*
Y79050D01*
X222050D01*
X221849Y79536D01*
X221235Y80149D01*
X220750Y80350D01*
D02*
G37*
G36*
X219250D02*
X218764Y80149D01*
X218151Y79536D01*
X217950Y79050D01*
X219250D01*
Y80350D01*
D02*
G37*
G36*
X40414Y85544D02*
X27960D01*
Y77617D01*
X40414D01*
Y85544D01*
D02*
G37*
G36*
X26460D02*
X14005D01*
Y77617D01*
X26460D01*
Y85544D01*
D02*
G37*
G36*
X179050Y78150D02*
Y76850D01*
X180350D01*
X180149Y77336D01*
X179535Y77949D01*
X179050Y78150D01*
D02*
G37*
G36*
X177550D02*
X177065Y77949D01*
X176451Y77336D01*
X176250Y76850D01*
X177550D01*
Y78150D01*
D02*
G37*
G36*
X280600Y78540D02*
X278919D01*
Y76465D01*
X280600D01*
Y78540D01*
D02*
G37*
G36*
X222050Y77550D02*
X220750D01*
Y76250D01*
X221235Y76451D01*
X221849Y77065D01*
X222050Y77550D01*
D02*
G37*
G36*
X219250D02*
X217950D01*
X218151Y77065D01*
X218764Y76451D01*
X219250Y76250D01*
Y77550D01*
D02*
G37*
G36*
X237350Y76250D02*
Y74950D01*
X238650D01*
X238449Y75436D01*
X237836Y76049D01*
X237350Y76250D01*
D02*
G37*
G36*
X235850D02*
X235365Y76049D01*
X234751Y75436D01*
X234550Y74950D01*
X235850D01*
Y76250D01*
D02*
G37*
G36*
X167050Y75350D02*
Y74050D01*
X168350D01*
X168149Y74536D01*
X167535Y75149D01*
X167050Y75350D01*
D02*
G37*
G36*
X165550D02*
X165065Y75149D01*
X164451Y74536D01*
X164250Y74050D01*
X165550D01*
Y75350D01*
D02*
G37*
G36*
X180350Y75350D02*
X179050D01*
Y74050D01*
X179535Y74251D01*
X180149Y74865D01*
X180350Y75350D01*
D02*
G37*
G36*
X177550D02*
X176250D01*
X176451Y74865D01*
X177065Y74251D01*
X177550Y74050D01*
Y75350D01*
D02*
G37*
G36*
X235850Y73450D02*
X234550D01*
X234751Y72965D01*
X235365Y72351D01*
X235850Y72150D01*
Y73450D01*
D02*
G37*
G36*
X238650D02*
X237350D01*
Y72150D01*
X237836Y72351D01*
X238449Y72965D01*
X238650Y73450D01*
D02*
G37*
G36*
X168350Y72550D02*
X167050D01*
Y71250D01*
X167535Y71451D01*
X168149Y72065D01*
X168350Y72550D01*
D02*
G37*
G36*
X165550D02*
X164250D01*
X164451Y72065D01*
X165065Y71451D01*
X165550Y71250D01*
Y72550D01*
D02*
G37*
G36*
X193850Y71450D02*
Y70150D01*
X195150D01*
X194949Y70635D01*
X194335Y71249D01*
X193850Y71450D01*
D02*
G37*
G36*
X192350D02*
X191865Y71249D01*
X191251Y70635D01*
X191050Y70150D01*
X192350D01*
Y71450D01*
D02*
G37*
G36*
X195150Y68650D02*
X193850D01*
Y67350D01*
X194335Y67551D01*
X194949Y68164D01*
X195150Y68650D01*
D02*
G37*
G36*
X192350D02*
X191050D01*
X191251Y68164D01*
X191865Y67551D01*
X192350Y67350D01*
Y68650D01*
D02*
G37*
G36*
X199250Y87450D02*
X198850D01*
X198750Y87450D01*
X194350D01*
Y82250D01*
X195071D01*
Y80414D01*
X194836Y80179D01*
X194519Y79414D01*
Y78586D01*
X194836Y77821D01*
X195421Y77236D01*
X196186Y76919D01*
X197014D01*
X197779Y77236D01*
X198364Y77821D01*
X198681Y78586D01*
Y79414D01*
X198364Y80179D01*
X198129Y80414D01*
Y82250D01*
X198750D01*
X198850Y82250D01*
X199250D01*
X199350Y82250D01*
X199971D01*
Y73900D01*
X200087Y73315D01*
X200419Y72819D01*
X218015Y55222D01*
X218511Y54891D01*
X219096Y54775D01*
X220907D01*
Y54423D01*
X225457D01*
Y58185D01*
X220907D01*
Y57833D01*
X219729D01*
X218250Y59313D01*
X218442Y59775D01*
X220907D01*
Y59423D01*
X225457D01*
Y63185D01*
X220907D01*
Y62833D01*
X217530D01*
X216050Y64313D01*
X216242Y64775D01*
X220907D01*
Y64423D01*
X225457D01*
Y68185D01*
X220907D01*
Y67833D01*
X215230D01*
X213729Y69333D01*
Y77586D01*
X213964Y77821D01*
X214281Y78586D01*
Y79414D01*
X213964Y80179D01*
X213379Y80764D01*
X212614Y81081D01*
X211786D01*
X211021Y80764D01*
X210436Y80179D01*
X210119Y79414D01*
Y78586D01*
X210436Y77821D01*
X210671Y77586D01*
Y70346D01*
X210209Y70154D01*
X208029Y72334D01*
Y82250D01*
X208750D01*
Y87450D01*
X204250D01*
Y82250D01*
X204971D01*
Y73246D01*
X204509Y73054D01*
X203029Y74533D01*
Y82250D01*
X203750D01*
Y87450D01*
X199350D01*
X199250Y87450D01*
D02*
G37*
G36*
X170247Y67150D02*
X165048D01*
Y62650D01*
X170247D01*
Y63473D01*
X171191D01*
X171811Y63216D01*
X172560D01*
X173253Y63503D01*
X173783Y64033D01*
X174070Y64725D01*
Y65475D01*
X173783Y66167D01*
X173253Y66697D01*
X172560Y66984D01*
X171811D01*
X171118Y66697D01*
X170748Y66328D01*
X170247D01*
Y67150D01*
D02*
G37*
G36*
X234750Y63650D02*
Y62350D01*
X236050D01*
X235849Y62836D01*
X235236Y63449D01*
X234750Y63650D01*
D02*
G37*
G36*
X233250D02*
X232765Y63449D01*
X232151Y62836D01*
X231950Y62350D01*
X233250D01*
Y63650D01*
D02*
G37*
G36*
X30716Y69718D02*
Y61650D01*
X34945D01*
Y64837D01*
X34776Y66126D01*
X34278Y67327D01*
X33487Y68358D01*
X32455Y69150D01*
X31254Y69647D01*
X30716Y69718D01*
D02*
G37*
G36*
X29216D02*
X28677Y69647D01*
X27476Y69150D01*
X26445Y68358D01*
X25653Y67327D01*
X25156Y66126D01*
X24986Y64837D01*
Y61650D01*
X29216D01*
Y69718D01*
D02*
G37*
G36*
X236050Y60850D02*
X234750D01*
Y59550D01*
X235236Y59751D01*
X235849Y60365D01*
X236050Y60850D01*
D02*
G37*
G36*
X233250D02*
X231950D01*
X232151Y60365D01*
X232765Y59751D01*
X233250Y59550D01*
Y60850D01*
D02*
G37*
G36*
X163947Y67150D02*
X158747D01*
Y62650D01*
X159920D01*
Y61155D01*
X158482D01*
Y56605D01*
X164213D01*
Y61155D01*
X162775D01*
Y62650D01*
X163947D01*
Y67150D01*
D02*
G37*
G36*
X12912Y65934D02*
X11586D01*
X10306Y65591D01*
X9158Y64928D01*
X8221Y63991D01*
X7558Y62843D01*
X7215Y61563D01*
Y60237D01*
X7558Y58957D01*
X8221Y57809D01*
X9158Y56872D01*
X10306Y56209D01*
X11586Y55866D01*
X12912D01*
X14192Y56209D01*
X15340Y56872D01*
X16277Y57809D01*
X16940Y58957D01*
X17283Y60237D01*
Y61563D01*
X16940Y62843D01*
X16277Y63991D01*
X15340Y64928D01*
X14192Y65591D01*
X12912Y65934D01*
D02*
G37*
G36*
X168328Y57715D02*
X165663D01*
Y55640D01*
X168328D01*
Y57715D01*
D02*
G37*
G36*
X171993D02*
X169328D01*
Y55140D01*
Y52565D01*
X171993D01*
Y52693D01*
X173740D01*
X174677Y52879D01*
X175470Y53410D01*
X176001Y54204D01*
X176187Y55140D01*
X176001Y56077D01*
X175470Y56871D01*
X174677Y57401D01*
X173740Y57587D01*
X171993D01*
Y57715D01*
D02*
G37*
G36*
X168328Y54640D02*
X165663D01*
Y52565D01*
X168328D01*
Y54640D01*
D02*
G37*
G36*
X34945Y60150D02*
X30716D01*
Y52082D01*
X31254Y52153D01*
X32455Y52651D01*
X33487Y53442D01*
X34278Y54473D01*
X34776Y55674D01*
X34945Y56963D01*
Y60150D01*
D02*
G37*
G36*
X29216D02*
X24986D01*
Y56963D01*
X25156Y55674D01*
X25653Y54473D01*
X26445Y53442D01*
X27476Y52651D01*
X28677Y52153D01*
X29216Y52082D01*
Y60150D01*
D02*
G37*
G36*
X225757Y53485D02*
X223682D01*
Y51804D01*
X225757D01*
Y53485D01*
D02*
G37*
G36*
X222682D02*
X220607D01*
Y51804D01*
X222682D01*
Y53485D01*
D02*
G37*
G36*
X182450Y51650D02*
Y50350D01*
X183750D01*
X183549Y50836D01*
X182936Y51449D01*
X182450Y51650D01*
D02*
G37*
G36*
X180950D02*
X180464Y51449D01*
X179851Y50836D01*
X179650Y50350D01*
X180950D01*
Y51650D01*
D02*
G37*
G36*
X173450Y51450D02*
Y50150D01*
X174750D01*
X174549Y50635D01*
X173935Y51249D01*
X173450Y51450D01*
D02*
G37*
G36*
X171950D02*
X171465Y51249D01*
X170851Y50635D01*
X170650Y50150D01*
X171950D01*
Y51450D01*
D02*
G37*
G36*
X225757Y50804D02*
X223682D01*
Y49123D01*
X225757D01*
Y50804D01*
D02*
G37*
G36*
X222682D02*
X220607D01*
Y49123D01*
X222682D01*
Y50804D01*
D02*
G37*
G36*
X183750Y48850D02*
X182450D01*
Y47550D01*
X182936Y47751D01*
X183549Y48364D01*
X183750Y48850D01*
D02*
G37*
G36*
X180950D02*
X179650D01*
X179851Y48364D01*
X180464Y47751D01*
X180950Y47550D01*
Y48850D01*
D02*
G37*
G36*
X174750Y48650D02*
X173450D01*
Y47350D01*
X173935Y47551D01*
X174549Y48164D01*
X174750Y48650D01*
D02*
G37*
G36*
X171950D02*
X170650D01*
X170851Y48164D01*
X171465Y47551D01*
X171950Y47350D01*
Y48650D01*
D02*
G37*
G36*
X238750Y47350D02*
Y46050D01*
X240050D01*
X239849Y46536D01*
X239235Y47149D01*
X238750Y47350D01*
D02*
G37*
G36*
X237250D02*
X236765Y47149D01*
X236151Y46536D01*
X235950Y46050D01*
X237250D01*
Y47350D01*
D02*
G37*
G36*
X265650Y46450D02*
X261373D01*
X261204Y46198D01*
X259900D01*
Y44320D01*
X262959D01*
Y44881D01*
X263166Y45019D01*
X264034D01*
X264836Y45351D01*
X265449Y45965D01*
X265650Y46450D01*
D02*
G37*
G36*
X254959Y46198D02*
X251900D01*
Y44320D01*
X254959D01*
Y46198D01*
D02*
G37*
G36*
X258900D02*
X255841D01*
Y44320D01*
X258900D01*
Y46198D01*
D02*
G37*
G36*
X250900D02*
X247841D01*
Y44320D01*
X250900D01*
Y46198D01*
D02*
G37*
G36*
X240050Y44550D02*
X238750D01*
Y43250D01*
X239235Y43451D01*
X239849Y44065D01*
X240050Y44550D01*
D02*
G37*
G36*
X237250D02*
X235950D01*
X236151Y44065D01*
X236765Y43451D01*
X237250Y43250D01*
Y44550D01*
D02*
G37*
G36*
X46501Y46982D02*
X43314D01*
Y42752D01*
X51382D01*
X51311Y43291D01*
X50814Y44492D01*
X50022Y45524D01*
X48991Y46315D01*
X47790Y46812D01*
X46501Y46982D01*
D02*
G37*
G36*
X262959Y43320D02*
X259900D01*
Y41442D01*
X262959D01*
Y43320D01*
D02*
G37*
G36*
X258900D02*
X255841D01*
Y41442D01*
X258900D01*
Y43320D01*
D02*
G37*
G36*
X254959D02*
X251900D01*
Y41442D01*
X254959D01*
Y43320D01*
D02*
G37*
G36*
X250900D02*
X247841D01*
Y41442D01*
X250900D01*
Y43320D01*
D02*
G37*
G36*
X265318Y40559D02*
X263440D01*
Y37500D01*
X265318D01*
Y40559D01*
D02*
G37*
G36*
X262440D02*
X260562D01*
Y37500D01*
X262440D01*
Y40559D01*
D02*
G37*
G36*
X51382Y41252D02*
X43314D01*
Y37023D01*
X46501D01*
X47790Y37192D01*
X48991Y37690D01*
X50022Y38481D01*
X50814Y39513D01*
X51311Y40714D01*
X51382Y41252D01*
D02*
G37*
G36*
X41814Y46982D02*
X38627D01*
X37338Y46812D01*
X36137Y46315D01*
X35106Y45524D01*
X34315Y44492D01*
X34187Y44183D01*
X27960D01*
Y36256D01*
X40414D01*
Y37023D01*
X41814D01*
Y42002D01*
Y46982D01*
D02*
G37*
G36*
X26460Y44183D02*
X14005D01*
Y36256D01*
X26460D01*
Y44183D01*
D02*
G37*
G36*
X247850Y37050D02*
Y35750D01*
X249150D01*
X248949Y36235D01*
X248336Y36849D01*
X247850Y37050D01*
D02*
G37*
G36*
X246350D02*
X245865Y36849D01*
X245251Y36235D01*
X245050Y35750D01*
X246350D01*
Y37050D01*
D02*
G37*
G36*
X265318Y36500D02*
X263440D01*
Y33441D01*
X265318D01*
Y36500D01*
D02*
G37*
G36*
X262440D02*
X260562D01*
Y33441D01*
X262440D01*
Y36500D01*
D02*
G37*
G36*
X249150Y34250D02*
X247850D01*
Y32950D01*
X248336Y33151D01*
X248949Y33764D01*
X249150Y34250D01*
D02*
G37*
G36*
X246350D02*
X245050D01*
X245251Y33764D01*
X245865Y33151D01*
X246350Y32950D01*
Y34250D01*
D02*
G37*
G36*
X40414Y34756D02*
X27960D01*
Y26829D01*
X40414D01*
Y34756D01*
D02*
G37*
G36*
X26460D02*
X14005D01*
Y26829D01*
X26460D01*
Y34756D01*
D02*
G37*
G36*
X263598Y29659D02*
X261720D01*
Y26600D01*
X263598D01*
Y29659D01*
D02*
G37*
G36*
X260720D02*
X258842D01*
Y26600D01*
X260720D01*
Y29659D01*
D02*
G37*
G36*
X257538Y40259D02*
X253382D01*
Y37574D01*
X253268Y37000D01*
Y27283D01*
X252699D01*
Y23717D01*
X254264D01*
X254627Y23475D01*
X255466Y23308D01*
X256305Y23475D01*
X256667Y23717D01*
X258232D01*
Y27283D01*
X257652D01*
Y37000D01*
X257538Y37574D01*
Y40259D01*
D02*
G37*
G36*
X263598Y25600D02*
X258842D01*
Y22541D01*
Y19600D01*
X263598D01*
Y22541D01*
Y25600D01*
D02*
G37*
G36*
X256750Y20150D02*
Y18850D01*
X258050D01*
X257849Y19335D01*
X257236Y19949D01*
X256750Y20150D01*
D02*
G37*
G36*
X258050Y17350D02*
X256750D01*
Y16050D01*
X257236Y16251D01*
X257849Y16864D01*
X258050Y17350D01*
D02*
G37*
G36*
X263598Y18600D02*
X261720D01*
Y15541D01*
X263598D01*
Y18600D01*
D02*
G37*
G36*
X260720D02*
X258842D01*
Y15541D01*
X260720D01*
Y18600D01*
D02*
G37*
G36*
X263598Y14702D02*
X261720D01*
Y11643D01*
X263598D01*
Y14702D01*
D02*
G37*
G36*
X260720D02*
X258842D01*
Y11643D01*
X260720D01*
Y14702D01*
D02*
G37*
G36*
X256650Y9950D02*
Y8650D01*
X257950D01*
X257749Y9136D01*
X257136Y9749D01*
X256650Y9950D01*
D02*
G37*
G36*
X263598Y10643D02*
X261720D01*
Y7584D01*
X263598D01*
Y10643D01*
D02*
G37*
G36*
X260720D02*
X258842D01*
Y7584D01*
X260720D01*
Y10643D01*
D02*
G37*
G36*
X257950Y7150D02*
X256650D01*
Y5850D01*
X257136Y6051D01*
X257749Y6664D01*
X257950Y7150D01*
D02*
G37*
G36*
X270600Y29818D02*
X266700D01*
X266349Y29748D01*
X266051Y29549D01*
X265051Y28549D01*
X264852Y28251D01*
X264782Y27900D01*
Y10206D01*
X264852Y9855D01*
X265051Y9557D01*
X266622Y7987D01*
Y7884D01*
X266724D01*
X271458Y3151D01*
X271755Y2952D01*
X272106Y2882D01*
X282600D01*
X282951Y2952D01*
X283249Y3151D01*
X285187Y5089D01*
X285386Y5387D01*
X285456Y5738D01*
Y11062D01*
X285386Y11413D01*
X285187Y11711D01*
X283801Y13097D01*
X283730Y13189D01*
X283638Y13260D01*
X283137Y13761D01*
X283012Y13844D01*
X283029Y14393D01*
X283181Y14456D01*
X283801Y14932D01*
X284277Y15552D01*
X284576Y16274D01*
X284612Y16549D01*
X280700D01*
X276787D01*
X276824Y16274D01*
X277123Y15552D01*
X277599Y14932D01*
X278123Y14529D01*
X278045Y14129D01*
X277992Y14029D01*
X274668D01*
X272818Y15880D01*
X272818Y27600D01*
X272748Y27951D01*
X272549Y28249D01*
X271249Y29549D01*
X270951Y29748D01*
X270600Y29818D01*
D02*
G37*
%LPD*%
G36*
X106745Y202311D02*
Y194437D01*
X104875Y192567D01*
X90800Y192567D01*
X88635Y194732D01*
Y202410D01*
X90505Y204279D01*
X104777Y204280D01*
X106745Y202311D01*
D02*
G37*
G36*
X61174Y186268D02*
X65210Y182232D01*
X81647Y182232D01*
X84501Y179378D01*
Y174850D01*
X82533Y172882D01*
X78005D01*
X75700Y170577D01*
Y161325D01*
X71804Y157429D01*
X55859D01*
X50052Y163236D01*
Y183020D01*
X53300Y186268D01*
X61174Y186268D01*
D02*
G37*
G36*
X92474Y164122D02*
Y161366D01*
X93655Y160185D01*
X101135D01*
X102316Y159004D01*
Y156248D01*
X100741Y154673D01*
X79481D01*
X77907Y156248D01*
Y163728D01*
X79481Y165303D01*
X91292D01*
X92474Y164122D01*
D02*
G37*
G36*
X122263Y153460D02*
Y150815D01*
X121148Y149700D01*
X121148Y145278D01*
X120371Y144696D01*
X117337D01*
X116649Y145385D01*
X116649Y149215D01*
X115329Y150536D01*
Y153341D01*
X116096Y154108D01*
X121579Y154144D01*
X122263Y153460D01*
D02*
G37*
G36*
X125942Y169013D02*
X128548Y166394D01*
Y150800D01*
X133247Y146100D01*
X137804Y146100D01*
Y141636D01*
X139454D01*
Y146435D01*
X139089D01*
X138897Y146897D01*
X139000Y147000D01*
Y149200D01*
X137400Y150800D01*
X132600Y150800D01*
X130648Y152752D01*
Y158400D01*
X132448Y160200D01*
X151447D01*
X153147Y158500D01*
Y152248D01*
X151700Y150800D01*
X146700Y150800D01*
X145100Y149200D01*
Y146700D01*
X144990Y146435D01*
X144454D01*
Y141636D01*
X146103D01*
Y145043D01*
X146565Y145235D01*
X148600Y143200D01*
Y132852D01*
X144847Y129100D01*
X119031D01*
X118277Y129854D01*
Y141697D01*
X119045Y142465D01*
X121112D01*
X124548Y145900D01*
Y163316D01*
X122246Y165618D01*
X115848D01*
X115266Y166199D01*
Y168556D01*
X115773Y169063D01*
X115803D01*
X125942Y169013D01*
D02*
G37*
G36*
X101922Y152825D02*
Y152276D01*
Y150343D01*
X102710Y149555D01*
X114692Y149555D01*
X115702Y148546D01*
Y144043D01*
X117277Y142469D01*
Y128295D01*
X116489Y127508D01*
X109009D01*
X108221Y128295D01*
Y129476D01*
X106647Y131051D01*
X96017D01*
X94048Y133020D01*
Y153079D01*
X94583Y153614D01*
X101134D01*
X101922Y152825D01*
D02*
G37*
%LPC*%
G36*
X146103Y136636D02*
X144454D01*
Y131837D01*
X146103D01*
Y136636D01*
D02*
G37*
G36*
X139454D02*
X137804D01*
Y131837D01*
X139454D01*
Y136636D01*
D02*
G37*
%LPD*%
G36*
X271900Y27600D02*
X271900Y15500D01*
X274288Y13112D01*
X282488D01*
X284538Y11062D01*
Y5738D01*
X282600Y3800D01*
X272106D01*
X265700Y10206D01*
Y27900D01*
X266700Y28900D01*
X270600D01*
X271900Y27600D01*
D02*
G37*
%LPC*%
G36*
X188306Y165418D02*
X185248D01*
Y163540D01*
X188306D01*
Y165418D01*
D02*
G37*
G36*
X184248D02*
X181188D01*
Y163540D01*
X184248D01*
Y165418D01*
D02*
G37*
G36*
X180306Y165378D02*
X177248D01*
Y163500D01*
X180306D01*
Y165378D01*
D02*
G37*
G36*
X176248D02*
X173188D01*
Y163500D01*
X176248D01*
Y165378D01*
D02*
G37*
G36*
X188306Y162540D02*
X185248D01*
Y160662D01*
X188306D01*
Y162540D01*
D02*
G37*
G36*
X184248D02*
X181188D01*
Y160662D01*
X184248D01*
Y162540D01*
D02*
G37*
G36*
X180306Y162500D02*
X177248D01*
Y160622D01*
X180306D01*
Y162500D01*
D02*
G37*
G36*
X176248D02*
X173188D01*
Y160622D01*
X176248D01*
Y162500D01*
D02*
G37*
G36*
X254659Y102678D02*
X252100D01*
Y101300D01*
X254659D01*
Y102678D01*
D02*
G37*
G36*
X262659D02*
X260100D01*
Y101300D01*
X262659D01*
Y102678D01*
D02*
G37*
G36*
X239659D02*
X237100D01*
Y101300D01*
X239659D01*
Y102678D01*
D02*
G37*
G36*
X265100Y102875D02*
X263919D01*
Y101300D01*
X265100D01*
Y102875D01*
D02*
G37*
G36*
X250100Y102678D02*
X247541D01*
Y101300D01*
X250100D01*
Y102678D01*
D02*
G37*
G36*
X228100D02*
X225541D01*
Y101300D01*
X228100D01*
Y102678D01*
D02*
G37*
G36*
X258100D02*
X255541D01*
Y101300D01*
X258100D01*
Y102678D01*
D02*
G37*
G36*
X262659Y99300D02*
X260100D01*
Y97922D01*
X262659D01*
Y99300D01*
D02*
G37*
G36*
X258100D02*
X255541D01*
Y97922D01*
X258100D01*
Y99300D01*
D02*
G37*
G36*
X254659D02*
X252100D01*
Y97922D01*
X254659D01*
Y99300D01*
D02*
G37*
G36*
X250100D02*
X247541D01*
Y97922D01*
X250100D01*
Y99300D01*
D02*
G37*
G36*
X239659D02*
X237100D01*
Y97922D01*
X239659D01*
Y99300D01*
D02*
G37*
G36*
X235100Y102678D02*
X230100D01*
Y100300D01*
Y97922D01*
X235100D01*
Y100300D01*
Y102678D01*
D02*
G37*
G36*
X228100Y99300D02*
X225541D01*
Y97922D01*
X228100D01*
Y99300D01*
D02*
G37*
G36*
X265100D02*
X263919D01*
Y97725D01*
X265100D01*
Y99300D01*
D02*
G37*
G36*
X302350Y105950D02*
Y104650D01*
X303650D01*
X303449Y105136D01*
X302835Y105749D01*
X302350Y105950D01*
D02*
G37*
G36*
X300850D02*
X300364Y105749D01*
X299751Y105136D01*
X299550Y104650D01*
X300850D01*
Y105950D01*
D02*
G37*
G36*
X346550Y105450D02*
Y104150D01*
X347850D01*
X347649Y104636D01*
X347036Y105249D01*
X346550Y105450D01*
D02*
G37*
G36*
X345050D02*
X344565Y105249D01*
X343951Y104636D01*
X343750Y104150D01*
X345050D01*
Y105450D01*
D02*
G37*
G36*
X318087Y105609D02*
Y103170D01*
X320527D01*
X320354Y103815D01*
X319963Y104492D01*
X319410Y105045D01*
X318733Y105436D01*
X318087Y105609D01*
D02*
G37*
G36*
X317087D02*
X316442Y105436D01*
X315765Y105045D01*
X315212Y104492D01*
X314821Y103815D01*
X314648Y103170D01*
X317087D01*
Y105609D01*
D02*
G37*
G36*
X303650Y103150D02*
X302350D01*
Y101850D01*
X302835Y102051D01*
X303449Y102664D01*
X303650Y103150D01*
D02*
G37*
G36*
X300850D02*
X299550D01*
X299751Y102664D01*
X300364Y102051D01*
X300850Y101850D01*
Y103150D01*
D02*
G37*
G36*
X347850Y102650D02*
X346550D01*
Y101350D01*
X347036Y101551D01*
X347649Y102164D01*
X347850Y102650D01*
D02*
G37*
G36*
X345050D02*
X343750D01*
X343951Y102164D01*
X344565Y101551D01*
X345050Y101350D01*
Y102650D01*
D02*
G37*
G36*
X309450Y101250D02*
Y99950D01*
X310750D01*
X310549Y100435D01*
X309935Y101049D01*
X309450Y101250D01*
D02*
G37*
G36*
X307950D02*
X307465Y101049D01*
X306851Y100435D01*
X306650Y99950D01*
X307950D01*
Y101250D01*
D02*
G37*
G36*
X332107Y105538D02*
X331352D01*
X330622Y105342D01*
X329968Y104965D01*
X329434Y104431D01*
X329057Y103777D01*
X328861Y103047D01*
Y102292D01*
X329057Y101562D01*
X329434Y100908D01*
X329968Y100374D01*
X330622Y99997D01*
X331352Y99801D01*
X332107D01*
X332837Y99997D01*
X333491Y100374D01*
X334025Y100908D01*
X334403Y101562D01*
X334598Y102292D01*
Y103047D01*
X334403Y103777D01*
X334025Y104431D01*
X333491Y104965D01*
X332837Y105342D01*
X332107Y105538D01*
D02*
G37*
G36*
X320527Y102170D02*
X318087D01*
Y99730D01*
X318733Y99903D01*
X319410Y100294D01*
X319963Y100847D01*
X320354Y101524D01*
X320527Y102170D01*
D02*
G37*
G36*
X317087D02*
X314648D01*
X314821Y101524D01*
X315212Y100847D01*
X315765Y100294D01*
X316442Y99903D01*
X317087Y99730D01*
Y102170D01*
D02*
G37*
G36*
X358250Y99350D02*
Y98050D01*
X359550D01*
X359349Y98536D01*
X358735Y99149D01*
X358250Y99350D01*
D02*
G37*
G36*
X356750D02*
X356264Y99149D01*
X355651Y98536D01*
X355450Y98050D01*
X356750D01*
Y99350D01*
D02*
G37*
G36*
X310750Y98450D02*
X309450D01*
Y97150D01*
X309935Y97351D01*
X310549Y97965D01*
X310750Y98450D01*
D02*
G37*
G36*
X307950D02*
X306650D01*
X306851Y97965D01*
X307465Y97351D01*
X307950Y97150D01*
Y98450D01*
D02*
G37*
G36*
X359550Y96550D02*
X358250D01*
Y95250D01*
X358735Y95451D01*
X359349Y96065D01*
X359550Y96550D01*
D02*
G37*
G36*
X356750D02*
X355450D01*
X355651Y96065D01*
X356264Y95451D01*
X356750Y95250D01*
Y96550D01*
D02*
G37*
G36*
X308150Y95150D02*
Y93850D01*
X309450D01*
X309249Y94336D01*
X308635Y94949D01*
X308150Y95150D01*
D02*
G37*
G36*
X306650D02*
X306165Y94949D01*
X305551Y94336D01*
X305350Y93850D01*
X306650D01*
Y95150D01*
D02*
G37*
G36*
X309450Y92350D02*
X308150D01*
Y91050D01*
X308635Y91251D01*
X309249Y91865D01*
X309450Y92350D01*
D02*
G37*
G36*
X306650D02*
X305350D01*
X305551Y91865D01*
X306165Y91251D01*
X306650Y91050D01*
Y92350D01*
D02*
G37*
G36*
X341050Y91150D02*
Y89850D01*
X342350D01*
X342149Y90336D01*
X341535Y90949D01*
X341050Y91150D01*
D02*
G37*
G36*
X339550D02*
X339065Y90949D01*
X338451Y90336D01*
X338250Y89850D01*
X339550D01*
Y91150D01*
D02*
G37*
G36*
X342350Y88350D02*
X341050D01*
Y87050D01*
X341535Y87251D01*
X342149Y87865D01*
X342350Y88350D01*
D02*
G37*
G36*
X339550D02*
X338250D01*
X338451Y87865D01*
X339065Y87251D01*
X339550Y87050D01*
Y88350D01*
D02*
G37*
G36*
X332107Y91396D02*
X331352D01*
X330622Y91200D01*
X329968Y90823D01*
X329434Y90289D01*
X329057Y89635D01*
X328861Y88905D01*
Y88150D01*
X329057Y87420D01*
X329434Y86766D01*
X329968Y86232D01*
X330622Y85854D01*
X331352Y85659D01*
X332107D01*
X332837Y85854D01*
X333491Y86232D01*
X334025Y86766D01*
X334403Y87420D01*
X334598Y88150D01*
Y88905D01*
X334403Y89635D01*
X334025Y90289D01*
X333491Y90823D01*
X332837Y91200D01*
X332107Y91396D01*
D02*
G37*
G36*
X333647Y77550D02*
X328448D01*
Y73050D01*
X329569D01*
Y72250D01*
X329578Y72206D01*
Y71814D01*
X329338Y71670D01*
X329089Y71577D01*
X329047Y71586D01*
X328650Y71750D01*
Y69700D01*
Y67650D01*
X329010Y67799D01*
X329510Y67572D01*
Y65174D01*
X332603D01*
Y71495D01*
X332535D01*
Y72241D01*
X332526Y72285D01*
Y73050D01*
X333647D01*
Y77550D01*
D02*
G37*
G36*
X325831Y79314D02*
X296396D01*
X296045Y79244D01*
X295747Y79045D01*
X293651Y76949D01*
X293452Y76651D01*
X293382Y76300D01*
Y35600D01*
X293452Y35249D01*
X293651Y34951D01*
X294837Y33766D01*
X294959Y33330D01*
X294855Y33081D01*
X294507Y32627D01*
X294207Y31905D01*
X294171Y31630D01*
X298084D01*
X301996D01*
X301960Y31905D01*
X301661Y32627D01*
X301503Y32833D01*
X301517Y32982D01*
X301673Y33433D01*
X301849Y33551D01*
X303049Y34751D01*
X303248Y35049D01*
X303318Y35400D01*
Y68320D01*
X306280Y71282D01*
X323211Y71282D01*
Y65174D01*
X323278D01*
Y58798D01*
X321892D01*
Y54249D01*
X327622D01*
Y58303D01*
X327850Y58455D01*
Y60800D01*
Y62850D01*
X327364Y62649D01*
X326751Y62036D01*
X326735Y61998D01*
X326235Y62097D01*
Y65174D01*
X326303D01*
Y67559D01*
X326803Y67793D01*
X327150Y67650D01*
Y69700D01*
Y72008D01*
X326941Y72205D01*
Y72206D01*
X326954Y72340D01*
X326941Y72383D01*
Y72429D01*
X326889Y72554D01*
X327146Y73050D01*
X327347D01*
Y77550D01*
X326967D01*
X326710Y78046D01*
X326762Y78171D01*
Y78216D01*
X326775Y78260D01*
X326762Y78394D01*
Y78529D01*
X326745Y78571D01*
X326740Y78616D01*
X326684Y78721D01*
X326679Y78747D01*
X326659Y78776D01*
X326625Y78860D01*
X326594Y78906D01*
X326575Y78925D01*
X326571Y78932D01*
X326553Y78948D01*
X326530Y78970D01*
X326480Y79045D01*
X326405Y79095D01*
X326341Y79159D01*
X326257Y79194D01*
X326182Y79244D01*
X326094Y79262D01*
X326010Y79296D01*
X325920D01*
X325831Y79314D01*
D02*
G37*
G36*
X329350Y62850D02*
Y61550D01*
X330650D01*
X330449Y62036D01*
X329836Y62649D01*
X329350Y62850D01*
D02*
G37*
G36*
X330650Y60050D02*
X329350D01*
Y58750D01*
X329836Y58951D01*
X330449Y59565D01*
X330650Y60050D01*
D02*
G37*
G36*
X320442Y55358D02*
X317777D01*
Y53284D01*
X320442D01*
Y55358D01*
D02*
G37*
G36*
X316777D02*
X314111D01*
Y53284D01*
X316777D01*
Y55358D01*
D02*
G37*
G36*
X328950Y51350D02*
X328465Y51149D01*
X328122Y50807D01*
X327622Y51014D01*
Y51318D01*
X321892D01*
Y46769D01*
X321907D01*
X322157Y46372D01*
Y41872D01*
X327357D01*
Y46372D01*
X327607Y46769D01*
X327622D01*
Y47586D01*
X328122Y47793D01*
X328465Y47451D01*
X328950Y47250D01*
Y49300D01*
Y51350D01*
D02*
G37*
G36*
X320442Y52284D02*
X317777D01*
Y50209D01*
X320442D01*
Y52284D01*
D02*
G37*
G36*
X316777D02*
X314111D01*
Y50209D01*
X316777D01*
Y52284D01*
D02*
G37*
G36*
X330450Y51350D02*
Y50050D01*
X331750D01*
X331549Y50536D01*
X330936Y51149D01*
X330450Y51350D01*
D02*
G37*
G36*
X331750Y48550D02*
X330450D01*
Y47250D01*
X330936Y47451D01*
X331549Y48065D01*
X331750Y48550D01*
D02*
G37*
G36*
X314550Y46250D02*
Y44950D01*
X315850D01*
X315649Y45436D01*
X315036Y46049D01*
X314550Y46250D01*
D02*
G37*
G36*
X313050D02*
X312564Y46049D01*
X311951Y45436D01*
X311750Y44950D01*
X313050D01*
Y46250D01*
D02*
G37*
G36*
X357848Y46447D02*
X357020D01*
X356255Y46130D01*
X355670Y45545D01*
X355353Y44780D01*
Y43952D01*
X355670Y43187D01*
X356255Y42602D01*
X357020Y42285D01*
X357848D01*
X358613Y42602D01*
X359198Y43187D01*
X359515Y43952D01*
Y44780D01*
X359198Y45545D01*
X358613Y46130D01*
X357848Y46447D01*
D02*
G37*
G36*
X315850Y43450D02*
X314550D01*
Y42150D01*
X315036Y42351D01*
X315649Y42965D01*
X315850Y43450D01*
D02*
G37*
G36*
X313050D02*
X311750D01*
X311951Y42965D01*
X312564Y42351D01*
X313050Y42150D01*
Y43450D01*
D02*
G37*
G36*
X359650Y39450D02*
Y38150D01*
X360950D01*
X360749Y38636D01*
X360136Y39249D01*
X359650Y39450D01*
D02*
G37*
G36*
X358150D02*
X357664Y39249D01*
X357051Y38636D01*
X356850Y38150D01*
X358150D01*
Y39450D01*
D02*
G37*
G36*
X360950Y36650D02*
X359650D01*
Y35350D01*
X360136Y35551D01*
X360749Y36165D01*
X360950Y36650D01*
D02*
G37*
G36*
X358150D02*
X356850D01*
X357051Y36165D01*
X357664Y35551D01*
X358150Y35350D01*
Y36650D01*
D02*
G37*
G36*
X341461Y48489D02*
X340634D01*
X339869Y48172D01*
X339283Y47587D01*
X338966Y46822D01*
Y45994D01*
X339283Y45229D01*
X339518Y44994D01*
Y27481D01*
X329481Y17444D01*
X328981Y17651D01*
Y17834D01*
X328649Y18635D01*
X328035Y19249D01*
X327550Y19450D01*
Y17400D01*
X326800D01*
Y16650D01*
X324750D01*
X324951Y16164D01*
X325565Y15551D01*
X325826Y15443D01*
X325726Y14943D01*
X302691D01*
X301060Y16574D01*
X301041Y16587D01*
X301011Y17194D01*
X301114Y17273D01*
X301574Y17872D01*
X301863Y18570D01*
X301961Y19319D01*
X301863Y20068D01*
X301574Y20765D01*
X301114Y21365D01*
X301001Y21451D01*
X301043Y22049D01*
X301089Y22080D01*
X302755Y23746D01*
X314355D01*
X314690Y23246D01*
X314650Y23150D01*
X318750D01*
X318549Y23636D01*
X317935Y24249D01*
X317577Y24398D01*
X317479Y24888D01*
X329900Y37309D01*
X330324Y37026D01*
X330319Y37014D01*
Y36186D01*
X330636Y35421D01*
X331221Y34836D01*
X331986Y34519D01*
X332814D01*
X333579Y34836D01*
X333900Y35157D01*
X334221Y34836D01*
X334986Y34519D01*
X335814D01*
X336579Y34836D01*
X337164Y35421D01*
X337481Y36186D01*
Y37014D01*
X337164Y37779D01*
X336843Y38100D01*
X337164Y38421D01*
X337481Y39186D01*
Y40014D01*
X337164Y40779D01*
X336579Y41364D01*
X335814Y41681D01*
X334986D01*
X334221Y41364D01*
X333636Y40779D01*
X333319Y40014D01*
Y39186D01*
X333405Y38977D01*
X333023Y38595D01*
X332814Y38681D01*
X331986D01*
X331974Y38676D01*
X331691Y39100D01*
X332102Y39511D01*
X332423Y39991D01*
X332535Y40557D01*
Y41872D01*
X333657D01*
Y46372D01*
X328457D01*
Y41872D01*
X329578D01*
Y41169D01*
X315112Y26703D01*
X302742D01*
X301115Y28329D01*
X301069Y28495D01*
X301108Y28954D01*
X301185Y29013D01*
X301661Y29633D01*
X301960Y30355D01*
X301996Y30630D01*
X298084D01*
X294171D01*
X294207Y30355D01*
X294507Y29633D01*
X294971Y29027D01*
X294981Y29002D01*
X294915Y28434D01*
X294842Y28385D01*
X293619Y27162D01*
X293616Y27158D01*
X293612Y27155D01*
X293517Y27009D01*
X293420Y26864D01*
X293419Y26859D01*
X293416Y26855D01*
X293384Y26684D01*
X293350Y26513D01*
X293351Y26508D01*
X293350Y26503D01*
X293379Y23912D01*
X293415Y23741D01*
X293449Y23571D01*
X293452Y23567D01*
X293453Y23561D01*
X293551Y23418D01*
X293648Y23273D01*
X294842Y22080D01*
X295014Y21964D01*
X295096Y21530D01*
X295077Y21383D01*
X295054Y21365D01*
X294594Y20765D01*
X294305Y20068D01*
X294206Y19319D01*
X294305Y18570D01*
X294594Y17872D01*
X295054Y17273D01*
X295061Y17267D01*
X295083Y17131D01*
X295003Y16682D01*
X294842Y16574D01*
X293619Y15351D01*
X293616Y15347D01*
X293612Y15344D01*
X293517Y15198D01*
X293420Y15053D01*
X293419Y15048D01*
X293416Y15044D01*
X293384Y14873D01*
X293350Y14702D01*
X293351Y14697D01*
X293350Y14692D01*
X293379Y12101D01*
X293415Y11930D01*
X293449Y11760D01*
X293452Y11755D01*
X293453Y11750D01*
X293551Y11607D01*
X293648Y11462D01*
X294842Y10268D01*
X295014Y10153D01*
X295096Y9719D01*
X295077Y9572D01*
X295054Y9554D01*
X294594Y8954D01*
X294305Y8257D01*
X294206Y7508D01*
X294305Y6759D01*
X294594Y6061D01*
X295054Y5462D01*
X295653Y5002D01*
X296351Y4713D01*
X297099Y4615D01*
X299068D01*
X299817Y4713D01*
X300515Y5002D01*
X301114Y5462D01*
X301574Y6061D01*
X301863Y6759D01*
X301961Y7508D01*
X301863Y8257D01*
X301574Y8954D01*
X301114Y9554D01*
X301001Y9640D01*
X301043Y10238D01*
X301089Y10268D01*
X302704Y11884D01*
X304646D01*
X304743Y11691D01*
X304800Y11384D01*
X304251Y10836D01*
X304050Y10350D01*
X308150D01*
X307949Y10836D01*
X307400Y11384D01*
X307457Y11691D01*
X307554Y11884D01*
X327613D01*
X328199Y12000D01*
X328695Y12332D01*
X342129Y25766D01*
X342460Y26262D01*
X342577Y26847D01*
Y44994D01*
X342812Y45229D01*
X343129Y45994D01*
Y46822D01*
X342812Y47587D01*
X342226Y48172D01*
X341461Y48489D01*
D02*
G37*
G36*
X336050Y31050D02*
Y29750D01*
X337350D01*
X337149Y30235D01*
X336536Y30849D01*
X336050Y31050D01*
D02*
G37*
G36*
X334550D02*
X334065Y30849D01*
X333451Y30235D01*
X333250Y29750D01*
X334550D01*
Y31050D01*
D02*
G37*
G36*
X337350Y28250D02*
X336050D01*
Y26950D01*
X336536Y27151D01*
X337149Y27764D01*
X337350Y28250D01*
D02*
G37*
G36*
X334550D02*
X333250D01*
X333451Y27764D01*
X334065Y27151D01*
X334550Y26950D01*
Y28250D01*
D02*
G37*
G36*
X359650Y27450D02*
Y26150D01*
X360950D01*
X360749Y26636D01*
X360136Y27249D01*
X359650Y27450D01*
D02*
G37*
G36*
X358150D02*
X357664Y27249D01*
X357051Y26636D01*
X356850Y26150D01*
X358150D01*
Y27450D01*
D02*
G37*
G36*
X326950Y25750D02*
Y24450D01*
X328250D01*
X328049Y24936D01*
X327435Y25549D01*
X326950Y25750D01*
D02*
G37*
G36*
X325450D02*
X324964Y25549D01*
X324351Y24936D01*
X324150Y24450D01*
X325450D01*
Y25750D01*
D02*
G37*
G36*
X360950Y24650D02*
X359650D01*
Y23350D01*
X360136Y23551D01*
X360749Y24164D01*
X360950Y24650D01*
D02*
G37*
G36*
X358150D02*
X356850D01*
X357051Y24164D01*
X357664Y23551D01*
X358150Y23350D01*
Y24650D01*
D02*
G37*
G36*
X328250Y22950D02*
X326950D01*
Y21650D01*
X327435Y21851D01*
X328049Y22465D01*
X328250Y22950D01*
D02*
G37*
G36*
X325450D02*
X324150D01*
X324351Y22465D01*
X324964Y21851D01*
X325450Y21650D01*
Y22950D01*
D02*
G37*
G36*
X318750Y21650D02*
X317450D01*
Y20350D01*
X317935Y20551D01*
X318549Y21165D01*
X318750Y21650D01*
D02*
G37*
G36*
X315950D02*
X314650D01*
X314851Y21165D01*
X315464Y20551D01*
X315950Y20350D01*
Y21650D01*
D02*
G37*
G36*
X326050Y19450D02*
X325565Y19249D01*
X324951Y18635D01*
X324750Y18150D01*
X326050D01*
Y19450D01*
D02*
G37*
G36*
X357414Y17081D02*
X356586D01*
X355821Y16764D01*
X355700Y16643D01*
X355579Y16764D01*
X354814Y17081D01*
X353986D01*
X353221Y16764D01*
X352636Y16179D01*
X352319Y15414D01*
Y14586D01*
X352636Y13821D01*
X353221Y13236D01*
X353986Y12919D01*
X354814D01*
X355579Y13236D01*
X355700Y13357D01*
X355821Y13236D01*
X356586Y12919D01*
X357414D01*
X358179Y13236D01*
X358764Y13821D01*
X359081Y14586D01*
Y15414D01*
X358764Y16179D01*
X358179Y16764D01*
X357414Y17081D01*
D02*
G37*
G36*
X308150Y8850D02*
X306850D01*
Y7550D01*
X307335Y7751D01*
X307949Y8365D01*
X308150Y8850D01*
D02*
G37*
G36*
X305350D02*
X304050D01*
X304251Y8365D01*
X304865Y7751D01*
X305350Y7550D01*
Y8850D01*
D02*
G37*
G36*
X363050Y7450D02*
Y6150D01*
X364350D01*
X364149Y6635D01*
X363535Y7249D01*
X363050Y7450D01*
D02*
G37*
G36*
X361550D02*
X361065Y7249D01*
X360451Y6635D01*
X360250Y6150D01*
X361550D01*
Y7450D01*
D02*
G37*
G36*
X308850Y6750D02*
Y5450D01*
X310150D01*
X309949Y5935D01*
X309335Y6549D01*
X308850Y6750D01*
D02*
G37*
G36*
X307350D02*
X306865Y6549D01*
X306251Y5935D01*
X306050Y5450D01*
X307350D01*
Y6750D01*
D02*
G37*
G36*
X347850Y5450D02*
Y4150D01*
X349150D01*
X348949Y4636D01*
X348336Y5249D01*
X347850Y5450D01*
D02*
G37*
G36*
X346350D02*
X345865Y5249D01*
X345251Y4636D01*
X345050Y4150D01*
X346350D01*
Y5450D01*
D02*
G37*
G36*
X364350Y4650D02*
X363050D01*
Y3350D01*
X363535Y3551D01*
X364149Y4165D01*
X364350Y4650D01*
D02*
G37*
G36*
X361550D02*
X360250D01*
X360451Y4165D01*
X361065Y3551D01*
X361550Y3350D01*
Y4650D01*
D02*
G37*
G36*
X310150Y3950D02*
X308850D01*
Y2650D01*
X309335Y2851D01*
X309949Y3464D01*
X310150Y3950D01*
D02*
G37*
G36*
X307350D02*
X306050D01*
X306251Y3464D01*
X306865Y2851D01*
X307350Y2650D01*
Y3950D01*
D02*
G37*
%LPD*%
G36*
X325862Y78350D02*
X325595Y77850D01*
X325498D01*
Y75300D01*
Y72750D01*
X325774D01*
X326041Y72250D01*
X326007Y72200D01*
X305900Y72200D01*
X302400Y68700D01*
Y35400D01*
X301200Y34200D01*
X295700D01*
X294300Y35600D01*
Y76300D01*
X296396Y78396D01*
X325831D01*
X325862Y78350D01*
D02*
G37*
%LPC*%
G36*
X323997Y77850D02*
X321848D01*
Y76050D01*
X323997D01*
Y77850D01*
D02*
G37*
G36*
Y74550D02*
X321848D01*
Y72750D01*
X323997D01*
Y74550D01*
D02*
G37*
%LPD*%
G36*
X302798Y25349D02*
Y25087D01*
X300440Y22728D01*
X295490D01*
X294297Y23922D01*
X294268Y26513D01*
X295490Y27736D01*
X300411D01*
X302798Y25349D01*
D02*
G37*
G36*
Y13538D02*
Y13276D01*
X300440Y10917D01*
X295490D01*
X294297Y12111D01*
X294268Y14702D01*
X295490Y15925D01*
X300411D01*
X302798Y13538D01*
D02*
G37*
D21*
X276100Y106270D02*
Y109870D01*
Y100300D02*
Y106270D01*
X210678Y139731D02*
Y152523D01*
X211856Y153700D01*
X212647Y149685D02*
X213681Y150719D01*
X194930Y112172D02*
X195000Y112103D01*
Y108600D02*
Y112103D01*
X215509Y84809D02*
X215600Y84900D01*
X211659Y84809D02*
X215509D01*
X161347Y45400D02*
Y51400D01*
Y41348D02*
Y45400D01*
X153319Y40410D02*
X160410D01*
X161347Y41348D01*
X276100Y109870D02*
X276200Y109970D01*
X191923Y13899D02*
Y21817D01*
X167648Y64900D02*
X171723D01*
X171923Y65100D01*
X172185D01*
X98021Y54557D02*
Y59863D01*
X93448Y52500D02*
Y56600D01*
X198407Y99807D02*
X200836Y102236D01*
Y106267D01*
X196700Y99807D02*
X198407D01*
X276100Y113970D02*
Y118170D01*
X279600Y113970D02*
X281100Y112470D01*
X276100Y113970D02*
X279600D01*
X281100Y100300D02*
Y112470D01*
X212647Y139731D02*
Y149685D01*
X88874Y45410D02*
X98021Y54557D01*
X161347Y58880D02*
Y64900D01*
X84421Y45410D02*
X88874D01*
X84421Y50410D02*
X91358D01*
X93448Y52500D01*
X207237Y146302D02*
X208710Y144829D01*
Y139731D02*
Y144829D01*
X207237Y146302D02*
Y158750D01*
X247519Y61302D02*
X252484D01*
X247517Y61304D02*
X247519Y61302D01*
X244442Y61304D02*
X247517D01*
X244442Y66304D02*
X252512D01*
X241648Y184900D02*
X241747Y185000D01*
D61*
X12400Y171800D02*
D03*
X239934Y255146D02*
D03*
X269934D02*
D03*
X239934Y315146D02*
D03*
X269934Y325146D02*
D03*
Y295146D02*
D03*
X218458D02*
D03*
Y325146D02*
D03*
X188458Y315146D02*
D03*
X218458Y255146D02*
D03*
X188458D02*
D03*
X12249Y60900D02*
D03*
D64*
X215600Y84900D02*
D03*
X172185Y65100D02*
D03*
X55147Y108400D02*
D03*
D66*
X324757Y44122D02*
D03*
X331057D02*
D03*
X324747Y75300D02*
D03*
X331048D02*
D03*
X64447Y132300D02*
D03*
X58148D02*
D03*
X118851Y146799D02*
D03*
X112551D02*
D03*
X174600Y95400D02*
D03*
X168300D02*
D03*
X174600Y100568D02*
D03*
X168300D02*
D03*
X170047Y105300D02*
D03*
X163748D02*
D03*
X175400Y139700D02*
D03*
X169100D02*
D03*
X240300Y129450D02*
D03*
X246600D02*
D03*
X240300Y124450D02*
D03*
X246600D02*
D03*
X237348Y116100D02*
D03*
X243648D02*
D03*
X269800Y113970D02*
D03*
X276100D02*
D03*
Y106270D02*
D03*
X269800D02*
D03*
X161347Y64900D02*
D03*
X167648D02*
D03*
X161347Y45400D02*
D03*
X167648D02*
D03*
X198235Y21829D02*
D03*
X191935D02*
D03*
X180135Y21229D02*
D03*
X173835D02*
D03*
X252512Y66304D02*
D03*
X258812D02*
D03*
X252484Y61302D02*
D03*
X258784D02*
D03*
D67*
X324757Y56524D02*
D03*
Y49043D02*
D03*
X317277Y52784D02*
D03*
X161347Y51400D02*
D03*
Y58880D02*
D03*
X168828Y55140D02*
D03*
D68*
X324757Y68335D02*
D03*
X331056D02*
D03*
D69*
X194930Y112172D02*
D03*
Y118078D02*
D03*
X228395Y133826D02*
D03*
X194930Y122015D02*
D03*
Y114141D02*
D03*
Y116109D02*
D03*
Y129889D02*
D03*
Y131857D02*
D03*
Y133826D02*
D03*
Y125952D02*
D03*
Y127920D02*
D03*
Y123983D02*
D03*
X228395Y129889D02*
D03*
Y127920D02*
D03*
Y125952D02*
D03*
Y123983D02*
D03*
Y122015D02*
D03*
Y120046D02*
D03*
Y118078D02*
D03*
Y116109D02*
D03*
Y114141D02*
D03*
Y112172D02*
D03*
X194930Y120046D02*
D03*
X228395Y131857D02*
D03*
D70*
X200836Y106267D02*
D03*
Y139731D02*
D03*
X222489Y106267D02*
D03*
X222489Y139731D02*
D03*
X204773D02*
D03*
X206741D02*
D03*
X208710D02*
D03*
X210678D02*
D03*
X212647D02*
D03*
X214615D02*
D03*
X216584D02*
D03*
X218552D02*
D03*
X220521D02*
D03*
X218552Y106267D02*
D03*
X216584D02*
D03*
X214615D02*
D03*
X212647D02*
D03*
X210678D02*
D03*
X208710D02*
D03*
X206741D02*
D03*
X204773D02*
D03*
X202804D02*
D03*
X202804Y139731D02*
D03*
X220521Y106267D02*
D03*
D71*
X62597Y169241D02*
D03*
X62446Y58341D02*
D03*
D72*
X27361Y146406D02*
D03*
Y197194D02*
D03*
X27210Y86294D02*
D03*
Y35506D02*
D03*
D73*
X46148Y108400D02*
D03*
Y115880D02*
D03*
X81844Y157429D02*
D03*
Y149949D02*
D03*
X89718Y157429D02*
D03*
Y149949D02*
D03*
X187100Y111840D02*
D03*
Y104360D02*
D03*
X135047Y156858D02*
D03*
Y164338D02*
D03*
X176748Y163000D02*
D03*
Y170480D02*
D03*
X184748Y163040D02*
D03*
Y170520D02*
D03*
X229100Y100300D02*
D03*
Y92820D02*
D03*
X236100Y100300D02*
D03*
Y92820D02*
D03*
X251100Y100300D02*
D03*
Y92820D02*
D03*
X259100Y100300D02*
D03*
Y92820D02*
D03*
X161308Y35465D02*
D03*
Y27984D02*
D03*
X169182Y35465D02*
D03*
Y27984D02*
D03*
X177056Y35465D02*
D03*
Y27984D02*
D03*
X259400Y51300D02*
D03*
Y43820D02*
D03*
X251400Y51300D02*
D03*
Y43820D02*
D03*
D74*
X52119Y132251D02*
D03*
X44639D02*
D03*
X48379Y124771D02*
D03*
X214718Y245834D02*
D03*
X207237D02*
D03*
X210978Y238353D02*
D03*
X266686Y245834D02*
D03*
X259206D02*
D03*
X262946Y238353D02*
D03*
D75*
X118851Y152390D02*
D03*
Y157390D02*
D03*
Y162390D02*
D03*
Y167390D02*
D03*
X97592Y152390D02*
D03*
Y157390D02*
D03*
Y167390D02*
D03*
Y162390D02*
D03*
D76*
X102355Y138531D02*
D03*
X84954D02*
D03*
D77*
X113340Y135776D02*
D03*
X121607D02*
D03*
D78*
X82237Y177330D02*
D03*
Y188353D02*
D03*
D79*
X82237Y198571D02*
D03*
X92474D02*
D03*
D80*
X137749Y198590D02*
D03*
Y178511D02*
D03*
X102316Y198590D02*
D03*
Y178511D02*
D03*
D81*
X188447Y245100D02*
D03*
X199471D02*
D03*
X239948D02*
D03*
X250971D02*
D03*
X243000Y165700D02*
D03*
X231976D02*
D03*
X255466Y25500D02*
D03*
X244442D02*
D03*
D82*
X220747Y245900D02*
D03*
Y239600D02*
D03*
X225747Y239500D02*
D03*
Y245800D02*
D03*
X272548D02*
D03*
Y239500D02*
D03*
X277548D02*
D03*
Y245800D02*
D03*
X141347Y156858D02*
D03*
Y163158D02*
D03*
X207237Y158750D02*
D03*
Y165050D02*
D03*
X196600Y84850D02*
D03*
Y91150D02*
D03*
X201500D02*
D03*
Y84850D02*
D03*
X206500D02*
D03*
Y91150D02*
D03*
X211659Y84809D02*
D03*
Y91109D02*
D03*
D83*
X241747Y195000D02*
D03*
Y205000D02*
D03*
Y215000D02*
D03*
Y185000D02*
D03*
Y225000D02*
D03*
D84*
X84421Y35410D02*
D03*
Y40410D02*
D03*
X84500Y55430D02*
D03*
X84421Y60410D02*
D03*
Y65410D02*
D03*
Y70410D02*
D03*
Y75410D02*
D03*
Y80410D02*
D03*
Y85410D02*
D03*
Y90410D02*
D03*
Y95410D02*
D03*
D03*
X153319D02*
D03*
Y90410D02*
D03*
Y85410D02*
D03*
Y80410D02*
D03*
Y75410D02*
D03*
Y70410D02*
D03*
Y65410D02*
D03*
Y60410D02*
D03*
Y55410D02*
D03*
Y50410D02*
D03*
Y45410D02*
D03*
Y35410D02*
D03*
Y30410D02*
D03*
D03*
X84421D02*
D03*
X153319Y40410D02*
D03*
X84421Y50410D02*
D03*
Y45410D02*
D03*
D85*
X96370Y100410D02*
D03*
X101370Y100331D02*
D03*
X106370D02*
D03*
X111370D02*
D03*
X116370D02*
D03*
X121370D02*
D03*
X126370D02*
D03*
X131370D02*
D03*
X136370D02*
D03*
X141370D02*
D03*
D03*
D86*
X121547Y59308D02*
D03*
X127555Y65316D02*
D03*
X121547D02*
D03*
X115540D02*
D03*
Y59308D02*
D03*
X127555D02*
D03*
X115540Y53300D02*
D03*
X121547D02*
D03*
X127555D02*
D03*
D87*
X170647Y114300D02*
D03*
X174823Y130725D02*
D03*
X164523Y120424D02*
D03*
X180947Y124600D02*
D03*
D88*
X141954Y139136D02*
D03*
Y119451D02*
D03*
D89*
X167703Y156002D02*
D03*
X149592D02*
D03*
X158648D02*
D03*
D90*
Y181199D02*
D03*
D91*
X193233Y155776D02*
D03*
X185752D02*
D03*
X193233Y147902D02*
D03*
X185752D02*
D03*
X234400Y138800D02*
D03*
X241880D02*
D03*
X255460Y37000D02*
D03*
X262940D02*
D03*
X268700Y26100D02*
D03*
X261220D02*
D03*
X268700Y19100D02*
D03*
X261220D02*
D03*
X268700Y11143D02*
D03*
X261220D02*
D03*
D92*
X266100Y100300D02*
D03*
X271100D02*
D03*
X276100D02*
D03*
X281100D02*
D03*
X276100Y79040D02*
D03*
X271100D02*
D03*
X266100D02*
D03*
X281100D02*
D03*
D93*
X270765Y73770D02*
D03*
X266435D02*
D03*
D94*
X203340Y2876D02*
D03*
Y11143D02*
D03*
X174600Y2876D02*
D03*
Y11143D02*
D03*
D95*
X197828Y13899D02*
D03*
X191923D02*
D03*
X180112D02*
D03*
D96*
X247198Y5912D02*
D03*
X217277D02*
D03*
D97*
X244442Y15952D02*
D03*
X220033D02*
D03*
D98*
X237355Y16444D02*
D03*
X234796D02*
D03*
X229678D02*
D03*
X232237D02*
D03*
X227119D02*
D03*
D99*
X215879Y32900D02*
D03*
X225721Y36640D02*
D03*
Y29160D02*
D03*
X215879D02*
D03*
X215879Y36640D02*
D03*
X225721Y32900D02*
D03*
D100*
X244442Y51304D02*
D03*
Y66304D02*
D03*
Y61304D02*
D03*
Y56304D02*
D03*
X223182D02*
D03*
Y61304D02*
D03*
Y66304D02*
D03*
Y51304D02*
D03*
D101*
X182540Y111840D02*
X187100D01*
X255460Y25506D02*
X255466Y25500D01*
X255460Y25506D02*
Y37000D01*
X46148Y108400D02*
X55147D01*
X22427D02*
X46148D01*
D102*
X174600Y107700D02*
X188915Y122015D01*
X178993Y114787D02*
X188189Y123983D01*
X171134Y114787D02*
X178993D01*
X188189Y123983D02*
X194930D01*
X188915Y122015D02*
X194930D01*
X174600Y100568D02*
Y107700D01*
X170647Y114300D02*
X171134Y114787D01*
X170047Y105300D02*
Y111069D01*
X170647Y111668D01*
Y114300D01*
X196600Y79100D02*
Y84850D01*
X187100Y111840D02*
Y116300D01*
X188878Y118078D01*
X194930D01*
X174600Y95400D02*
Y100568D01*
X298084Y13413D02*
X327613D01*
X341048Y26847D02*
Y46400D01*
X327613Y13413D02*
X341048Y26847D01*
X214596Y66304D02*
X223182D01*
X212200Y68700D02*
Y79000D01*
Y68700D02*
X214596Y66304D01*
X206500Y71700D02*
X216896Y61304D01*
X201500Y73900D02*
Y84850D01*
X219096Y56304D02*
X223182D01*
X206500Y71700D02*
Y84850D01*
X201500Y73900D02*
X219096Y56304D01*
X216896Y61304D02*
X223182D01*
X201500Y95200D02*
X206741Y100441D01*
X201500Y91150D02*
Y95200D01*
X206500Y91150D02*
Y97500D01*
X208710Y99710D01*
X206741Y100441D02*
Y106267D01*
X208710Y99710D02*
Y106267D01*
X237355Y23055D02*
X239800Y25500D01*
X237355Y16444D02*
Y23055D01*
X232257Y127920D02*
X232291Y127886D01*
X232257Y125952D02*
X232291Y125986D01*
X236900Y129450D02*
X240300D01*
X235364Y125986D02*
X236900Y124450D01*
X240300D01*
X235336Y127886D02*
X236900Y129450D01*
X232291Y127886D02*
X235336D01*
X232291Y125986D02*
X235364D01*
X228395Y127920D02*
X232257D01*
X228395Y125952D02*
X232257D01*
X239800Y25500D02*
X244442D01*
D103*
X243648Y116100D02*
X249200D01*
X249200Y116100D01*
X64447Y132300D02*
X71500D01*
X71500Y132300D01*
X243648Y116100D02*
X243698Y116050D01*
X214615Y100626D02*
Y106267D01*
Y100626D02*
X215300Y99941D01*
Y99600D02*
Y99941D01*
X216584Y101857D02*
X219400Y99041D01*
X210678Y96722D02*
X211659Y95741D01*
X216584Y101857D02*
Y106267D01*
X218552Y102434D02*
X221300Y99686D01*
X212647Y97653D02*
X217600Y92700D01*
X210678Y96722D02*
Y106267D01*
X221300Y92900D02*
Y99686D01*
X218552Y102434D02*
Y106267D01*
X219400Y92000D02*
Y99041D01*
X212647Y97653D02*
Y106267D01*
X217600Y90900D02*
Y92700D01*
Y90900D02*
X227088Y81411D01*
X219400Y92000D02*
X228188Y83211D01*
X211659Y91109D02*
Y95741D01*
X227088Y81411D02*
X244789D01*
X174823Y130725D02*
X175400Y131302D01*
X175310Y131392D02*
X175400Y131302D01*
Y134004D02*
Y139700D01*
X175310Y131392D02*
Y133914D01*
X175400Y134004D01*
X285500Y32249D02*
Y48900D01*
X280700Y28860D02*
X282111D01*
X285500Y32249D01*
X315724Y25224D02*
X331057Y40557D01*
X298084Y25224D02*
X315724D01*
X226947Y219000D02*
X264200D01*
X218449Y210502D02*
X226947Y219000D01*
X264200D02*
X277548Y232347D01*
X185200Y61100D02*
X198235Y48065D01*
X185200Y61100D02*
Y91000D01*
X198235Y21829D02*
Y48065D01*
X225300Y137822D02*
Y187720D01*
X222900Y135422D02*
X225300Y137822D01*
Y187720D02*
X232580Y195000D01*
X222900Y131000D02*
Y135422D01*
X216499Y211097D02*
X225747Y220346D01*
X214615Y146148D02*
X216499Y148032D01*
Y211097D01*
X218449Y147402D02*
Y210502D01*
X216584Y145536D02*
X218449Y147402D01*
X220521Y139731D02*
Y195486D01*
X240035Y215000D01*
X222489Y187454D02*
X240035Y205000D01*
X222489Y139731D02*
Y187454D01*
X277548Y232347D02*
Y239500D01*
X249200Y85200D02*
X285500Y48900D01*
X331057Y40557D02*
Y44122D01*
X324757Y56524D02*
Y68335D01*
X228188Y83211D02*
X248421D01*
X221300Y92900D02*
X229000Y85200D01*
X249200D01*
X244789Y81411D02*
X252400Y73800D01*
X274900Y27770D02*
X279716Y22954D01*
X261688Y69944D02*
X274900Y56732D01*
Y27770D02*
Y56732D01*
X261688Y69944D02*
X261688D01*
X248421Y83211D02*
X261688Y69944D01*
X279716Y22954D02*
X280700D01*
X196600Y94900D02*
X197900Y96200D01*
X199600D02*
X204773Y101373D01*
X197900Y96200D02*
X199600D01*
X204773Y101373D02*
Y106267D01*
X196600Y91150D02*
Y94900D01*
X185808Y131212D02*
X191068Y125952D01*
X175310Y131212D02*
X185808D01*
X191068Y125952D02*
X194930D01*
X223989Y129911D02*
X228373D01*
X222900Y131000D02*
X223989Y129911D01*
X232580Y195000D02*
X241747D01*
X214615Y139731D02*
Y146148D01*
X240035Y205000D02*
X241747D01*
X216584Y139731D02*
Y145536D01*
X240035Y215000D02*
X241747D01*
X324757Y44122D02*
Y49043D01*
X331056Y68335D02*
Y72241D01*
X331048Y72250D02*
X331056Y72241D01*
X331048Y72250D02*
Y75300D01*
X225747Y220346D02*
Y239500D01*
X228395Y116109D02*
X233938D01*
X233947Y116100D01*
X237348D01*
D104*
X225721Y32900D02*
X229843D01*
X52168Y132300D02*
X58148D01*
X97592Y162390D02*
X97636Y162345D01*
X212213Y32900D02*
X215879D01*
X234400Y138800D02*
Y144700D01*
X82237Y193134D02*
X82237Y193134D01*
Y188353D02*
Y193134D01*
X82237Y193134D02*
Y198571D01*
X77400Y198700D02*
X77469Y198631D01*
X78512D01*
X78572Y198571D01*
X82237D01*
X267005Y165700D02*
X267048Y165743D01*
X243000Y165700D02*
X267005D01*
X231976Y172776D02*
X232000Y172800D01*
X231976Y165700D02*
Y172776D01*
X22395Y128117D02*
X26529Y132251D01*
X44639D01*
X22395Y108432D02*
X22427Y108400D01*
D105*
X168771Y21229D02*
X173835D01*
X168828Y55140D02*
X173740D01*
D106*
X90111Y222999D02*
X101401D01*
X111500Y212900D02*
X131800D01*
X101401Y222999D02*
X111500Y212900D01*
X131800D02*
X137749Y206951D01*
Y198590D02*
Y206951D01*
Y182373D02*
X149200Y193824D01*
X129481Y222999D02*
X145099D01*
X149200Y218899D01*
Y193824D02*
Y218899D01*
X137749Y178511D02*
Y182373D01*
X249934Y315146D02*
X269934Y295146D01*
X249934Y315146D02*
Y339928D01*
X198458Y315146D02*
Y339928D01*
Y315146D02*
X218458Y295146D01*
D107*
X229181Y138800D02*
X234400D01*
X228303Y133985D02*
Y137921D01*
X229181Y138800D01*
X180135Y13923D02*
Y21229D01*
X227119Y16444D02*
Y21700D01*
X276100Y73909D02*
Y79040D01*
X285200Y73909D02*
Y159200D01*
X284321Y73031D02*
X285200Y73909D01*
X276979Y73031D02*
X284321D01*
X276100Y73909D02*
X276979Y73031D01*
X267048Y165743D02*
X278658D01*
X285200Y159200D01*
X266100Y79040D02*
X266435Y78706D01*
Y73770D02*
Y78706D01*
X270765Y78706D02*
X271100Y79040D01*
X270765Y73770D02*
Y78706D01*
D108*
X121547Y76056D02*
X141370Y95879D01*
X121547Y65316D02*
Y76056D01*
X141370Y95879D02*
Y100331D01*
D109*
X247220Y124470D02*
X253381D01*
X255050Y122801D01*
X256896Y124648D02*
X256898D01*
X246600Y129450D02*
X252094D01*
X256896Y124648D01*
X255050Y122800D02*
Y122801D01*
X215879Y29160D02*
X225721D01*
X211940Y36640D02*
X220619D01*
X215433Y29606D02*
X215879Y29160D01*
X205383Y35779D02*
Y54497D01*
X211557Y29606D02*
X215433D01*
X210586Y35286D02*
X211940Y36640D01*
X209369Y35286D02*
X210586D01*
X205383Y35779D02*
X211557Y29606D01*
X207853Y36802D02*
X209369Y35286D01*
X207853Y36802D02*
Y55520D01*
X203973Y59400D02*
X207853Y55520D01*
X200088Y59400D02*
X203973D01*
X200014Y56900D02*
X202980D01*
X205383Y54497D01*
X234796Y16444D02*
Y32704D01*
X231466Y29160D02*
X232327Y28299D01*
X225721Y36640D02*
X230860D01*
X232327Y18939D02*
Y28299D01*
X230860Y36640D02*
X234796Y32704D01*
X225721Y29160D02*
X231466D01*
X220619Y36640D02*
X220981Y37003D01*
X225359D01*
X225721Y36640D01*
X232290Y16533D02*
Y18902D01*
X232327Y18939D01*
D110*
X96300Y178511D02*
X102316D01*
D111*
X241747Y225000D02*
X249800D01*
X84421Y30410D02*
X92732D01*
X113531Y51210D01*
X241600Y185000D02*
X241648Y184953D01*
X230448Y184900D02*
X230547Y185000D01*
X241600D01*
D112*
X149167Y312763D02*
X175544Y339141D01*
X149167Y301739D02*
Y312763D01*
X22001Y319141D02*
X39403Y301739D01*
X70426D01*
X22001Y339141D02*
X37749D01*
D113*
X298084Y7508D02*
D03*
Y13413D02*
D03*
Y19319D02*
D03*
Y25224D02*
D03*
Y37036D02*
D03*
Y31130D02*
D03*
X280700Y40671D02*
D03*
Y34765D02*
D03*
Y28860D02*
D03*
Y22954D02*
D03*
Y11143D02*
D03*
Y17049D02*
D03*
D114*
X331730Y88527D02*
D03*
Y102670D02*
D03*
X317587D02*
D03*
X13143Y284023D02*
D03*
Y241700D02*
D03*
X267048Y146057D02*
D03*
D115*
X175544Y339141D02*
D03*
X37749D02*
D03*
D116*
X22001Y319141D02*
D03*
Y339141D02*
D03*
X269954Y339928D02*
D03*
X249954D02*
D03*
X198458D02*
D03*
X218458D02*
D03*
D117*
X32828Y284023D02*
D03*
Y241700D02*
D03*
D118*
X54920Y176131D02*
D03*
X54769Y65231D02*
D03*
D119*
X30117Y171800D02*
D03*
X29966Y60900D02*
D03*
D120*
X42715Y152902D02*
D03*
X42564Y42002D02*
D03*
D121*
X22395Y108432D02*
D03*
Y128117D02*
D03*
D122*
X90111Y222999D02*
D03*
X129481D02*
D03*
X70426Y301739D02*
D03*
X149167D02*
D03*
D123*
X115540Y62312D02*
D03*
X118544Y65316D02*
D03*
X121547Y62312D02*
D03*
X118544Y59308D02*
D03*
X124551D02*
D03*
X127555Y62312D02*
D03*
X124551Y65316D02*
D03*
X127555Y56304D02*
D03*
X121547D02*
D03*
X124551Y53300D02*
D03*
X118544D02*
D03*
X115540Y56304D02*
D03*
D124*
X267048Y165743D02*
D03*
D125*
X267200Y235300D02*
D03*
X308700Y99200D02*
D03*
X182540Y111840D02*
D03*
X341048Y46408D02*
D03*
X249180Y116100D02*
D03*
X213681Y150719D02*
D03*
X211856Y153700D02*
D03*
X196700Y99807D02*
D03*
X196600Y79000D02*
D03*
X195000Y108600D02*
D03*
X98053Y59895D02*
D03*
X71500Y132300D02*
D03*
X93448Y56600D02*
D03*
X357434Y44366D02*
D03*
X255460Y31253D02*
D03*
X232000Y172800D02*
D03*
X215300Y99600D02*
D03*
X185200Y91000D02*
D03*
X168771Y21229D02*
D03*
X360600Y86300D02*
D03*
X362700Y88300D02*
D03*
X362600Y84400D02*
D03*
X12500Y193100D02*
D03*
X185500Y142000D02*
D03*
X347100Y3400D02*
D03*
X362300Y5400D02*
D03*
X307400Y93100D02*
D03*
X327900Y69700D02*
D03*
X316700Y22400D02*
D03*
X308100Y4700D02*
D03*
X306100Y9600D02*
D03*
X326800Y17400D02*
D03*
X326200Y23700D02*
D03*
X335300Y29000D02*
D03*
X358900Y25400D02*
D03*
Y37400D02*
D03*
X313800Y44200D02*
D03*
X329700Y49300D02*
D03*
X328600Y60800D02*
D03*
X340300Y89100D02*
D03*
X357500Y97300D02*
D03*
X345800Y103400D02*
D03*
X301600Y103900D02*
D03*
X50800Y140600D02*
D03*
X65600Y190300D02*
D03*
X178300Y76100D02*
D03*
X255900Y7900D02*
D03*
X256000Y18100D02*
D03*
X263600Y47200D02*
D03*
X230800Y88300D02*
D03*
X246600Y109000D02*
D03*
X69000Y91800D02*
D03*
X10800Y149500D02*
D03*
X108600Y159000D02*
D03*
X187450Y136250D02*
D03*
X216900Y118700D02*
D03*
X151200Y110900D02*
D03*
X157700Y137100D02*
D03*
X123900Y176300D02*
D03*
X117400Y189100D02*
D03*
X33700Y121000D02*
D03*
X66300Y143700D02*
D03*
X114600Y115200D02*
D03*
X92600Y115400D02*
D03*
X70200Y113900D02*
D03*
X49100Y94800D02*
D03*
X172700Y49400D02*
D03*
X181700Y49600D02*
D03*
X166300Y73300D02*
D03*
X167600Y87100D02*
D03*
X188800Y97400D02*
D03*
X193100Y69400D02*
D03*
X247100Y35000D02*
D03*
X238000Y45300D02*
D03*
X234000Y61600D02*
D03*
X236600Y74200D02*
D03*
X220000Y78300D02*
D03*
X258800Y85100D02*
D03*
X275300Y90000D02*
D03*
X206800Y113200D02*
D03*
X230800Y106700D02*
D03*
X212400Y134100D02*
D03*
X265100Y120300D02*
D03*
X282400Y126100D02*
D03*
X274600Y136600D02*
D03*
X248700Y145300D02*
D03*
X229300Y145400D02*
D03*
X255500Y158400D02*
D03*
X240700Y159300D02*
D03*
X275800Y181700D02*
D03*
X254200Y182400D02*
D03*
X276300Y208000D02*
D03*
X257300Y209100D02*
D03*
X158648Y168600D02*
D03*
X165300Y197700D02*
D03*
X185300Y186600D02*
D03*
X185100Y201700D02*
D03*
X200700Y187000D02*
D03*
X200200Y202200D02*
D03*
X200000Y216800D02*
D03*
X186000Y216900D02*
D03*
X54500Y114900D02*
D03*
Y119900D02*
D03*
Y124850D02*
D03*
X96300Y178511D02*
D03*
X249800Y225000D02*
D03*
X267200Y238300D02*
D03*
X271200Y235300D02*
D03*
X219400Y235400D02*
D03*
X215400D02*
D03*
Y238400D02*
D03*
X173740Y55140D02*
D03*
X182200Y27700D02*
D03*
X185900D02*
D03*
Y30900D02*
D03*
X182300D02*
D03*
X178900Y39400D02*
D03*
X181895Y39363D02*
D03*
X181900Y36400D02*
D03*
X354400Y15000D02*
D03*
X357000D02*
D03*
X332400Y36600D02*
D03*
X335400D02*
D03*
Y39600D02*
D03*
X77400Y198700D02*
D03*
X252400Y73800D02*
D03*
X89718Y163335D02*
D03*
X83418D02*
D03*
X80269D02*
D03*
X177947Y157400D02*
D03*
X173948D02*
D03*
X175947Y153400D02*
D03*
X234400Y144700D02*
D03*
X212200Y79000D02*
D03*
X276100Y118170D02*
D03*
X276200Y109970D02*
D03*
X230448Y184900D02*
D03*
X254400Y56300D02*
D03*
X257400D02*
D03*
X277700Y6100D02*
D03*
X274700D02*
D03*
X280700D02*
D03*
X251400Y56300D02*
D03*
X241800Y101500D02*
D03*
X244800D02*
D03*
X241800Y98500D02*
D03*
X65148Y66100D02*
D03*
X73147Y66000D02*
D03*
X65148Y71400D02*
D03*
X73147D02*
D03*
X69147Y66100D02*
D03*
Y71400D02*
D03*
X133047Y138700D02*
D03*
Y143700D02*
D03*
X127548Y143600D02*
D03*
X86568Y163335D02*
D03*
X71214Y179476D02*
D03*
X67277Y159791D02*
D03*
X63340D02*
D03*
X59403D02*
D03*
X67277Y179476D02*
D03*
X63340D02*
D03*
D126*
X227061Y21704D02*
D03*
X229785Y32904D02*
D03*
X212156D02*
D03*
X200088Y59400D02*
D03*
X200014Y56900D02*
D03*
X255050Y122800D02*
D03*
X256898Y124648D02*
D03*
M02*
