G04*
G04 #@! TF.GenerationSoftware,Altium Limited,Altium Designer,23.4.1 (23)*
G04*
G04 Layer_Color=128*
%FSLAX25Y25*%
%MOIN*%
G70*
G04*
G04 #@! TF.SameCoordinates,A51C0158-4689-45C6-BA85-3C71187D63DA*
G04*
G04*
G04 #@! TF.FilePolarity,Positive*
G04*
G01*
G75*
%ADD22R,0.04194X0.03494*%
%ADD24R,0.02087X0.05315*%
%ADD29R,0.05512X0.03150*%
%ADD38R,0.03494X0.04194*%
%ADD47R,0.03150X0.05512*%
%ADD74R,0.03150X0.04331*%
%ADD166R,0.05039X0.02677*%
%ADD167R,0.04921X0.07480*%
%ADD168R,0.07087X0.03150*%
D22*
X327119Y4162D02*
D03*
X320819D02*
D03*
X345998Y60300D02*
D03*
X352297D02*
D03*
X349953Y25815D02*
D03*
X343653D02*
D03*
X341293Y3768D02*
D03*
X334993D02*
D03*
X327119Y9280D02*
D03*
X320819D02*
D03*
X311372Y72272D02*
D03*
X305072D02*
D03*
D24*
X346017Y53768D02*
D03*
X352316D02*
D03*
D29*
X347592Y81130D02*
D03*
Y88610D02*
D03*
X355466Y81130D02*
D03*
Y88610D02*
D03*
X352710Y76209D02*
D03*
Y68728D02*
D03*
X334993Y9280D02*
D03*
Y16760D02*
D03*
X324757Y37232D02*
D03*
Y29752D02*
D03*
X316883Y37232D02*
D03*
Y29752D02*
D03*
X309009Y37232D02*
D03*
Y29752D02*
D03*
X307434Y81130D02*
D03*
Y88610D02*
D03*
D38*
X361765Y75027D02*
D03*
Y81327D02*
D03*
X346410Y71484D02*
D03*
Y65184D02*
D03*
X357434Y54752D02*
D03*
Y48452D02*
D03*
X355465Y10067D02*
D03*
Y3767D02*
D03*
X304678Y66760D02*
D03*
Y60460D02*
D03*
X309846Y66690D02*
D03*
Y60390D02*
D03*
X302291Y48873D02*
D03*
Y55173D02*
D03*
X307409D02*
D03*
Y48873D02*
D03*
X312527Y55173D02*
D03*
Y48873D02*
D03*
X299560Y86248D02*
D03*
Y92548D02*
D03*
D47*
X323647Y88300D02*
D03*
X316167D02*
D03*
X313339Y16300D02*
D03*
X320819D02*
D03*
D74*
X349953Y10067D02*
D03*
X342473D02*
D03*
X349953Y20303D02*
D03*
X342473D02*
D03*
X346213D02*
D03*
D166*
X339560Y81366D02*
D03*
Y76366D02*
D03*
Y71366D02*
D03*
Y66366D02*
D03*
Y61366D02*
D03*
Y56366D02*
D03*
Y51366D02*
D03*
X318615Y76366D02*
D03*
Y71366D02*
D03*
Y66366D02*
D03*
Y61366D02*
D03*
Y56366D02*
D03*
Y51366D02*
D03*
D03*
Y81366D02*
D03*
D167*
X351956Y37900D02*
D03*
X340539D02*
D03*
D168*
X294639Y59476D02*
D03*
Y48847D02*
D03*
X297592Y81130D02*
D03*
Y70500D02*
D03*
M02*
