M48
;Layer_Color=9474304
;FILE_FORMAT=2:5
INCH,LZ
;TYPE=PLATED
T1F00S00C0.00984
T2F00S00C0.01181
T3F00S00C0.01378
T4F00S00C0.02165
T5F00S00C0.02362
T6F00S00C0.02953
T7F00S00C0.03150
T8F00S00C0.03543
T10F00S00C0.04134
T12F00S00C0.05118
T13F00S00C0.06693
;TYPE=NON_PLATED
T14F00S00C0.03543
T15F00S00C0.08268
%
T01
X0118544Y00533
X0124551
X0121547Y0056304
Y0062312
X0124551Y0059308
X0118544
X011554Y0062312
Y0056304
X0118544Y0065316
X0124551
X0127555Y0062312
Y0056304
T02
X0227061Y0021704
X0229785Y0032904
X02156Y00849
X025505Y01228
X0256898Y0124648
X0200088Y00594
X0200014Y00569
X0172185Y00651
X0212156Y0032904
X0055147Y01084
T03
X0168771Y0021229
X0256Y00181
X02559Y00079
X02747Y00061
X02777
X02807
X03081Y00047
X03061Y00096
X03167Y00224
X03268Y00174
X03544Y0015
X0357
X03623Y00054
X03471Y00034
X03589Y00254
Y00374
X0357434Y0044366
X0341048Y0046408
X03354Y00396
Y00366
X03324
X03353Y0029
X03262Y00237
X03297Y00493
X03286Y00608
X03279Y00697
X03403Y00891
X03458Y01034
X03575Y00973
X03606Y00863
X03626Y00844
X03627Y00883
X03074Y00931
X03087Y00992
X03016Y01039
X02762Y010997
X02761Y011817
X02651Y01203
X024918Y01161
X02466Y0109
X02448Y01015
X02418
Y00985
X02308Y01067
Y00883
X02366Y00742
X0234Y00616
X0238Y00453
X02471Y0035
X025546Y0031253
X02636Y00472
X02574Y00563
X02544
X02514
X02524Y00738
X02588Y00851
X02753Y009
X02824Y01261
X02746Y01366
X02487Y01453
X02344Y01447
X02293Y01454
X0213681Y0150719
X02169Y01187
X02153Y00996
X022Y00783
X02407Y01593
X02555Y01584
X0232Y01728
X03138Y00442
X02122Y0079
X01966
X01931Y00694
X01783Y00761
X01663Y00733
X01676Y00871
X01852Y0091
X01888Y00974
X01967Y0099807
X0195Y01086
X018254Y011184
X02068Y01132
X02124Y01341
X0211856Y01537
X0175947Y01534
X0177947Y01574
X0173948
X0158648Y01686
X01577Y01371
X0133047Y01387
Y01437
X0127548Y01436
X01086Y0159
X0089718Y0163335
X0086568
X0083418
X0080269
X0067277Y0159791
X006334
X0059403
X00663Y01437
X00715Y01323
X00702Y01139
X0069Y00918
X0069147Y00714
X0065148
Y00661
X0069147
X0073147Y0066
Y00714
X0093448Y00566
X0098053Y0059895
X00926Y01154
X01146Y01152
X01512Y01109
X018745Y013625
X01855Y0142
X01239Y01763
X00963Y0178511
X0071214Y0179476
X0067277
X006334
X017374Y005514
X01727Y00494
X01817Y00496
X0181895Y0039363
X01819Y00364
X01823Y00309
X01822Y00277
X01859
Y00309
X01789Y00394
X00491Y00948
X00545Y01149
Y01199
Y012485
X00508Y01406
X00337Y0121
X00108Y01495
X00125Y01931
X00656Y01903
X00774Y01987
X01174Y01891
X01653Y01977
X01851Y02017
X01853Y01866
X02007Y0187
X02002Y02022
X02Y02168
X0186Y02169
X02154Y02354
Y02384
X02194Y02354
X02498Y0225
X02573Y02091
X02763Y0208
X02758Y01817
X02542Y01824
X0230448Y01849
X02672Y02353
Y02383
X02712Y02353
T04
X033173Y0088527
Y010267
X0317587
T05
X0267048Y0146057
Y0165743
X0032828Y02417
X0013143
Y0284023
X0032828
T06
X02807Y0011143
Y0017049
Y0022954
X0298084Y0019319
Y0013413
Y0007508
Y0025224
Y003113
Y0037036
X02807Y0034765
Y0040671
Y002886
T07
X0022395Y0108432
Y0128117
T08
X0090111Y0222999
X0129481
X0149167Y0301739
X0070426
T10
X0175544Y0339141
X0037749
T12
X0188458Y0255146
Y0315146
X0218458Y0325146
Y0295146
Y0255146
X0239934
X0269934
Y0295146
Y0325146
X0239934Y0315146
T13
X0022001Y0319141
X0218458Y0339928
X0249954
X0269954
X0198458
X0022001Y0339141
T14
X0183065Y0007009
X0194876
T15
X0012249Y00609
X00124Y01718
M30
